SplineFontDB: 3.0
FontName: Quicksand-Bold
FullName: Quicksand Bold
FamilyName: Quicksand
Weight: Bold
Copyright: Copyright (c) 2011, Andrew Paglinawan (www.andrewpaglinawan.com), with Reserved Font Name "Quicksand".
Version: 001.001
ItalicAngle: 0
UnderlinePosition: -50
UnderlineWidth: 50
Ascent: 800
Descent: 200
LayerCount: 2
Layer: 0 0 "Back"  1
Layer: 1 0 "Fore"  0
NeedsXUIDChange: 1
FSType: 0
OS2Version: 0
OS2_WeightWidthSlopeOnly: 0
OS2_UseTypoMetrics: 0
CreationTime: 1318372931
ModificationTime: 1318373214
OS2TypoAscent: 0
OS2TypoAOffset: 1
OS2TypoDescent: 0
OS2TypoDOffset: 1
OS2TypoLinegap: 0
OS2WinAscent: 0
OS2WinAOffset: 1
OS2WinDescent: 0
OS2WinDOffset: 1
HheadAscent: 0
HheadAOffset: 1
HheadDescent: 0
HheadDOffset: 1
OS2Vendor: 'PfEd'
MarkAttachClasses: 1
DEI: 91125
GaspTable: 1 65535 15
Encoding: Custom
UnicodeInterp: none
NameList: Adobe Glyph List
DisplaySize: -48
AntiAlias: 1
FitToEm: 1
WinInfo: 50 25 10
BeginPrivate: 7
StdHW 5 [111]
StemSnapH 10 [106 111 ]
StdVW 5 [111]
StemSnapV 6 [111 ]
BlueValues 21 [0 0 521 531 700 700]
OtherBlues 11 [-180 -180]
ForceBold 4 true
EndPrivate
BeginChars: 278 194

StartChar: B
Encoding: 66 66 0
Width: 594
Flags: W
HStem: 0 111<151.333 340 215 340 215 340 163 340> 1 21G<161.667 162> 318 111<215 301 215 301 301 312 215 340> 589 111<215 215 215 301>
VStem: 104 111<111 318 429 589> 380 111<499 521> 443 111<200.667 229.333>
LayerCount: 2
Fore
SplineSet
163 0 m 1xba
 162 1 l 2x7a
 161.333007812 1 160.333007812 0.6669921875 159 0 c 0
 143.666992188 0 130.666992188 5.3330078125 120 16 c 0
 109.333007812 26.6669921875 104 39.6669921875 104 55 c 2
 104 645 l 2
 104 660.333007812 109.333007812 673.333007812 120 684 c 0
 130.666992188 694.666992188 143.666992188 700 159 700 c 2
 301 700 l 2
 353.666992188 700 398.5 681.5 435.5 644.5 c 0
 472.5 607.5 491 565.333007812 491 518 c 0xbc
 491 470.666992188 478.333007812 430 453 396 c 1
 483.666992188 376.666992188 508.166992188 351 526.5 319 c 0
 544.833007812 287 554 252.333007812 554 215 c 0
 554 155.666992188 533.166992188 105 491.5 63 c 0
 449.833007812 21 399.333007812 0 340 0 c 2
 163 0 l 1xba
215 589 m 1
 215 429 l 1
 301 429 l 2
 323 429 341.666992188 437 357 453 c 0
 372.333007812 469 380 488 380 510 c 0
 380 532 372.333007812 550.666992188 357 566 c 0
 341.666992188 581.333007812 323 589 301 589 c 2
 215 589 l 1
215 318 m 1
 215 111 l 1
 340 111 l 2
 368.666992188 111.666992188 393 122 413 142 c 0
 433 162 443 186.333007812 443 215 c 0xba
 443 243.666992188 433 267.833007812 413 287.5 c 0
 393 307.166992188 368.666992188 317.333007812 340 318 c 2
 215 318 l 1
EndSplineSet
EndChar

StartChar: C
Encoding: 67 67 1
Width: 771
Flags: MW
HStem: 0 114<401.333 466.667 401.333 483.667> 606 114<440 468.333>
VStem: 73 114
LayerCount: 2
Fore
SplineSet
260 534 m 1
 211.333007812 484 187 425.333007812 187 358 c 0
 187 290.666992188 211.833007812 233.166992188 261.5 185.5 c 0
 311.166992188 137.833007812 368.666992188 114 434 114 c 0
 499.333007812 114 555 132.333007812 601 169 c 0
 612.333007812 177.666992188 626 181 642 179 c 0
 658 177 671 170 681 158 c 0
 690.333007812 145.333007812 694 131.166992188 692 115.5 c 0
 690 99.8330078125 683 87.3330078125 671 78 c 0
 604.333007812 26 527.333007812 0 440 0 c 0
 340 0 254 35.1669921875 182 105.5 c 0
 110 175.833007812 73.6669921875 260.666992188 73 360 c 1
 73.6669921875 458.666992188 110 543.166992188 182 613.5 c 0
 254 683.833007812 340 719.333007812 440 720 c 0
 527.333007812 720 604.333007812 694 671 642 c 0
 683 632 690 619.333007812 692 604 c 0
 694 588.666992188 690.166992188 574.666992188 680.5 562 c 0
 670.833007812 549.333007812 658 542 642 540 c 0
 626 538 612.333007812 541.666992188 601 551 c 0
 556.333007812 587.666992188 501.166992188 606 435.5 606 c 0
 369.833007812 606 311.333007812 582 260 534 c 1
EndSplineSet
EndChar

StartChar: D
Encoding: 68 68 2
Width: 719
Flags: MW
HStem: 0 111<151.333 277 215 277 215 277> 589 111<215 215 215 277>
VStem: 104 111<111 589 111 645 111 652.667> 515 111<317 383>
LayerCount: 2
Fore
SplineSet
104 55 m 2
 104 645 l 2
 104 660.333007812 109.333007812 673.333007812 120 684 c 0
 130.666992188 694.666992188 143.666992188 700 159 700 c 2
 277 700 l 2
 373.666992188 700 456 665.833007812 524 597.5 c 0
 592 529.166992188 626 446.666992188 626 350 c 0
 626 253.333007812 592 170.833007812 524 102.5 c 0
 456 34.1669921875 373.666992188 0 277 0 c 2
 159 0 l 2
 143.666992188 0 130.666992188 5.3330078125 120 16 c 0
 109.333007812 26.6669921875 104 39.6669921875 104 55 c 2
215 589 m 1
 215 111 l 1
 277 111 l 2
 343 111.666992188 399.166992188 135.166992188 445.5 181.5 c 0
 491.833007812 227.833007812 515 284 515 350 c 0
 515 416 491.833007812 472.333007812 445.5 519 c 0
 399.166992188 565.666992188 343 589 277 589 c 2
 215 589 l 1
EndSplineSet
EndChar

StartChar: E
Encoding: 69 69 3
Width: 593
Flags: MW
HStem: 0 111<151.333 486 162 486 215 486 215 486> 295 111<215 448 215 448> 589 111<215 486 215 215>
VStem: 104 111<111 295 406 589>
LayerCount: 2
Fore
SplineSet
159 0 m 1
 143.666992188 0 130.666992188 5.3330078125 120 16 c 0
 109.333007812 26.6669921875 104 39.6669921875 104 55 c 2
 104 645 l 2
 104 660.333007812 109.333007812 673.333007812 120 684 c 0
 130.666992188 694.666992188 143.666992188 700 159 700 c 2
 486 700 l 2
 500.666992188 700 513.5 694.666992188 524.5 684 c 0
 535.5 673.333007812 541 660.333007812 541 645 c 0
 541 629.666992188 535.5 616.5 524.5 605.5 c 0
 513.5 594.5 500.666992188 589 486 589 c 2
 215 589 l 1
 215 406 l 1
 448 406 l 2
 462.666992188 406 475.5 400.5 486.5 389.5 c 0
 497.5 378.5 503 365.5 503 350.5 c 0
 503 335.5 497.666992188 322.5 487 311.5 c 0
 476.333007812 300.5 463.333007812 295 448 295 c 2
 215 295 l 1
 215 111 l 1
 486 111 l 2
 500.666992188 111 513.5 105.5 524.5 94.5 c 0
 535.5 83.5 541 70.5 541 55.5 c 0
 541 40.5 535.5 27.5 524.5 16.5 c 0
 513.5 5.5 500.666992188 0 486 0 c 2
 162 0 l 1
 160 1 l 1
 159 0 l 1
EndSplineSet
EndChar

StartChar: F
Encoding: 70 70 4
Width: 605
Flags: MW
HStem: 0 21G<151.333 166.667> 295 111<215 448 215 448> 589 111<215 486 215 215>
VStem: 104 111<55 295 406 589>
LayerCount: 2
Fore
SplineSet
159 0 m 0
 143.666992188 0 130.666992188 5.3330078125 120 16 c 0
 109.333007812 26.6669921875 104 39.6669921875 104 55 c 2
 104 645 l 2
 104 660.333007812 109.333007812 673.333007812 120 684 c 0
 130.666992188 694.666992188 143.666992188 700 159 700 c 2
 486 700 l 2
 500.666992188 700 513.5 694.5 524.5 683.5 c 0
 535.5 672.5 541 659.5 541 644.5 c 0
 541 629.5 535.5 616.5 524.5 605.5 c 0
 513.5 594.5 500.666992188 589 486 589 c 2
 215 589 l 1
 215 406 l 1
 448 406 l 2
 462.666992188 406 475.5 400.5 486.5 389.5 c 0
 497.5 378.5 503 365.5 503 350.5 c 0
 503 335.5 497.666992188 322.5 487 311.5 c 0
 476.333007812 300.5 463.333007812 295 448 295 c 2
 215 295 l 1
 215 55 l 2
 215 39.6669921875 209.5 26.6669921875 198.5 16 c 0
 187.5 5.3330078125 174.333007812 0 159 0 c 0
EndSplineSet
EndChar

StartChar: G
Encoding: 71 71 5
Width: 814
Flags: MW
HStem: 0 114<407.333 465.667 407.333 484.333> 289 113<428.333 635 436 579> 606 114<401.333 465.667>
VStem: 73 114<326 394 326 409> 579 114<152 289 289 289>
LayerCount: 2
Fore
SplineSet
693 125 m 2
 693 117 691.333007812 109.666992188 688 103 c 1
 688 102 l 1
 684.666992188 92.6669921875 678.333007812 84.6669921875 669 78 c 0
 602.333007812 26 526.666992188 0 442 0 c 0
 340 0 253 34.8330078125 181 104.5 c 0
 109 174.166992188 73 259 73 359 c 0
 73 459 109 544.166992188 181 614.5 c 0
 253 684.833007812 340 720 442 720 c 0
 528 720 604 694 670 642 c 0
 682.666992188 632.666992188 690 620 692 604 c 0
 694 588 690.333007812 573.833007812 681 561.5 c 0
 671.666992188 549.166992188 659 542 643 540 c 0
 627 538 612.666992188 542 600 552 c 0
 553.333007812 588 497.833007812 606 433.5 606 c 0
 369.166992188 606 312 582 262 534 c 0
 212 486 187 428 187 360 c 0
 187 292 212.166992188 234 262.5 186 c 0
 312.833007812 138 372.666992188 114 442 114 c 0
 489.333007812 114 535 126.666992188 579 152 c 1
 579 289 l 1
 436 289 l 2
 420.666992188 289 407.333007812 294.666992188 396 306 c 0
 384.666992188 317.333007812 379 330.833007812 379 346.5 c 0
 379 362.166992188 384.5 375.333007812 395.5 386 c 0
 406.5 396.666992188 420 402 436 402 c 2
 635 402 l 2
 651 402 664.666992188 396.666992188 676 386 c 0
 687.333007812 375.333007812 693 362 693 346 c 2
 693 125 l 2
EndSplineSet
EndChar

StartChar: H
Encoding: 72 72 6
Width: 709
Flags: MW
HStem: 0 21G<151.333 166.667 521.333 536.667> 295 110<215 474 215 474> 680 20G<151.333 166.667 521.333 536.667>
VStem: 104 111<55 295 405 645> 474 111<55 295 295 295 405 645>
LayerCount: 2
Fore
SplineSet
159 0 m 0
 143.666992188 0 130.666992188 5.3330078125 120 16 c 0
 109.333007812 26.6669921875 104 39.6669921875 104 55 c 2
 104 645 l 2
 104 660.333007812 109.333007812 673.333007812 120 684 c 0
 130.666992188 694.666992188 143.666992188 700 159 700 c 0
 174.333007812 700 187.5 694.666992188 198.5 684 c 0
 209.5 673.333007812 215 660.333007812 215 645 c 2
 215 405 l 1
 474 405 l 1
 474 645 l 2
 474 660.333007812 479.333007812 673.333007812 490 684 c 0
 500.666992188 694.666992188 513.666992188 700 529 700 c 0
 544.333007812 700 557.5 694.666992188 568.5 684 c 0
 579.5 673.333007812 585 660.333007812 585 645 c 2
 585 55 l 2
 585 39.6669921875 579.5 26.6669921875 568.5 16 c 0
 557.5 5.3330078125 544.333007812 0 529 0 c 0
 513.666992188 0 500.666992188 5.3330078125 490 16 c 0
 479.333007812 26.6669921875 474 39.6669921875 474 55 c 2
 474 295 l 1
 215 295 l 1
 215 55 l 2
 215 39.6669921875 209.5 26.6669921875 198.5 16 c 0
 187.5 5.3330078125 174.333007812 0 159 0 c 0
EndSplineSet
EndChar

StartChar: I
Encoding: 73 73 7
Width: 305
Flags: MW
HStem: 0 21G<158.333 173.667> 680 20G<158.333 173.667>
VStem: 111 111<55 645>
LayerCount: 2
Fore
SplineSet
111 645 m 2
 111 660.333007812 116.333007812 673.333007812 127 684 c 0
 137.666992188 694.666992188 150.666992188 700 166 700 c 0
 181.333007812 700 194.5 694.666992188 205.5 684 c 0
 216.5 673.333007812 222 660.333007812 222 645 c 2
 222 55 l 2
 222 39.6669921875 216.5 26.6669921875 205.5 16 c 0
 194.5 5.3330078125 181.333007812 0 166 0 c 0
 150.666992188 0 137.666992188 5.3330078125 127 16 c 0
 116.333007812 26.6669921875 111 39.6669921875 111 55 c 2
 111 645 l 2
EndSplineSet
EndChar

StartChar: J
Encoding: 74 74 8
Width: 594
Flags: MW
HStem: 0 111<277 311 277 322.333> 680 20G<474.333 489.667>
VStem: 426 111<248 645>
LayerCount: 2
Fore
SplineSet
55.5 214.5 m 0
 62.5 228.166992188 73.1669921875 237.166992188 87.5 241.5 c 0
 101.833007812 245.833007812 115.833007812 244.666992188 129.5 238 c 0
 143.166992188 231.333007812 152.333007812 220.666992188 157 206 c 0
 166.333007812 178 183 155.166992188 207 137.5 c 0
 231 119.833007812 260 111 294 111 c 0
 328 111 358.5 124.5 385.5 151.5 c 0
 412.5 178.5 426 210.666992188 426 248 c 2
 426 645 l 2
 426 660.333007812 431.5 673.333007812 442.5 684 c 0
 453.5 694.666992188 466.666992188 700 482 700 c 0
 497.333007812 700 510.333007812 694.666992188 521 684 c 0
 531.666992188 673.333007812 537 660.333007812 537 645 c 2
 537 248 l 2
 537 179.333007812 512.666992188 120.833007812 464 72.5 c 0
 415.333007812 24.1669921875 356.666992188 0 288 0 c 0
 233.333007812 0 184.333007812 16 141 48 c 0
 97.6669921875 80 68 121.333007812 52 172 c 0
 47.3330078125 186.666992188 48.5 200.833007812 55.5 214.5 c 0
EndSplineSet
EndChar

StartChar: K
Encoding: 75 75 9
Width: 715
Flags: MW
HStem: 0 21G<151.333 166.667 570 589>
VStem: 104 110<55 197 353 640>
LayerCount: 2
Fore
SplineSet
159 0 m 0
 143.666992188 0 130.666992188 5.3330078125 120 16 c 0
 109.333007812 26.6669921875 104 39.6669921875 104 55 c 2
 104 640 l 2
 104 654.666992188 109.333007812 667.5 120 678.5 c 0
 130.666992188 689.5 143.666992188 695 159 695 c 0
 174.333007812 695 187.333007812 689.5 198 678.5 c 0
 208.666992188 667.5 214 654.666992188 214 640 c 2
 214 353 l 1
 538 678 l 2
 548.666992188 688.666992188 561.666992188 694 577 694 c 0
 592.333007812 694 605.333007812 688.666992188 616 678 c 0
 626.666992188 667.333007812 632 654.333007812 632 639 c 0
 632 623.666992188 626.666992188 610.666992188 616 600 c 2
 396 381 l 1
 618 90 l 1
 633.333007812 72 635.5 52.5 624.5 31.5 c 0
 613.5 10.5 598.5 0 579.5 0 c 0
 560.5 0 545.333007812 6.6669921875 534 20 c 2
 318 303 l 1
 214 197 l 1
 214 55 l 2
 214 39.6669921875 208.666992188 26.6669921875 198 16 c 0
 187.333007812 5.3330078125 174.333007812 0 159 0 c 0
EndSplineSet
EndChar

StartChar: L
Encoding: 76 76 10
Width: 563
Flags: MW
HStem: 0 111<151.333 486 215 486 215 486> 680 20G<151.333 166.667>
VStem: 104 111<111 645 111 645 111 652.667>
LayerCount: 2
Fore
SplineSet
159 0 m 2
 143.666992188 0 130.666992188 5.3330078125 120 16 c 0
 109.333007812 26.6669921875 104 39.6669921875 104 55 c 2
 104 645 l 2
 104 660.333007812 109.333007812 673.333007812 120 684 c 0
 130.666992188 694.666992188 143.666992188 700 159 700 c 0
 174.333007812 700 187.5 694.666992188 198.5 684 c 0
 209.5 673.333007812 215 660.333007812 215 645 c 2
 215 111 l 1
 486 111 l 2
 500.666992188 111 513.5 105.5 524.5 94.5 c 0
 535.5 83.5 541 70.5 541 55.5 c 0
 541 40.5 535.5 27.5 524.5 16.5 c 0
 513.5 5.5 500.666992188 0 486 0 c 2
 159 0 l 2
EndSplineSet
EndChar

StartChar: M
Encoding: 77 77 11
Width: 844
Flags: MW
HStem: 0 21G<151.333 166.667 642.333 657.667> 680 20G<159 162 162 171.667 649 650 650 650>
VStem: 104 111<55 476> 595 111<55 476 476 476>
LayerCount: 2
Fore
SplineSet
406 253 m 2
 404 253 l 2
 384.666992188 253 369.333007812 260.666992188 358 276 c 2
 215 476 l 1
 215 55 l 2
 215 39.6669921875 209.5 26.6669921875 198.5 16 c 0
 187.5 5.3330078125 174.333007812 0 159 0 c 0
 143.666992188 0 130.666992188 5.3330078125 120 16 c 0
 109.333007812 26.6669921875 104 39.6669921875 104 55 c 2
 104 645 l 2
 104 660.333007812 109.333007812 673.333007812 120 684 c 0
 130.666992188 694.666992188 143.666992188 700 159 700 c 2
 162 700 l 2
 181.333007812 700 196 692.333007812 206 677 c 2
 405 401 l 1
 604 677 l 2
 615.333007812 692.333007812 630.333007812 700 649 700 c 2
 650 700 l 2
 665.333007812 699.333007812 678.5 693.666992188 689.5 683 c 0
 700.5 672.333007812 706 659.666992188 706 645 c 2
 706 55 l 2
 706 40.3330078125 700.5 27.5 689.5 16.5 c 0
 678.5 5.5 665.333007812 0 650 0 c 0
 634.666992188 0 621.666992188 5.3330078125 611 16 c 0
 600.333007812 26.6669921875 595 39.6669921875 595 55 c 2
 595 476 l 1
 451 276 l 2
 439.666992188 260.666992188 424.666992188 253 406 253 c 2
EndSplineSet
EndChar

StartChar: N
Encoding: 78 78 12
Width: 771
Flags: MW
HStem: 0 21G<152 167 571.333 586.667>
VStem: 105 109<55 470> 526 109<224 636>
LayerCount: 2
Fore
SplineSet
214 470 m 1
 214 55 l 2
 214 40.3330078125 208.666992188 27.5 198 16.5 c 0
 187.333007812 5.5 174.5 0 159.5 0 c 0
 144.5 0 131.666992188 5.3330078125 121 16 c 0
 110.333007812 26.6669921875 105 39.6669921875 105 55 c 2
 105 637 l 1
 103.666992188 656.333007812 110.166992188 671 124.5 681 c 0
 138.833007812 691 153.333007812 694.833007812 168 692.5 c 0
 182.666992188 690.166992188 194.333007812 683 203 671 c 2
 526 224 l 1
 526 636 l 2
 526 650.666992188 531.333007812 663.333007812 542 674 c 0
 552.666992188 684.666992188 565.333007812 690 580 690 c 0
 594.666992188 690 607.5 684.666992188 618.5 674 c 0
 629.5 663.333007812 635 650.666992188 635 636 c 2
 635 55 l 2
 635 39.6669921875 629.5 26.6669921875 618.5 16 c 0
 607.5 5.3330078125 594.333007812 0 579 0 c 0
 563.666992188 0 550.333007812 6.6669921875 539 20 c 0
 536.333007812 22.6669921875 534.666992188 24.6669921875 534 26 c 2
 214 470 l 1
EndSplineSet
EndChar

StartChar: O
Encoding: 79 79 13
Width: 850
Flags: MW
HStem: 0 114<384 439.667> 606 114<383.667 447.333>
VStem: 73 114<326.333 393.667 326.333 409.333> 643 114<327 393>
LayerCount: 2
Fore
SplineSet
73 360 m 0
 73 458.666992188 106.166992188 543.333007812 172.5 614 c 0
 238.833007812 684.666992188 319.666992188 720 415 720 c 0
 510.333007812 720 591.166992188 684.166992188 657.5 612.5 c 0
 723.833007812 540.833007812 757 456.333007812 757 359 c 0
 757 261.666992188 723.333007812 177.666992188 656 107 c 1
 626 73.6669921875 590 47.5 548 28.5 c 0
 506 9.5 462.333007812 0 417 0 c 0
 320.333007812 0 238.833007812 35.3330078125 172.5 106 c 0
 106.166992188 176.666992188 73 261.333007812 73 360 c 0
254 186.5 m 0
 298.666992188 138.166992188 352.5 114 415.5 114 c 0
 478.5 114 532.166992188 138.5 576.5 187.5 c 0
 620.833007812 236.5 643 294 643 360 c 0
 643 426 621 483.5 577 532.5 c 0
 533 581.5 479.166992188 606 415.5 606 c 0
 351.833007812 606 297.833007812 581.833007812 253.5 533.5 c 0
 209.166992188 485.166992188 187 427.333007812 187 360 c 0
 187 292.666992188 209.333007812 234.833007812 254 186.5 c 0
EndSplineSet
EndChar

StartChar: P
Encoding: 80 80 14
Width: 583
Flags: MW
HStem: 0 21G<151.333 166.667> 272 111<215 338 215 338> 589 111<215 215 215 338>
VStem: 104 111<55 272 383 589> 442 111<485 485>
LayerCount: 2
Fore
SplineSet
490 637 m 0
 532 595 553 544.5 553 485.5 c 0
 553 426.5 532 376.166992188 490 334.5 c 0
 448 292.833007812 397.333007812 272 338 272 c 2
 215 272 l 1
 215 55 l 2
 215 39.6669921875 209.5 26.6669921875 198.5 16 c 0
 187.5 5.3330078125 174.333007812 0 159 0 c 0
 143.666992188 0 130.666992188 5.3330078125 120 16 c 0
 109.333007812 26.6669921875 104 39.6669921875 104 55 c 2
 104 645 l 2
 104 660.333007812 109.333007812 673.333007812 120 684 c 0
 130.666992188 694.666992188 143.666992188 700 159 700 c 2
 338 700 l 2
 397.333007812 700 448 679 490 637 c 0
215 589 m 1
 215 383 l 1
 338 383 l 2
 366.666992188 383 391 393 411 413 c 0
 431 433 441.333007812 457 442 485 c 1
 441.333007812 514.333007812 431 539 411 559 c 0
 391 579 366.666992188 589 338 589 c 2
 215 589 l 1
EndSplineSet
EndChar

StartChar: Q
Encoding: 81 81 15
Width: 844
Flags: W
HStem: -162 118<627.333 642 642 645> -87 176<395.333 413.667> 592 118<383.333 448.667>
VStem: 66 118<308 378 308 391.667> 650 116<306 375>
LayerCount: 2
Fore
SplineSet
166 80 m 1x78
 99.3330078125 154 66 241.166992188 66 341.5 c 0
 66 441.833007812 100 528.333007812 168 601 c 0
 236 673.666992188 319.333007812 710 418 710 c 0
 516.666992188 710 598.666992188 673 664 599 c 1
 732 527.666992188 766 441.333007812 766 340 c 0
 766 238.666992188 732 152 664 80 c 0
 632.666992188 47.3330078125 595.666992188 21 553 1 c 1
 530 -8 l 1
 574 -32 611.666992188 -44 643 -44 c 0
 674.333007812 -44 706.666992188 -31.3330078125 740 -6 c 0
 752.666992188 4 766.833007812 8 782.5 6 c 0
 798.166992188 4 811 -3.3330078125 821 -16 c 0
 831 -28.6669921875 835 -43 833 -59 c 0
 831 -75 823.333007812 -88.3330078125 810 -99 c 0
 755.333007812 -141 700.333007812 -162 645 -162 c 2
 642 -162 l 2xb8
 587.333007812 -162 526.333007812 -142 459 -102 c 0
 441 -92 422.833007812 -87 404.5 -87 c 0
 386.166992188 -87 369.5 -89.1669921875 354.5 -93.5 c 0
 339.5 -97.8330078125 330.333007812 -101.333007812 327 -104 c 0
 305.666992188 -116 286.333007812 -115 269 -101 c 0
 267 -99 264.333007812 -98 261 -98 c 1
 242.614257812 -71.953125 236.517578125 -50.6083984375 242.7109375 -33.96484375 c 0
 248.903320312 -17.3212890625 259.333007812 -5.3330078125 274 2 c 1
 277 4 l 1
 236.333007812 23.3330078125 199.333007812 48.6669921875 166 80 c 1x78
582.5 163 m 0
 627.5 212.333007812 650 271.5 650 340.5 c 0
 650 409.5 627.333007812 468.666992188 582 518 c 0
 536.666992188 567.333007812 481.333007812 592 416 592 c 0
 350.666992188 592 296.333007812 567.666992188 253 519 c 1
 207 471.666992188 184 413 184 343 c 0
 184 273 206.166992188 213.166992188 250.5 163.5 c 0
 294.833007812 113.833007812 350 89 416 89 c 0
 482 89 537.5 113.666992188 582.5 163 c 0
EndSplineSet
EndChar

StartChar: R
Encoding: 82 82 16
Width: 625
Flags: MW
HStem: 0 21G<137.333 152.667> 272 111<201 319 201 324> 589 111<201 324 201 201>
VStem: 90 111<55 272 383 589> 427 111<471.333 499.667>
LayerCount: 2
Fore
SplineSet
460 321 m 1
 505.333007812 286.333007812 528 238 528 176 c 0
 527.333007812 154 528.666992188 134.333007812 532 117 c 1
 549.333007812 111.666992188 561 100.166992188 567 82.5 c 0
 573 64.8330078125 570.333007812 48.3330078125 559 33 c 0
 547.666992188 17.6669921875 531.333007812 10 510 10 c 2
 509 10 l 2
 479 10 455.333007812 25.3330078125 438 56 c 1
 424 85.3330078125 417 125.333007812 417 176 c 1
 415.666992188 206.666992188 401.666992188 230.666992188 375 248 c 0
 357.666992188 259.333007812 339 267.333007812 319 272 c 1
 201 272 l 1
 201 55 l 2
 201 39.6669921875 195.5 26.6669921875 184.5 16 c 0
 173.5 5.3330078125 160.333007812 0 145 0 c 0
 129.666992188 0 116.666992188 5.3330078125 106 16 c 0
 95.3330078125 26.6669921875 90 39.6669921875 90 55 c 2
 90 645 l 2
 90 660.333007812 95.3330078125 673.333007812 106 684 c 0
 116.666992188 694.666992188 129.666992188 700 145 700 c 2
 324 700 l 2
 383.333007812 700 433.833007812 679 475.5 637 c 0
 517.166992188 595 538 542.666992188 538 480 c 0
 538 417.333007812 512 364.333007812 460 321 c 1
324 383 m 2
 352.666992188 383 377 393 397 413 c 0
 417 433 427 457.166992188 427 485.5 c 0
 427 513.833007812 417 538.166992188 397 558.5 c 0
 377 578.833007812 352.666992188 589 324 589 c 2
 201 589 l 1
 201 383 l 1
 324 383 l 2
EndSplineSet
EndChar

StartChar: S
Encoding: 83 83 17
Width: 667
Flags: MW
HStem: 1 103<346 371 346 381.667> 618 102<322 357.667>
LayerCount: 2
Fore
SplineSet
514 213 m 0
 514 263.747070312 455.333007812 300.081054688 338 322 c 1
 336 322 l 1
 284 332 239 346 201 364 c 0
 163 382 135.166992188 405.166992188 117.5 433.5 c 0
 99.8330078125 461.833007812 91 491 91 521 c 0
 91 579 116.5 626.666992188 167.5 664 c 0
 218.5 701.333007812 277.333007812 720 344 720 c 0
 373.333007812 720 403.333007812 715 434 705 c 0
 464.666992188 695 487.5 685.666992188 502.5 677 c 0
 517.5 668.333007812 537.333007812 656 562 640 c 0
 573.333007812 632 580.5 621 583.5 607 c 0
 586.5 593 584.166992188 580.166992188 576.5 568.5 c 0
 568.833007812 556.833007812 558 549.5 544 546.5 c 0
 530 543.5 517 546 505 554 c 0
 473.666992188 575.333007812 445.833007812 591.333007812 421.5 602 c 0
 397.166992188 612.666992188 371.333007812 618 344 618 c 0
 300 618 264 607.666992188 236 587 c 0
 208 566.333007812 194 544.333007812 194 521 c 0
 194 509.666992188 196.5 500 201.5 492 c 0
 220.486328125 461.622070312 270.986328125 438.622070312 353 423 c 1
 355 423 l 1
 411 411.666992188 457 397.666992188 493 381 c 0
 575.666992188 340.265625 617 284.265625 617 213 c 0
 617 151 589.666992188 100.166992188 535 60.5 c 0
 480.333007812 20.8330078125 417.333007812 1 346 1 c 0
 258.666992188 1.6669921875 173.333007812 35 90 101 c 0
 79.3330078125 109.666992188 73.1669921875 121.333007812 71.5 136 c 0
 69.8330078125 150.666992188 73.3330078125 163.333007812 82 174 c 0
 90.6669921875 184.666992188 102.333007812 190.833007812 117 192.5 c 0
 131.666992188 194.166992188 144.333007812 190.333007812 155 181 c 0
 219 129 282.666992188 103.333007812 346 104 c 0
 396 104 436.5 115.5 467.5 138.5 c 0
 498.5 161.5 514 186.333007812 514 213 c 0
EndSplineSet
EndChar

StartChar: T
Encoding: 84 84 18
Width: 648
Flags: MW
HStem: 0 21G<310.333 325.667> 589 111<97.3335 532 105 263 373 532 373 373>
VStem: 263 110<55 589>
LayerCount: 2
Fore
SplineSet
587 645 m 0
 587 629.666992188 581.5 616.5 570.5 605.5 c 0
 559.5 594.5 546.666992188 589 532 589 c 2
 373 589 l 1
 373 55 l 2
 373 39.6669921875 367.666992188 26.6669921875 357 16 c 0
 346.333007812 5.3330078125 333.333007812 0 318 0 c 0
 302.666992188 0 289.666992188 5.3330078125 279 16 c 0
 268.333007812 26.6669921875 263 39.6669921875 263 55 c 2
 263 589 l 1
 105 589 l 2
 89.6669921875 589 76.6669921875 594.5 66 605.5 c 0
 55.3330078125 616.5 50 629.666992188 50 645 c 0
 50 660.333007812 55.3330078125 673.333007812 66 684 c 0
 76.6669921875 694.666992188 89.6669921875 700 105 700 c 2
 532 700 l 2
 547.333007812 700 560.333007812 694.666992188 571 684 c 0
 581.666992188 673.333007812 587 660.333007812 587 645 c 0
EndSplineSet
EndChar

StartChar: U
Encoding: 85 85 19
Width: 814
Flags: MW
HStem: 0 111<369.333 418.667 369.333 434> 680 20G<152.333 167.667 620.333 635.667>
VStem: 105 111<289 645> 572 111<289 645>
LayerCount: 2
Fore
SplineSet
683 289 m 2
 683 209.666992188 654.833007812 141.666992188 598.5 85 c 0
 542.166992188 28.3330078125 474 0 394 0 c 0
 314 0 245.833007812 28.1669921875 189.5 84.5 c 0
 133.166992188 140.833007812 105 209 105 289 c 2
 105 645 l 2
 105 660.333007812 110.333007812 673.333007812 121 684 c 0
 131.666992188 694.666992188 144.666992188 700 160 700 c 0
 175.333007812 700 188.5 694.666992188 199.5 684 c 0
 210.5 673.333007812 216 660.333007812 216 645 c 2
 216 289 l 2
 216 240.333007812 233.333007812 198.5 268 163.5 c 0
 302.666992188 128.5 344.666992188 111 394 111 c 0
 443.333007812 111 485.333007812 128.333007812 520 163 c 0
 554.666992188 197.666992188 572 239.666992188 572 289 c 2
 572 645 l 2
 572 660.333007812 577.5 673.333007812 588.5 684 c 0
 599.5 694.666992188 612.666992188 700 628 700 c 0
 643.333007812 700 656.333007812 694.666992188 667 684 c 0
 677.666992188 673.333007812 683 660.333007812 683 645 c 2
 683 289 l 2
EndSplineSet
EndChar

StartChar: V
Encoding: 86 86 20
Width: 750
Flags: W
HStem: 0 21G<361.333 365.667> 1 21G<352 354 352 352 374 376 374 374>
LayerCount: 2
Fore
SplineSet
342 4 m 2x40
 340 4 337 6 333 10 c 1
 332 10 l 2
 331.333007812 10.6669921875 329 12.3330078125 325 15 c 0
 324.333007812 16.3330078125 323.333007812 17.8330078125 322 19.5 c 0
 320.666992188 21.1669921875 319.666992188 22.3330078125 319 23 c 0
 318.333007812 23.6669921875 317.5 25.1669921875 316.5 27.5 c 0
 315.5 29.8330078125 314.333007812 31.6669921875 313 33 c 2
 68 617 l 2
 62 630.333007812 61.8330078125 644.166992188 67.5 658.5 c 0
 73.1669921875 672.833007812 83.3330078125 682.666992188 98 688 c 1
 111.333007812 694 125 694.166992188 139 688.5 c 0
 153 682.833007812 163 673 169 659 c 2
 364 196 l 1
 559 659 l 2
 565 673 575.166992188 682.833007812 589.5 688.5 c 0
 603.833007812 694.166992188 617.666992188 694 631 688 c 0
 645 682.666992188 654.833007812 672.833007812 660.5 658.5 c 0
 666.166992188 644.166992188 666.333007812 630.333007812 661 617 c 2
 414 33 l 1
 410 25 l 2
 410 24.3330078125 409.666992188 23.6669921875 409 23 c 2
 396 10 l 2
 394.666992188 8.6669921875 392.5 7.3330078125 389.5 6 c 0
 386.5 4.6669921875 382 3 376 1 c 1
 374 1 l 2x40
 371.333007812 0.3330078125 367.833007812 0 363.5 0 c 0x80
 359.166992188 0 356 0.3330078125 354 1 c 2
 352 1 l 1
 349.333007812 2.3330078125 346.666992188 3 344 3 c 1
 343 4 l 1
 342 4 l 2x40
EndSplineSet
EndChar

StartChar: W
Encoding: 87 87 21
Width: 1102
Flags: W
HStem: 0 21G<365.333 369.667 728.333 732.667> 1 21G<355 358 355 355 377 380 377 377 718 718 718 721 740 740 740 742>
LayerCount: 2
Fore
SplineSet
398 10 m 1x40
 390 4 l 1
 389 4 l 2
 387 4 384 3 380 1 c 1
 377 1 l 2x40
 375 0.3330078125 371.833007812 0 367.5 0 c 0x80
 363.166992188 0 360 0.3330078125 358 1 c 2
 355 1 l 1
 351 2.3330078125 348.666992188 3.1669921875 348 3.5 c 0
 347.333007812 3.8330078125 346.166992188 4.3330078125 344.5 5 c 0
 342.833007812 5.6669921875 340.333007812 7.3330078125 337 10 c 1
 336 10 l 1
 333 12 330.25 14.5 327.75 17.5 c 0
 325.25 20.5 323.333007812 22.6669921875 322 24 c 1
 322 25 l 2
 321.333007812 25.6669921875 320.5 27.1669921875 319.5 29.5 c 0
 318.5 31.8330078125 317.666992188 33.3330078125 317 34 c 2
 71 617 l 2
 65.6669921875 631 65.8330078125 645 71.5 659 c 0
 77.1669921875 673 87 682.666992188 101 688 c 0
 114.333007812 694 128.166992188 694.166992188 142.5 688.5 c 0
 156.833007812 682.833007812 166.666992188 673 172 659 c 2
 368 196 l 1
 497 503 l 2
 506.333007812 525.666992188 523.5 537 548.5 537 c 0
 573.5 537 591 525.666992188 601 503 c 2
 730 196 l 1
 925 659 l 2
 931 673 941 682.833007812 955 688.5 c 0
 969 694.166992188 983 694.166992188 997 688.5 c 0
 1011 682.833007812 1020.83300781 672.833007812 1026.5 658.5 c 0
 1032.16699219 644.166992188 1032 630.333007812 1026 617 c 2
 781 34 l 2
 779.666992188 28.6669921875 776 23.3330078125 770 18 c 0
 770 17.3330078125 769.666992188 16.3330078125 769 15 c 0
 766.333007812 13.6669921875 764 12 762 10 c 1
 761 10 l 1
 752 4 l 1
 751 4 l 2
 750.333007812 4 749.666992188 3.8330078125 749 3.5 c 0
 748.333007812 3.1669921875 746 2.3330078125 742 1 c 1
 740 1 l 2x40
 738 0.3330078125 734.833007812 0 730.5 0 c 0x80
 726.166992188 0 723 0.3330078125 721 1 c 2
 718 1 l 1
 714 2.3330078125 711.666992188 3.1669921875 711 3.5 c 0
 710.333007812 3.8330078125 709.166992188 4.1669921875 707.5 4.5 c 0
 705.833007812 4.8330078125 703.333007812 6.6669921875 700 10 c 1
 699 10 l 1
 693 14 688.666992188 18.6669921875 686 24 c 1
 683.333007812 25.3330078125 681.333007812 28.6669921875 680 34 c 2
 549 344 l 1
 418 34 l 2
 417.333007812 32 416 29 414 25 c 1
 407 18 l 2
 407 17.3330078125 406.666992188 16.3330078125 406 15 c 0
 404.666992188 14.3330078125 402.666992188 12.6669921875 400 10 c 1
 398 10 l 1x40
EndSplineSet
EndChar

StartChar: X
Encoding: 88 88 22
Width: 722
Flags: MW
HStem: 0 21G<121.667 141.333 553.667 573.333>
LayerCount: 2
Fore
SplineSet
552 691.5 m 0
 566.666992188 693.833007812 580.166992188 690.5 592.5 681.5 c 0
 604.833007812 672.5 612.166992188 660.666992188 614.5 646 c 0
 616.833007812 631.333007812 613.666992188 617.666992188 605 605 c 2
 415 347 l 1
 605 87 l 2
 617.666992188 69 618.833007812 50 608.5 30 c 0
 598.166992188 10 583.166992188 0 563.5 0 c 0
 543.833007812 0 528 7.6669921875 516 23 c 2
 348 254 l 1
 179 23 l 2
 167 7.6669921875 151.166992188 0 131.5 0 c 0
 111.833007812 0 96.8330078125 10 86.5 30 c 0
 76.1669921875 50 77.3330078125 69 90 87 c 2
 280 347 l 1
 90 605 l 2
 81.3330078125 617.666992188 78.1669921875 631.333007812 80.5 646 c 0
 82.8330078125 660.666992188 90.1669921875 672.5 102.5 681.5 c 0
 114.833007812 690.5 128.5 693.833007812 143.5 691.5 c 0
 158.5 689.166992188 170.333007812 681.666992188 179 669 c 2
 348 439 l 1
 516 669 l 2
 525.333007812 681.666992188 537.333007812 689.166992188 552 691.5 c 0
EndSplineSet
EndChar

StartChar: Y
Encoding: 89 89 23
Width: 604
Flags: MW
HStem: 0 21G<324 339>
VStem: 276 110<55 325>
LayerCount: 2
Fore
SplineSet
538.5 692.5 m 0
 553.5 694.833007812 567 691.5 579 682.5 c 0
 591 673.5 598.166992188 661.5 600.5 646.5 c 0
 602.833007812 631.5 599.666992188 618 591 606 c 2
 386 325 l 1
 386 55 l 2
 386 39.6669921875 380.666992188 26.6669921875 370 16 c 0
 359.333007812 5.3330078125 346.5 0 331.5 0 c 0
 316.5 0 303.5 5.3330078125 292.5 16 c 0
 281.5 26.6669921875 276 39.6669921875 276 55 c 2
 276 325 l 1
 73 606 l 2
 63.6669921875 618 60 631.333007812 62 646 c 0
 64 660.666992188 71.3330078125 672.666992188 84 682 c 0
 96.6669921875 691.333007812 110.333007812 694.833007812 125 692.5 c 0
 139.666992188 690.166992188 151.333007812 682.666992188 160 670 c 2
 331 436 l 1
 502 670 l 2
 511.333007812 682.666992188 523.5 690.166992188 538.5 692.5 c 0
EndSplineSet
EndChar

StartChar: Z
Encoding: 90 90 24
Width: 667
Flags: W
HStem: 0 111<124 557 235 557 235 557> 589 111<118.333 565 126 449> 679 20G
LayerCount: 2
Fore
SplineSet
565 700 m 1xc0
 579 696 l 2
 581 696 583 695 585 693 c 0
 587 691 588.333007812 690 589 690 c 2
 590 690 l 2
 592 689.333007812 594 687.5 596 684.5 c 0
 598 681.5 599.5 679.666992188 600.5 679 c 0x20
 601.5 678.333007812 602.666992188 676.833007812 604 674.5 c 0
 605.333007812 672.166992188 606.166992188 670.5 606.5 669.5 c 0
 606.833007812 668.5 607.666992188 667.333007812 609 666 c 2
 612 655 l 2
 612.666992188 653 613 651 613 649 c 2
 613 638 l 2
 612.333007812 636.666992188 612 635.333007812 612 634 c 2
 610 628 l 1
 603 614 l 1
 603 612 l 1
 235 111 l 1
 557 111 l 2
 572.333007812 111 585.5 105.5 596.5 94.5 c 0
 607.5 83.5 613 70.3330078125 613 55 c 0
 613 39.6669921875 607.5 26.6669921875 596.5 16 c 0
 585.5 5.3330078125 572.333007812 0 557 0 c 2
 126 0 l 2
 122 0 118 0.1669921875 114 0.5 c 0
 110 0.8330078125 106.333007812 2.6669921875 103 6 c 1
 99.6669921875 6 96.6669921875 7.3330078125 94 10 c 1
 94 11 l 1
 92 11 89.6669921875 13.3330078125 87 18 c 1
 80 25 l 1
 78 30 l 2
 75.3330078125 34.4443359375 74 37.111328125 74 38 c 2
 71 52 l 1
 71 56 l 2
 71 59.3330078125 71.3330078125 61.6669921875 72 63 c 2
 72 68 l 1
 74 70 75 73.3330078125 75 78 c 1
 77 79.3330078125 78.1669921875 80.5 78.5 81.5 c 0
 78.8330078125 82.5 79.6669921875 84.3330078125 81 87 c 1
 82 87 l 1
 449 589 l 1
 126 589 l 2
 110.666992188 589 97.6669921875 594.5 87 605.5 c 0
 76.3330078125 616.5 71 629.666992188 71 645 c 0
 71 660.333007812 76.3330078125 673.333007812 87 684 c 0
 97.6669921875 694.666992188 110.666992188 700 126 700 c 2
 565 700 l 1xc0
EndSplineSet
EndChar

StartChar: a
Encoding: 97 97 25
Width: 619
Flags: MW
HStem: 0 107<258.333 296.667 258.333 302> 393 107<258.667 296.333>
VStem: 40 107<229.333 269.667 229.333 284> 410 106<229 269>
LayerCount: 2
Fore
SplineSet
108.5 73 m 0
 62.8330078125 121.666992188 40 180.5 40 249.5 c 0
 40 318.5 62.8330078125 377.5 108.5 426.5 c 0
 154.166992188 475.5 210.666992188 500 278 500 c 0
 325.333007812 500 369.666992188 485.333007812 411 456 c 1
 414.333007812 468.666992188 420.666992188 479.166992188 430 487.5 c 0
 439.333007812 495.833007812 450.833007812 500 464.5 500 c 0
 478.166992188 500 490.166992188 494.666992188 500.5 484 c 0
 510.833007812 473.333007812 516 460.666992188 516 446 c 2
 516 53 l 2
 516 38.3330078125 510.833007812 25.8330078125 500.5 15.5 c 0
 490.166992188 5.1669921875 478.166992188 0 464.5 0 c 0
 450.833007812 0 439.333007812 4 430 12 c 0
 420.666992188 20 414.333007812 30.3330078125 411 43 c 1
 370.333007812 14.3330078125 326 0 278 0 c 0
 210.666992188 0 154.166992188 24.3330078125 108.5 73 c 0
183.5 148 m 0
 207.833007812 120.666992188 239.166992188 107 277.5 107 c 0
 315.833007812 107 347.5 120.666992188 372.5 148 c 0
 397.5 175.333007812 410 209 410 249 c 0
 410 289 397.333007812 323 372 351 c 0
 346.666992188 379 315.166992188 393 277.5 393 c 0
 239.833007812 393 208.666992188 379.166992188 184 351.5 c 0
 159.333007812 323.833007812 147 289.833007812 147 249.5 c 0
 147 209.166992188 159.166992188 175.333007812 183.5 148 c 0
EndSplineSet
EndChar

StartChar: b
Encoding: 98 98 26
Width: 660
Flags: MW
HStem: 0 109<317.667 354.333 317.667 369.667> 391 109<317.333 354.667> 680 20G<140 155>
VStem: 93 109<230.333 268.667 458 646> 470 109<230.333 268.667>
LayerCount: 2
Fore
SplineSet
93 54 m 2
 93 646 l 2
 93 660.666992188 98.3330078125 673.333007812 109 684 c 0
 119.666992188 694.666992188 132.5 700 147.5 700 c 0
 162.5 700 175.333007812 694.666992188 186 684 c 0
 196.666992188 673.333007812 202 660.666992188 202 646 c 2
 202 458 l 1
 242 486 286.666992188 500 336 500 c 0
 403.333007812 500 460.666992188 475.333007812 508 426 c 0
 555.333007812 376.666992188 579 317.833007812 579 249.5 c 0
 579 181.166992188 555.333007812 122.5 508 73.5 c 0
 460.666992188 24.5 403.333007812 0 336 0 c 0
 287.333007812 0 242 14.3330078125 200 43 c 1
 197.333007812 31 191.166992188 20.8330078125 181.5 12.5 c 0
 171.833007812 4.1669921875 160 0 146 0 c 0
 132 0 119.666992188 5.3330078125 109 16 c 0
 98.3330078125 26.6669921875 93 39.3330078125 93 54 c 2
336 391 m 0
 298.666992188 391 267 377 241 349 c 0
 215 321 202 287.833007812 202 249.5 c 0
 202 211.166992188 215.166992188 178.166992188 241.5 150.5 c 0
 267.833007812 122.833007812 299.333007812 109 336 109 c 0
 372.666992188 109 404.166992188 122.833007812 430.5 150.5 c 0
 456.833007812 178.166992188 470 211.166992188 470 249.5 c 0
 470 287.833007812 457 321 431 349 c 0
 405 377 373.333007812 391 336 391 c 0
EndSplineSet
EndChar

StartChar: c
Encoding: 99 99 27
Width: 571
Flags: MW
HStem: 0 106<288.333 325.667 288.333 340.333> 393 107<312 326>
VStem: 58 106<229.667 268.333 229.667 284.333>
LayerCount: 2
Fore
SplineSet
133 73.5 m 0
 83 122.5 58 181.333007812 58 250 c 0
 58 318.666992188 83 377.333007812 133 426 c 0
 183 474.666992188 242.666992188 499.333007812 312 500 c 0
 370 500 423 481.666992188 471 445 c 0
 482.333007812 436.333007812 489 424.5 491 409.5 c 0
 493 394.5 489.5 381.333007812 480.5 370 c 0
 471.5 358.666992188 459.833007812 352 445.5 350 c 0
 431.166992188 348 418.333007812 351.666992188 407 361 c 0
 377.666992188 382.333007812 344.5 393 307.5 393 c 0
 270.5 393 237.333007812 378.666992188 208 350 c 0
 178.666992188 321.333007812 164 287.666992188 164 249 c 0
 164 210.333007812 178.5 176.833007812 207.5 148.5 c 0
 236.5 120.166992188 269.666992188 106 307 106 c 0
 344.333007812 106 377.666992188 116.666992188 407 138 c 0
 417.666992188 146.666992188 430.333007812 150 445 148 c 0
 459.666992188 146 471.5 139.333007812 480.5 128 c 0
 489.5 116.666992188 493 103.833007812 491 89.5 c 0
 489 75.1669921875 482.333007812 63 471 53 c 1
 421.666992188 17.6669921875 368.666992188 0 312 0 c 0
 242.666992188 0 183 24.5 133 73.5 c 0
EndSplineSet
EndChar

StartChar: d
Encoding: 100 100 28
Width: 660
Flags: MW
HStem: 0 109<284.667 321.333 284.667 327.333> 391 109<284.333 321.667> 680 20G<484 499>
VStem: 60 109<230.333 268.667 230.333 283.667> 437 109<230.333 268.667 458 646>
LayerCount: 2
Fore
SplineSet
546 54 m 2
 546 39.3330078125 540.666992188 26.6669921875 530 16 c 0
 519.333007812 5.3330078125 507 0 493 0 c 0
 479 0 467.166992188 4.1669921875 457.5 12.5 c 0
 447.833007812 20.8330078125 441.666992188 31 439 43 c 1
 397 14.3330078125 351.666992188 0 303 0 c 0
 235.666992188 0 178.333007812 24.5 131 73.5 c 0
 83.6669921875 122.5 60 181.166992188 60 249.5 c 0
 60 317.833007812 83.6669921875 376.666992188 131 426 c 0
 178.333007812 475.333007812 235.666992188 500 303 500 c 0
 352.333007812 500 397 486 437 458 c 1
 437 646 l 2
 437 660.666992188 442.333007812 673.333007812 453 684 c 0
 463.666992188 694.666992188 476.5 700 491.5 700 c 0
 506.5 700 519.333007812 694.666992188 530 684 c 0
 540.666992188 673.333007812 546 660.666992188 546 646 c 2
 546 54 l 2
397.5 150.5 m 0
 423.833007812 178.166992188 437 211.166992188 437 249.5 c 0
 437 287.833007812 424 321 398 349 c 0
 372 377 340.333007812 391 303 391 c 0
 265.666992188 391 234 377 208 349 c 0
 182 321 169 287.833007812 169 249.5 c 0
 169 211.166992188 182.166992188 178.166992188 208.5 150.5 c 0
 234.833007812 122.833007812 266.333007812 109 303 109 c 0
 339.666992188 109 371.166992188 122.833007812 397.5 150.5 c 0
EndSplineSet
EndChar

StartChar: e
Encoding: 101 101 29
Width: 609
Flags: MW
HStem: 0 21G 214 85<172 450 167 490 172 172> 405 95
LayerCount: 2
Fore
SplineSet
543 263 m 2
 543 248.333007812 538.166992188 236.5 528.5 227.5 c 0
 518.833007812 218.5 506 214 490 214 c 2
 172 214 l 1
 178 185.333007812 189.333007812 163.333007812 206 148 c 1
 227.333007812 123.333007812 258.5 108.5 299.5 103.5 c 0
 340.5 98.5 376 106.666992188 406 128 c 1
 416 138.666992188 429.333007812 144 446 144 c 0
 462.666992188 144 474.333007812 139.666992188 481 131 c 0
 499.978515625 110.440429688 499.978515625 88.7734375 481 66 c 1
 433 22 374.166992188 0.1669921875 304.5 0.5 c 0
 234.833007812 0.8330078125 176.5 25.3330078125 129.5 74 c 0
 82.5 122.666992188 58.6669921875 181.333007812 58 250 c 1
 58.6669921875 318.666992188 82.5 377.5 129.5 426.5 c 0
 176.5 475.5 233.333007812 500 300 500 c 0
 366.666992188 500 422.833007812 478.166992188 468.5 434.5 c 0
 514.166992188 390.833007812 539 335.333007812 543 268 c 1
 543 263 l 2
302 405 m 1
 263.333007812 403 232.333007812 391 209 369 c 0
 185.666992188 347 171.666992188 323.666992188 167 299 c 1
 450 299 l 1
 444 322.333007812 427.833007812 345 401.5 367 c 0
 375.166992188 389 342 401.666992188 302 405 c 1
EndSplineSet
EndChar

StartChar: f
Encoding: 102 102 30
Width: 362
Flags: W
HStem: 1 21G<194.333 209.667> 409 110<113.333 147 121 147 257 287> 681 20G<247.667 305.333>
VStem: 65 192 147 110<56 409 519 533> 147 206<519 653 533 653>
LayerCount: 2
Fore
SplineSet
337 606.5 m 0xe4
 326.333007812 595.5 312.833007812 590 296.5 590 c 0
 280.166992188 590 270 588 266 584 c 1
 263.626953125 584 261.533203125 578.333007812 259.719726562 567 c 0
 257.90625 555.666992188 257 544.333007812 257 533 c 2
 257 519 l 1
 287 519 l 2
 302.333007812 519 315.333007812 513.666992188 326 503 c 0
 336.666992188 492.333007812 342 479.5 342 464.5 c 0
 342 449.5 336.666992188 436.5 326 425.5 c 0
 315.333007812 414.5 302.333007812 409 287 409 c 2
 257 409 l 1
 257 56 l 2
 257 40.6669921875 251.666992188 27.6669921875 241 17 c 0
 230.333007812 6.3330078125 217.333007812 1 202 1 c 0
 186.666992188 1 173.666992188 6.3330078125 163 17 c 0
 152.333007812 27.6669921875 147 40.6669921875 147 56 c 2
 147 409 l 1xe8
 121 409 l 2
 105.666992188 409 92.5 414.333007812 81.5 425 c 0
 70.5 435.666992188 65 448.666992188 65 464 c 0xf0
 65 479.333007812 70.5 492.333007812 81.5 503 c 0
 92.5 513.666992188 105.666992188 519 121 519 c 2
 147 519 l 1
 147 533 l 2xe8
 147 645 197.333007812 701 298 701 c 0
 312.666992188 701 325.5 695.5 336.5 684.5 c 0
 347.5 673.5 353 660.5 353 645.5 c 0
 353 630.5 347.666992188 617.5 337 606.5 c 0xe4
EndSplineSet
EndChar

StartChar: g
Encoding: 103 103 31
Width: 660
Flags: MW
HStem: -179 108<295.333 321.667 295.333 333> -4 108<281.667 319.333 281.667 324.333> 393 107<282.667 319.333>
VStem: 60 108<227.333 266.667 227.333 282> 433 107<226.667 267.333>
LayerCount: 2
Fore
SplineSet
130 72 m 1
 83.3330078125 120 60 178.5 60 247.5 c 0
 60 316.5 83.3330078125 375.833007812 130 425.5 c 0
 176.666992188 475.166992188 233.333007812 500 300 500 c 0
 350.666992188 500 395.333007812 486 434 458 c 1
 436.666992188 470 443 480 453 488 c 0
 463 496 474.833007812 500 488.5 500 c 0
 502.166992188 500 514.166992188 494.833007812 524.5 484.5 c 0
 534.833007812 474.166992188 540 461.666992188 540 447 c 2
 540 61 l 2
 540 -5 516.5 -61.5 469.5 -108.5 c 0
 422.5 -155.5 366 -179 300 -179 c 0
 262 -179 227 -170.666992188 195 -154 c 0
 181.666992188 -148 172.666992188 -137.833007812 168 -123.5 c 0
 163.333007812 -109.166992188 164.333007812 -95.3330078125 171 -82 c 0
 177.666992188 -68.6669921875 187.833007812 -59.6669921875 201.5 -55 c 0
 215.166992188 -50.3330078125 229 -51 243 -57 c 1
 260.333007812 -66.3330078125 282.166992188 -71 308.5 -71 c 0
 334.833007812 -71 360.166992188 -60.8330078125 384.5 -40.5 c 0
 408.833007812 -20.1669921875 424.333007812 5.3330078125 431 36 c 1
 392.333007812 9.3330078125 348.666992188 -4 300 -4 c 0
 233.333007812 -4 176.666992188 21.3330078125 130 72 c 1
206 146 m 0
 231.333007812 118 262.833007812 104 300.5 104 c 0
 338.166992188 104 369.666992188 117.666992188 395 145 c 0
 420.333007812 172.333007812 433 206.333007812 433 247 c 0
 433 287.666992188 420.166992188 322.166992188 394.5 350.5 c 0
 368.833007812 378.833007812 337.666992188 393 301 393 c 0
 264.333007812 393 233 378.5 207 349.5 c 0
 181 320.5 168 286.333007812 168 247 c 0
 168 207.666992188 180.666992188 174 206 146 c 0
EndSplineSet
EndChar

StartChar: h
Encoding: 104 104 32
Width: 613
Flags: MW
HStem: 0 21G<141 156 466.333 481.667> 389 111<311 311> 680 20G<140.333 155.667>
VStem: 93 111<55 281 471 645> 419 110<55 281>
LayerCount: 2
Fore
SplineSet
187.5 16 m 0
 176.5 5.3330078125 163.5 0 148.5 0 c 0
 133.5 0 120.5 5.3330078125 109.5 16 c 0
 98.5 26.6669921875 93 39.6669921875 93 55 c 2
 93 645 l 2
 93 660.333007812 98.3330078125 673.333007812 109 684 c 0
 119.666992188 694.666992188 132.666992188 700 148 700 c 0
 163.333007812 700 176.5 694.666992188 187.5 684 c 0
 198.5 673.333007812 204 660.333007812 204 645 c 2
 204 471 l 1
 240.666992188 490.333007812 276.333007812 500 311 500 c 0
 371 500 422.333007812 478.5 465 435.5 c 0
 507.666992188 392.5 529 341 529 281 c 2
 529 55 l 2
 529 39.6669921875 523.666992188 26.6669921875 513 16 c 0
 502.333007812 5.3330078125 489.333007812 0 474 0 c 0
 458.666992188 0 445.666992188 5.3330078125 435 16 c 0
 424.333007812 26.6669921875 419 39.6669921875 419 55 c 2
 419 281 l 2
 419 310.333007812 408.5 335.5 387.5 356.5 c 0
 366.5 377.5 341 388.333007812 311 389 c 1
 281.666992188 388.333007812 256.666992188 377.5 236 356.5 c 0
 215.333007812 335.5 204.666992188 310.333007812 204 281 c 2
 204 55 l 2
 204 39.6669921875 198.5 26.6669921875 187.5 16 c 0
EndSplineSet
EndChar

StartChar: i
Encoding: 105 105 33
Width: 281
Flags: MW
HStem: 0 21G<141 156> 570 130<141 156>
VStem: 94 108<54 444 625 646>
LayerCount: 2
Fore
SplineSet
148 499 m 0
 163.333007812 499 176.166992188 493.833007812 186.5 483.5 c 0
 196.833007812 473.166992188 202 460 202 444 c 2
 202 54 l 2
 202 38.6669921875 196.833007812 25.8330078125 186.5 15.5 c 0
 176.166992188 5.1669921875 163.5 0 148.5 0 c 0
 133.5 0 120.666992188 5.3330078125 110 16 c 0
 99.3330078125 26.6669921875 94 39.3330078125 94 54 c 2
 94 444 l 2
 94 460 99.1669921875 473.166992188 109.5 483.5 c 0
 119.833007812 493.833007812 132.666992188 499 148 499 c 0
202 646 m 2
 202 625 l 2
 202 609.666992188 196.833007812 596.666992188 186.5 586 c 0
 176.166992188 575.333007812 163.5 570 148.5 570 c 0
 133.5 570 120.666992188 575.333007812 110 586 c 0
 99.3330078125 596.666992188 94 609.666992188 94 625 c 2
 94 646 l 2
 94 660.666992188 99.3330078125 673.333007812 110 684 c 0
 120.666992188 694.666992188 133.5 700 148.5 700 c 0
 163.5 700 176.166992188 694.833007812 186.5 684.5 c 0
 196.833007812 674.166992188 202 661.333007812 202 646 c 2
EndSplineSet
EndChar

StartChar: j
Encoding: 106 106 34
Width: 249
Flags: W
HStem: -177 21G<42 65> 569 130<98.6665 113.333>
VStem: -5 163<-130.667 -69> 50 108<-69 445>
LayerCount: 2
Fore
SplineSet
106 569 m 0xc0
 91.3330078125 569 78.5 574.5 67.5 585.5 c 0
 56.5 596.5 51 609.333007812 51 624 c 2
 51 644 l 2
 51 660 56.3330078125 673.166992188 67 683.5 c 0
 77.6669921875 693.833007812 90.6669921875 699 106 699 c 0
 121.333007812 699 134.166992188 693.833007812 144.5 683.5 c 0
 154.833007812 673.166992188 160 660 160 644 c 2
 160 624 l 2
 160 609.333007812 154.666992188 596.5 144 585.5 c 0
 133.333007812 574.5 120.666992188 569 106 569 c 0xc0
50 -177 m 0xd0
 34 -177 20.8330078125 -171.833007812 10.5 -161.5 c 0
 0.1669921875 -151.166992188 -5 -138.333007812 -5 -123 c 0xe0
 -5 -107.666992188 0.1669921875 -94.8330078125 10.5 -84.5 c 0
 20.8330078125 -74.1669921875 34 -69 50 -69 c 1
 50 445 l 2
 50 460.333007812 55.3330078125 473.333007812 66 484 c 0
 76.6669921875 494.666992188 89.5 500 104.5 500 c 0
 119.5 500 132.166992188 494.666992188 142.5 484 c 0
 152.833007812 473.333007812 158 460.333007812 158 445 c 2xd0
 158 -69 l 2xe0
 158 -98.3330078125 147.5 -123.666992188 126.5 -145 c 0
 105.5 -166.333007812 80 -177 50 -177 c 0xd0
EndSplineSet
EndChar

StartChar: k
Encoding: 107 107 35
Width: 560
Flags: MW
HStem: 0 21G<140.333 155.667 441 461> 680 20G<140.333 155.667>
VStem: 93 111<55 143 299 645>
LayerCount: 2
Fore
SplineSet
148 0 m 0
 132.666992188 0 119.666992188 5.3330078125 109 16 c 0
 98.3330078125 26.6669921875 93 39.6669921875 93 55 c 2
 93 645 l 2
 93 660.333007812 98.3330078125 673.333007812 109 684 c 0
 119.666992188 694.666992188 132.666992188 700 148 700 c 0
 163.333007812 700 176.5 694.666992188 187.5 684 c 0
 198.5 673.333007812 204 660.333007812 204 645 c 2
 204 299 l 1
 409 504 l 2
 419.666992188 514.666992188 432.666992188 520 448 520 c 0
 463.333007812 520 476.5 514.666992188 487.5 504 c 0
 498.5 493.333007812 504 480.333007812 504 465 c 0
 504 449.666992188 498.333007812 436.666992188 487 426 c 2
 337 276 l 1
 491 91 l 2
 505.666992188 72.3330078125 507.666992188 52.5 497 31.5 c 0
 486.333007812 10.5 471 0 451 0 c 0
 431 0 416 6.6669921875 406 20 c 2
 259 198 l 1
 204 143 l 1
 204 55 l 2
 204 39.6669921875 198.5 26.6669921875 187.5 16 c 0
 176.5 5.3330078125 163.333007812 0 148 0 c 0
EndSplineSet
EndChar

StartChar: l
Encoding: 108 108 36
Width: 249
Flags: MW
HStem: 0 21G<147.333 162.667> 680 20G<147.333 162.667>
VStem: 100 111<55 645>
LayerCount: 2
Fore
SplineSet
100 645 m 2
 100 660.333007812 105.333007812 673.333007812 116 684 c 0
 126.666992188 694.666992188 139.666992188 700 155 700 c 0
 170.333007812 700 183.5 694.666992188 194.5 684 c 0
 205.5 673.333007812 211 660.333007812 211 645 c 2
 211 55 l 2
 211 39.6669921875 205.5 26.6669921875 194.5 16 c 0
 183.5 5.3330078125 170.333007812 0 155 0 c 0
 139.666992188 0 126.666992188 5.3330078125 116 16 c 0
 105.333007812 26.6669921875 100 39.6669921875 100 55 c 2
 100 645 l 2
EndSplineSet
EndChar

StartChar: m
Encoding: 109 109 37
Width: 951
Flags: W
HStem: 0 21G<146 157.333 451.333 465.667 762.667 777.333> 1 21G<136 136> 393 107<287.667 315.333 600.667 628.333>
VStem: 93 107<53 290 53 446> 404 107<53 293> 716 107<53 290>
LayerCount: 2
Fore
SplineSet
146 0 m 1xbc
 136 1 l 1x7c
 123.333007812 4.3330078125 113 10.6669921875 105 20 c 0
 97 29.3330078125 93 40.3330078125 93 53 c 2
 93 446 l 2
 93 461.333007812 98.1669921875 474.166992188 108.5 484.5 c 0
 118.833007812 494.833007812 131.333007812 500 146 500 c 0
 169.333007812 500 185.333007812 490 194 470 c 1
 228 490 263.666992188 500 301 500 c 0
 365 500 417.333007812 477 458 431 c 1
 497.333007812 477 547.666992188 500 609 500 c 0
 670.333007812 500 721.333007812 479.5 762 438.5 c 0
 802.666992188 397.5 823 348 823 290 c 2
 823 53 l 2
 823 38.3330078125 817.833007812 25.8330078125 807.5 15.5 c 0
 797.166992188 5.1669921875 784.666992188 0 770 0 c 0
 755.333007812 0 742.666992188 5.1669921875 732 15.5 c 0
 721.333007812 25.8330078125 716 38.3330078125 716 53 c 2
 716 290 l 2
 716 318.666992188 706 343 686 363 c 0
 666 383 642.166992188 393 614.5 393 c 0
 586.833007812 393 563 383.333007812 543 364 c 0
 523 344.666992188 512.333007812 321 511 293 c 1
 511 53 l 2
 511 38.3330078125 505.833007812 25.8330078125 495.5 15.5 c 0
 485.166992188 5.1669921875 472.833007812 0 458.5 0 c 0
 444.166992188 0 431.5 5.3330078125 420.5 16 c 0
 409.5 26.6669921875 404 39 404 53 c 2
 404 293 l 2
 403.333007812 320.333007812 393 343.833007812 373 363.5 c 0
 353 383.166992188 329.166992188 393 301.5 393 c 0
 273.833007812 393 250 383 230 363 c 0
 210 343 200 318.666992188 200 290 c 2
 200 53 l 1
 199 46 l 1
 199 43 l 1
 196 37 l 1
 196 32 l 1
 185.333007812 10.6669921875 168.666992188 0 146 0 c 1xbc
EndSplineSet
EndChar

StartChar: n
Encoding: 110 110 38
Width: 613
Flags: MW
HStem: 0 21G<138.333 152.667 451.333 465.667> 393 107<287.333 315.667>
VStem: 93 108<53 292> 405 105<53 292>
LayerCount: 2
Fore
SplineSet
201 53 m 2
 201 38.3330078125 195.333007812 25.8330078125 184 15.5 c 0
 172.666992188 5.1669921875 159.833007812 0 145.5 0 c 0
 131.166992188 0 118.833007812 5.1669921875 108.5 15.5 c 0
 98.1669921875 25.8330078125 93 38.3330078125 93 53 c 2
 93 447 l 2
 93 461.666992188 98.1669921875 474.166992188 108.5 484.5 c 0
 118.833007812 494.833007812 131.333007812 500 146 500 c 0
 168.666992188 500 185 489.666992188 195 469 c 1
 227.666992188 489.666992188 263 500 301 500 c 0
 359 500 408.333007812 479.5 449 438.5 c 0
 489.666992188 397.5 510 348.666992188 510 292 c 2
 510 53 l 2
 510 38.3330078125 505 25.8330078125 495 15.5 c 0
 485 5.1669921875 472.833007812 0 458.5 0 c 0
 444.166992188 0 431.666992188 5.1669921875 421 15.5 c 0
 410.333007812 25.8330078125 405 38.3330078125 405 53 c 2
 405 292 l 2
 405 320 394.833007812 343.833007812 374.5 363.5 c 0
 354.166992188 383.166992188 329.833007812 393 301.5 393 c 0
 273.166992188 393 249.333007812 383.166992188 230 363.5 c 0
 210.666992188 343.833007812 201 320 201 292 c 2
 201 53 l 2
EndSplineSet
EndChar

StartChar: o
Encoding: 111 111 39
Width: 625
Flags: MW
HStem: -3 109<290.667 327.333 290.667 344.667> 391 109<292 326>
VStem: 70 109<228.333 269.667 228.333 282.333> 442 106<228.333 269.667>
LayerCount: 2
Fore
SplineSet
311 -3 m 0
 243.666992188 -3 186.666992188 21.6669921875 140 71 c 0
 93.3330078125 120.333007812 70 179.333007812 70 248 c 0
 70 316.666992188 93.5 375.833007812 140.5 425.5 c 0
 187.5 475.166992188 244 500 310 500 c 0
 376 500 432.166992188 474.833007812 478.5 424.5 c 0
 524.833007812 374.166992188 548 314.333007812 548 245 c 0
 548 175.666992188 524.666992188 118.333007812 478 73 c 1
 434 22.3330078125 378.333007812 -3 311 -3 c 0
215 353 m 1
 191 325 179 290.333007812 179 249 c 0
 179 207.666992188 191 172.333007812 215 143 c 1
 241 118.333007812 272.333007812 106 309 106 c 0
 345.666992188 106 377 118.333007812 403 143 c 1
 429 172.333007812 442 207.666992188 442 249 c 0
 442 290.333007812 429 325 403 353 c 1
 374.333007812 378.333007812 343 391 309 391 c 0
 275 391 243.666992188 378.333007812 215 353 c 1
EndSplineSet
EndChar

StartChar: p
Encoding: 112 112 40
Width: 660
Flags: MW
HStem: -188 21G<140 155> 1 106<317 354 317 370.333> 391 109<317.333 354.667>
VStem: 93 110<-134 42 225.333 266.667> 470 109<229.333 267.667>
LayerCount: 2
Fore
SplineSet
186.5 -171.5 m 0
 175.5 -182.5 162.5 -188 147.5 -188 c 0
 132.5 -188 119.666992188 -182.5 109 -171.5 c 0
 98.3330078125 -160.5 93 -148 93 -134 c 2
 93 447 l 2
 93 461.666992188 98.1669921875 474.166992188 108.5 484.5 c 0
 118.833007812 494.833007812 131.166992188 500 145.5 500 c 0
 159.833007812 500 172.166992188 496 182.5 488 c 0
 192.833007812 480 199 470.333007812 201 459 c 1
 243 486.333007812 288.333007812 500 337 500 c 0
 403.666992188 500 460.666992188 475.333007812 508 426 c 0
 555.333007812 376.666992188 579 317.666992188 579 249 c 0
 579 180.333007812 555.333007812 121.833007812 508 73.5 c 0
 460.666992188 25.1669921875 403.666992188 1 337 1 c 0
 285.666992188 1 241 14.6669921875 203 42 c 1
 203 -134 l 2
 203 -148 197.5 -160.5 186.5 -171.5 c 0
431 350 m 1
 405 377.333007812 373.333007812 391 336 391 c 0
 298.666992188 391 267.166992188 377.166992188 241.5 349.5 c 0
 215.833007812 321.833007812 203 287.333007812 203 246 c 0
 203 204.666992188 216 172.333007812 242 149 c 1
 267.333007812 121 298.5 107 335.5 107 c 0
 372.5 107 404.166992188 121 430.5 149 c 0
 456.833007812 177 470 210.166992188 470 248.5 c 0
 470 286.833007812 457 320.666992188 431 350 c 1
EndSplineSet
EndChar

StartChar: q
Encoding: 113 113 41
Width: 660
Flags: MW
HStem: -187 21G<484 499> 0 107<286 324 286 327.333> 392 108<286.333 322.667>
VStem: 60 108<230 268 230 284> 437 109<-134 42 42 42 228.333 269.667>
LayerCount: 2
Fore
SplineSet
530 -171 m 0
 519.333007812 -181.666992188 506.5 -187 491.5 -187 c 0
 476.5 -187 463.666992188 -181.666992188 453 -171 c 0
 442.333007812 -160.333007812 437 -148 437 -134 c 2
 437 42 l 1
 396.333007812 14 351.666992188 0 303 0 c 0
 235.666992188 0 178.333007812 24.3330078125 131 73 c 0
 83.6669921875 121.666992188 60 180.5 60 249.5 c 0
 60 318.5 83.6669921875 377.5 131 426.5 c 0
 178.333007812 475.5 235.666992188 500 303 500 c 0
 349.666992188 500 395 486 439 458 c 1
 441 470 447 480 457 488 c 0
 467 496 479 500 493 500 c 0
 507 500 519.333007812 494.666992188 530 484 c 0
 540.666992188 473.333007812 546 460.666992188 546 446 c 2
 546 -134 l 2
 546 -148 540.666992188 -160.333007812 530 -171 c 0
209 349 m 0
 181.666992188 320.333007812 168 287 168 249 c 0
 168 211 181.333007812 177.833007812 208 149.5 c 0
 234.666992188 121.166992188 267 107 305 107 c 0
 343 107 373.333007812 121 396 149 c 1
 423.333007812 174.333007812 437 207.666992188 437 249 c 0
 437 290.333007812 423.333007812 323.666992188 396 349 c 1
 371.333007812 377.666992188 340.833007812 392 304.5 392 c 0
 268.166992188 392 236.333007812 377.666992188 209 349 c 0
EndSplineSet
EndChar

StartChar: r
Encoding: 114 114 42
Width: 439
Flags: MW
HStem: 0 21G<139 154> 394 105
VStem: 93 108<53 243 440 447>
LayerCount: 2
Fore
SplineSet
201 440 m 1
 216.333007812 458 237.333007812 472.5 264 483.5 c 0
 290.666992188 494.5 315 499.833007812 337 499.5 c 0
 359 499.166992188 375.166992188 494 385.5 484 c 0
 395.833007812 474 401 461.833007812 401 447.5 c 0
 401 433.166992188 395.833007812 420.666992188 385.5 410 c 0
 375.166992188 399.333007812 362.666992188 394 348 394 c 0
 286 394 237 343.666992188 201 243 c 1
 201 53 l 2
 201 38.3330078125 195.666992188 25.8330078125 185 15.5 c 0
 174.333007812 5.1669921875 161.5 0 146.5 0 c 0
 131.5 0 118.833007812 5.1669921875 108.5 15.5 c 0
 98.1669921875 25.8330078125 93 38.3330078125 93 53 c 2
 93 447 l 2
 93 461.666992188 98.1669921875 474 108.5 484 c 0
 118.833007812 494 131.5 499 146.5 499 c 0
 161.5 499 174.333007812 494 185 484 c 0
 195.666992188 474 201 461.666992188 201 447 c 2
 201 440 l 1
EndSplineSet
EndChar

StartChar: s
Encoding: 115 115 43
Width: 492
Flags: MW
HStem: 0 107<254 266.667 254 278> 394 106<239.333 263.667>
LayerCount: 2
Fore
SplineSet
402 445 m 0
 414 437 421.5 425.833007812 424.5 411.5 c 0
 427.5 397.166992188 425.333007812 383.666992188 418 371 c 0
 410 359 398.833007812 351.5 384.5 348.5 c 0
 370.166992188 345.5 356.666992188 348.333007812 344 357 c 0
 306.666992188 381.666992188 275.833007812 394 251.5 394 c 0
 227.166992188 394 207.333007812 388 192 376 c 0
 181.333007812 368.666992188 176 362.166992188 176 356.5 c 0
 176 350.833007812 176.833007812 346.666992188 178.5 344 c 0
 180.166992188 341.333007812 183.666992188 338.333007812 189 335 c 0
 203.666992188 325 228 317 262 311 c 1
 263 310 l 1
 264 310 l 1
 299.333007812 303.333007812 331.666992188 293.333007812 361 280 c 0
 390.333007812 266.666992188 412 248.333007812 426 225 c 0
 440 201.666992188 447 178.666992188 447 156 c 0
 447 109.333007812 426 70.6669921875 384 40 c 1
 345.333007812 13.3330078125 302 0 254 0 c 0
 192 0.6669921875 132.666992188 23.6669921875 76 69 c 0
 65.3330078125 77.6669921875 59.1669921875 89.5 57.5 104.5 c 0
 55.8330078125 119.5 59.6669921875 132.333007812 69 143 c 1
 77.6669921875 155 89.6669921875 161.666992188 105 163 c 0
 120.333007812 164.333007812 133.333007812 160.333007812 144 151 c 0
 180 121 216.666992188 106.333007812 254 107 c 0
 279.333007812 107 302 113.333007812 322 126 c 1
 334 136 340 144.5 340 151.5 c 0
 340 158.5 339 163.333007812 337 166 c 0
 335.666992188 169.333007812 331.333007812 173.333007812 324 178 c 0
 308 189.333007812 281.333007812 198.666992188 244 206 c 1
 243 206 l 1
 207.666992188 212.666992188 176.833007812 222.333007812 150.5 235 c 0
 124.166992188 247.666992188 103 266 87 290 c 0
 75.6669921875 308.666992188 70 329.666992188 70 353 c 0
 70 396.333007812 89.6669921875 433 129 463 c 1
 165 487.666992188 206.166992188 500 252.5 500 c 0
 298.833007812 500 348.666992188 481.666992188 402 445 c 0
EndSplineSet
EndChar

StartChar: t
Encoding: 116 116 44
Width: 400
Flags: W
HStem: 0 111<237 244.667> 390 110<89.3335 126 97 126 237 262> 680 20G<174.333 189.667>
VStem: 42 195<111 452.667> 126 111<111 390 111 390 500 645> 126 166<47.3335 390> 126 192<111 453 390 453 438 645>
LayerCount: 2
Fore
SplineSet
262 500 m 2xe8
 277.333007812 500 290.5 494.666992188 301.5 484 c 0
 312.5 473.333007812 318 460.5 318 445.5 c 0xe2
 318 430.5 312.5 417.5 301.5 406.5 c 0
 290.5 395.5 277.333007812 390 262 390 c 2
 237 390 l 1
 237 111 l 1xf0
 252.333007812 111 265.333007812 105.5 276 94.5 c 0
 286.666992188 83.5 292 70.3330078125 292 55 c 0xe4
 292 39.6669921875 286.666992188 26.6669921875 276 16 c 0
 265.333007812 5.3330078125 252.333007812 0 237 0 c 0
 206.333007812 0 180.166992188 10.8330078125 158.5 32.5 c 0
 136.833007812 54.1669921875 126 80.3330078125 126 111 c 2
 126 390 l 1xe8
 97 390 l 2
 81.6669921875 390 68.6669921875 395.333007812 58 406 c 0
 47.3330078125 416.666992188 42 429.666992188 42 445 c 0xf0
 42 460.333007812 47.3330078125 473.333007812 58 484 c 0
 68.6669921875 494.666992188 81.6669921875 500 97 500 c 2
 126 500 l 1
 126 645 l 2
 126 660.333007812 131.5 673.333007812 142.5 684 c 0
 153.5 694.666992188 166.666992188 700 182 700 c 0
 197.333007812 700 210.333007812 694.666992188 221 684 c 0
 231.666992188 673.333007812 237 660.333007812 237 645 c 2
 237 500 l 1
 262 500 l 2xe8
EndSplineSet
EndChar

StartChar: A
Encoding: 65 65 45
Width: 646
Flags: MW
HStem: 0 21G<109 132 546 569> 165 110<258 420 258 461 218 420>
LayerCount: 2
Fore
SplineSet
510 35 m 2
 461 165 l 1
 218 165 l 1
 169 35 l 2
 159.666992188 11.6669921875 143.5 0 120.5 0 c 0
 97.5 0 81 8.1669921875 71 24.5 c 0
 61 40.8330078125 59 57.6669921875 65 75 c 2
 286 664 l 2
 290.666992188 674.666992188 297.833007812 683.333007812 307.5 690 c 0
 317.166992188 696.666992188 327.666992188 699.666992188 339 699 c 1
 364.333007812 700.333007812 382 688.666992188 392 664 c 2
 613 75 l 2
 619 57.6669921875 617 40.8330078125 607 24.5 c 0
 597 8.1669921875 580.5 0 557.5 0 c 0
 534.5 0 518.666992188 11.6669921875 510 35 c 2
258 275 m 1
 420 275 l 1
 339 490 l 1
 258 275 l 1
EndSplineSet
EndChar

StartChar: u
Encoding: 117 117 46
Width: 613
Flags: MW
HStem: 0 106<276.667 305.333 276.667 320> 480 20G<128.667 143.333 440.333 454.667>
VStem: 83 106<208 447> 396 106<208 447>
LayerCount: 2
Fore
SplineSet
502 208 m 2
 502 151.333007812 481.166992188 102.5 439.5 61.5 c 0
 397.833007812 20.5 348.5 0 291.5 0 c 0
 234.5 0 185.5 20.3330078125 144.5 61 c 0
 103.5 101.666992188 83 150.666992188 83 208 c 2
 83 447 l 2
 83 461 88.1669921875 473.333007812 98.5 484 c 0
 108.833007812 494.666992188 121.333007812 500 136 500 c 0
 150.666992188 500 163.166992188 494.666992188 173.5 484 c 0
 183.833007812 473.333007812 189 461 189 447 c 2
 189 208 l 2
 189 179.333007812 198.833007812 155.166992188 218.5 135.5 c 0
 238.166992188 115.833007812 262.333007812 106 291 106 c 0
 319.666992188 106 344.166992188 115.833007812 364.5 135.5 c 0
 384.833007812 155.166992188 395.333007812 179.333007812 396 208 c 2
 396 447 l 2
 396 461 401 473.333007812 411 484 c 0
 421 494.666992188 433.166992188 500 447.5 500 c 0
 461.833007812 500 474.5 494.666992188 485.5 484 c 0
 496.5 473.333007812 502 461 502 447 c 2
 502 208 l 2
EndSplineSet
EndChar

StartChar: v
Encoding: 118 118 47
Width: 582
Flags: W
HStem: 0 21G<274.667 278.333> 1 21G<265 267 265 265 286 288 286 286>
LayerCount: 2
Fore
SplineSet
255 4 m 1x40
 243.888671875 9.5556640625 237.444335938 14.111328125 235.666992188 17.6669921875 c 0
 233.888671875 21.22265625 232.666992188 23.1669921875 232 23.5 c 0
 230.266601562 24.3662109375 228.599609375 27.2001953125 227 32 c 2
 65 420 l 2
 59 433.333007812 58.8330078125 446.5 64.5 459.5 c 0
 70.1669921875 472.5 80 482 94 488 c 0
 106 494 118.666992188 494 132 488 c 0
 145.333007812 482 155 472.333007812 161 459 c 2
 276 187 l 1
 392 459 l 2
 397.333007812 472.333007812 406.5 482 419.5 488 c 0
 432.5 494 445.833007812 494 459.5 488 c 0
 473.166992188 482 482.833007812 472.5 488.5 459.5 c 0
 494.166992188 446.5 494 433.333007812 488 420 c 2
 324 32 l 2
 322.666992188 28.6669921875 321.333007812 26.3330078125 320 25 c 0
 318.666992188 23.6669921875 317.333007812 22.1669921875 316 20.5 c 0
 314.666992188 18.8330078125 312.5 16.6669921875 309.5 14 c 0
 306.5 11.3330078125 304.333007812 9.1669921875 303 7.5 c 0
 301.666992188 5.8330078125 300 4.6669921875 298 4 c 2
 296 4 l 1
 296 3 l 1
 293.333007812 3 290.666992188 2.3330078125 288 1 c 1
 286 1 l 2x40
 283.333007812 0.3330078125 280.166992188 0 276.5 0 c 0x80
 272.833007812 0 269.666992188 0.3330078125 267 1 c 2
 265 1 l 1
 261 2.3330078125 258.333007812 3 257 3 c 1
 257 4 l 1
 255 4 l 1x40
EndSplineSet
EndChar

StartChar: w
Encoding: 119 119 48
Width: 861
Flags: W
HStem: 0 21G<280.333 284.667 520.333 524.667> 1 21G<270 273 270 270 293 295 293 293 511 511 511 513 532 532 532 534>
LayerCount: 2
Fore
SplineSet
326 23 m 1x40
 314 11 306.666992188 4.6669921875 304 4 c 2
 302 4 l 2
 299.333007812 4 297 3 295 1 c 1
 293 1 l 2x40
 290.333007812 0.3330078125 286.833007812 0 282.5 0 c 0x80
 278.166992188 0 275 0.3330078125 273 1 c 2
 270 1 l 1
 266 3 262.666992188 4.3330078125 260 5 c 0
 254.666992188 6.3330078125 252 8.3330078125 252 11 c 0
 251.333007812 11.6669921875 250.166992188 12.6669921875 248.5 14 c 0
 242.166992188 19.06640625 239 22.400390625 239 24 c 0
 238.333007812 24.6669921875 237.5 26 236.5 28 c 0
 235.5 30 234.666992188 31.3330078125 234 32 c 2
 70 420 l 2
 64 433.333007812 63.8330078125 446.666992188 69.5 460 c 0
 75.1669921875 473.333007812 84.5 482.833007812 97.5 488.5 c 0
 110.5 494.166992188 123.666992188 494.166992188 137 488.5 c 0
 150.333007812 482.833007812 159.666992188 473 165 459 c 2
 283 190 l 1
 353 357 l 2
 362.333007812 378.333007812 378.833007812 389 402.5 389 c 0
 426.166992188 389 442.333007812 378.333007812 451 357 c 2
 522 190 l 1
 640 459 l 1
 644.666992188 473 653.833007812 482.833007812 667.5 488.5 c 0
 681.166992188 494.166992188 694.666992188 494.166992188 708 488.5 c 0
 721.333007812 482.833007812 730.833007812 473.333007812 736.5 460 c 0
 742.166992188 446.666992188 742 433.333007812 736 420 c 2
 571 32 l 1
 567 24 l 1
 566 23 l 1
 563.333007812 18.3330078125 559 14.3330078125 553 11 c 0
 553 10.3330078125 552.833007812 10 552.5 10 c 0
 552.166992188 10 550.833007812 9.1669921875 548.5 7.5 c 0
 546.166992188 5.8330078125 544.5 4.8330078125 543.5 4.5 c 0
 542.5 4.1669921875 541.666992188 3.8330078125 541 3.5 c 0
 540.333007812 3.1669921875 538 2.3330078125 534 1 c 1
 532 1 l 2x40
 530 0.3330078125 526.833007812 0 522.5 0 c 0x80
 518.166992188 0 515 0.3330078125 513 1 c 2
 511 1 l 1
 508.333007812 2.3330078125 506 3 504 3 c 1
 503 4 l 1
 502 4 l 1
 499 5 496 7 493 10 c 1
 493 11 l 2
 492.333007812 11.6669921875 490.333007812 13.3330078125 487 16 c 1
 484.666992188 16 482.333007812 18.3330078125 480 23 c 0
 479.333007812 23 479 23.3330078125 479 24 c 2
 402 205 l 1
 331 32 l 2
 330.333007812 30.6669921875 328.666992188 28 326 24 c 1
 326 23 l 1x40
EndSplineSet
EndChar

StartChar: x
Encoding: 120 120 49
Width: 570
Flags: MW
HStem: 0 21G<122.333 135.667 402.667 415.333>
LayerCount: 2
Fore
SplineSet
403.5 492.5 m 0
 417.833007812 494.833007812 430.833007812 491.833007812 442.5 483.5 c 0
 454.166992188 475.166992188 461.166992188 463.833007812 463.5 449.5 c 0
 465.833007812 435.166992188 462.666992188 422.666992188 454 412 c 2
 335 248 l 1
 454 83 l 2
 462.666992188 71.6669921875 465.833007812 58.6669921875 463.5 44 c 0
 461.166992188 29.3330078125 454.666992188 18.3330078125 444 11 c 0
 433.333007812 3.6669921875 421.666992188 0 409 0 c 0
 396.333007812 0 382.666992188 7.3330078125 368 22 c 1
 268 159 l 1
 168 22 l 1
 155.333007812 7.3330078125 142.333007812 0 129 0 c 0
 115.666992188 0 104.333007812 3.6669921875 95 11 c 1
 83.6669921875 18.3330078125 76.8330078125 29.5 74.5 44.5 c 0
 72.1669921875 59.5 75.3330078125 72.3330078125 84 83 c 2
 204 248 l 1
 84 412 l 2
 75.3330078125 422.666992188 72.1669921875 435.166992188 74.5 449.5 c 0
 76.8330078125 463.833007812 83.8330078125 475.166992188 95.5 483.5 c 0
 107.166992188 491.833007812 119.833007812 494.833007812 133.5 492.5 c 0
 147.166992188 490.166992188 158.666992188 483.333007812 168 472 c 2
 268 338 l 1
 368 472 l 2
 377.333007812 483.333007812 389.166992188 490.166992188 403.5 492.5 c 0
EndSplineSet
EndChar

StartChar: y
Encoding: 121 121 50
Width: 588
Flags: MW
HStem: -170 104 1 108<246.667 275.333 246.667 278.667> 480 20G<97.6665 112.333 408.667 423.333>
VStem: 52 105<211 447> 364 106<211 447>
LayerCount: 2
Fore
SplineSet
416 500 m 0
 430.666992188 500 443.333007812 494.833007812 454 484.5 c 0
 464.666992188 474.166992188 470 461.666992188 470 447 c 2
 470 69 l 2
 470 2.3330078125 446.833007812 -54.1669921875 400.5 -100.5 c 0
 354.166992188 -146.833007812 297.666992188 -170 231 -170 c 0
 195.666992188 -170 161.333007812 -161.666992188 128 -145 c 0
 114 -139 104.666992188 -129.166992188 100 -115.5 c 0
 95.3330078125 -101.833007812 96 -88 102 -74 c 1
 108.666992188 -62 119.166992188 -53.6669921875 133.5 -49 c 0
 147.833007812 -44.3330078125 163 -46 179 -54 c 0
 195 -62 215 -65.8330078125 239 -65.5 c 0
 263 -65.1669921875 286.5 -56.5 309.5 -39.5 c 0
 332.5 -22.5 348 -1 356 25 c 1
 328 9 296.333007812 1 261 1 c 0
 203.666992188 1 154.5 21.6669921875 113.5 63 c 0
 72.5 104.333007812 52 153.666992188 52 211 c 2
 52 447 l 2
 52 461.666992188 57.1669921875 474.166992188 67.5 484.5 c 0
 77.8330078125 494.833007812 90.3330078125 500 105 500 c 0
 119.666992188 500 132 495 142 485 c 0
 152 475 157 462.333007812 157 447 c 2
 157 211 l 2
 157 182.333007812 167.166992188 158.166992188 187.5 138.5 c 0
 207.833007812 118.833007812 232.333007812 109 261 109 c 0
 289.666992188 109 314 118.833007812 334 138.5 c 0
 354 158.166992188 364 182.333007812 364 211 c 2
 364 447 l 2
 364 462.333007812 369 475 379 485 c 0
 389 495 401.333007812 500 416 500 c 0
EndSplineSet
EndChar

StartChar: z
Encoding: 122 122 51
Width: 554
Flags: W
HStem: 0 106<112 403 219 403 219 403> 1 21G<101 104 101 101> 394 106<107 403 114 297> 479 20G<409 414 414 415>
LayerCount: 2
Fore
SplineSet
65 34 m 2x40
 62 43 l 1
 62 50 l 2
 61.3330078125 50.6669921875 61 51.6669921875 61 53 c 2
 61 54 l 1
 62 61 l 1
 62 65 l 1
 63.3330078125 66.3330078125 64 68.1669921875 64 70.5 c 0
 64 72.8330078125 65.3330078125 75.3330078125 68 78 c 0
 68 79.3330078125 69 81 71 83 c 1
 72 83 l 1
 297 394 l 1
 114 394 l 2
 100 394 87.6669921875 399.166992188 77 409.5 c 0
 66.3330078125 419.833007812 61 432.333007812 61 447 c 0
 61 461.666992188 66.3330078125 474.166992188 77 484.5 c 0
 87.6669921875 494.833007812 100 500 114 500 c 2
 403 500 l 1x60
 409 499 l 1
 414 499 l 2
 416 499 417.5 498.666992188 418.5 498 c 0
 419.5 497.333007812 421.333007812 496.666992188 424 496 c 1
 425.63671875 494 426.63671875 493 427 493 c 2
 434 489 l 2
 435.333007812 489 436 488.333007812 436 487 c 2
 441 482 l 2
 442.333007812 482 443.833007812 480.5 445.5 477.5 c 0
 447.166992188 474.5 448.666992188 473 450 473 c 1
 452 467 453 463.166992188 453 461.5 c 0
 453 459.833007812 453.666992188 458.333007812 455 457 c 1
 455 451 l 1
 456 447 l 1
 456 446 l 1
 455 441 l 2
 455 436.333007812 454.333007812 432.666992188 453 430 c 1
 453 427.333007812 452 425.666992188 450 425 c 1
 450 422 l 1
 445 417 l 1
 445 416 l 1
 219 106 l 1
 403 106 l 2
 417 106 429.333007812 100.833007812 440 90.5 c 0
 450.666992188 80.1669921875 456 67.6669921875 456 53 c 0
 456 38.3330078125 450.666992188 25.8330078125 440 15.5 c 0
 429.333007812 5.1669921875 417 0 403 0 c 2
 114 0 l 2x90
 110 0 106.666992188 0.3330078125 104 1 c 2
 101 1 l 1
 98.3330078125 2.3330078125 96.3330078125 3 95 3 c 2
 87 7 l 2
 85 9 84 10.3330078125 84 11 c 1
 81.3330078125 11 78 13.5 74 18.5 c 0
 70 23.5 68 27 68 29 c 1
 66 29.6669921875 65 31.3330078125 65 34 c 2x40
EndSplineSet
EndChar

StartChar: ampersand
Encoding: 38 38 52
Width: 696
Flags: W
HStem: 0 111<271 307 271 322.333> 246 111<419 419> 459 241<259.333 423.667> 589 111<274.667 295.333>
VStem: 49 111<216.667 247.333 216.667 277.333> 99 111<498.333 521.667 498.333 539.667> 360 111<509.333 527.667> 419 111<240 245.333 206.667 246 206.667 246>
LayerCount: 2
Fore
SplineSet
256 379 m 1xd6
 254.666992188 375 253.333007812 372.5 252 371.5 c 0
 250.666992188 370.5 248.666992188 368.666992188 246 366 c 0
 242.666992188 362.666992188 238.333007812 359.666992188 233 357 c 0
 211 346.333007812 193.333007812 330.5 180 309.5 c 0
 166.666992188 288.5 160 262.666992188 160 232 c 0
 160 201.333007812 172.5 173.5 197.5 148.5 c 0
 222.5 123.5 253 111 289 111 c 0
 325 111 355.666992188 123.5 381 148.5 c 0
 406.333007812 173.5 419 204 419 240 c 2
 419 246 l 1xd9
 378.333007812 245.333007812 353 239 343 227 c 0
 337.666992188 221.666992188 335 216 335 210 c 0
 335 204.583007812 335.333007812 199.25 336 194 c 0
 340.666992188 177.333007812 337.833007812 161.333007812 327.5 146 c 0
 317.166992188 130.666992188 302.333007812 123 283 123 c 0
 243.666992188 123 224 150.333007812 224 205 c 1
 222.666992188 245 236.333007812 278.666992188 265 306 c 0
 300.333007812 340 352.333007812 357 421 357 c 0
 435.666992188 357 446.666992188 356.666992188 454 356 c 2
 458 356 l 2
 465.333007812 356 470 357 472 359 c 1
 472 366 l 2
 472 371.333007812 471.666992188 376.333007812 471 381 c 0xd2
 467 395.666992188 469 409.5 477 422.5 c 0
 485 435.5 496.666992188 443.666992188 512 447 c 0
 527.333007812 450.333007812 541.5 447.833007812 554.5 439.5 c 0
 567.5 431.166992188 575.333007812 419.666992188 578 405 c 1
 587.892578125 373.344726562 585.892578125 342.178710938 572 311.5 c 0
 564 293.833007812 553.333007812 280 540 270 c 0
 536.666992188 268.666992188 533 266.666992188 529 264 c 1
 529.666992188 258.666992188 530 250.666992188 530 240 c 0
 530 173.333007812 506.5 116.666992188 459.5 70 c 0
 412.5 23.3330078125 355.666992188 0 289 0 c 0
 222.333007812 0 165.666992188 23.3330078125 119 70 c 0
 72.3330078125 116.666992188 49 174.333007812 49 243 c 0xd9
 49 311.666992188 75 369.333007812 127 416 c 1
 108.333007812 446 99 478.666992188 99 514 c 0
 99 565.333007812 117.166992188 609.166992188 153.5 645.5 c 0
 189.833007812 681.833007812 233.666992188 700 285 700 c 0
 336.333007812 700 380.166992188 681.833007812 416.5 645.5 c 0
 452.833007812 609.166992188 471 565.333007812 471 514 c 0
 471 498.666992188 465.666992188 485.666992188 455 475 c 0
 444.333007812 464.333007812 431.333007812 459 416 459 c 0xe6
 400.666992188 459 387.5 464.333007812 376.5 475 c 0
 365.5 485.666992188 360 500.166992188 360 518.5 c 0
 360 536.833007812 352.666992188 553.166992188 338 567.5 c 0
 323.333007812 581.833007812 305.666992188 589 285 589 c 0
 264.333007812 589 246.666992188 581.666992188 232 567 c 0
 217.333007812 552.333007812 210 533.333007812 210 510 c 0
 210 486.666992188 220.666992188 467.666992188 242 453 c 1
 253.333007812 443.666992188 260.5 432.166992188 263.5 418.5 c 0
 266.5 404.833007812 264.333007812 391.666992188 257 379 c 1
 256 379 l 1xd6
EndSplineSet
EndChar

StartChar: at
Encoding: 64 64 53
Width: 980
Flags: MW
HStem: 0 112<402 412.5 369.333 416.333> 148 111<390 414 390 418> 442 111<390.333 413.667> 589 111<370 436>
VStem: 53 111<317.667 383.333 317.667 398.667> 209 111<338 363 338 378.333> 485 111<338 351 220 363> 641 111<326 388>
LayerCount: 2
Fore
SplineSet
402 553 m 0
 456 553 501.833007812 533.166992188 539.5 493.5 c 0
 577.166992188 453.833007812 596 406.333007812 596 351 c 2
 596 220 l 2
 596.666992188 220.666992188 597.666992188 221.5 599 222.5 c 0
 600.333007812 223.5 601.666992188 224.666992188 603 226 c 0
 628.333007812 251.333007812 641 295 641 357 c 0
 641 419 617.833007812 473.166992188 571.5 519.5 c 0
 525.166992188 565.833007812 469 589 403 589 c 0
 337 589 280.666992188 565.666992188 234 519 c 0
 187.333007812 472.333007812 164 416.166992188 164 350.5 c 0
 164 284.833007812 187.333007812 228.666992188 234 182 c 0
 280.666992188 135.333007812 336.666992188 112 402 112 c 0
 423 112 441.916992188 114 458.75 118 c 0
 475.583007812 122 490.666992188 120.166992188 504 112.5 c 0
 517.333007812 104.833007812 525.666992188 93.5 529 78.5 c 0
 532.333007812 63.5 530.166992188 49.5 522.5 36.5 c 0
 514.833007812 23.5 503.666992188 15 489 11 c 0
 459.666992188 3.6669921875 430.666992188 0 402 0 c 0
 305.333007812 0.6669921875 223 35.1669921875 155 103.5 c 0
 87 171.833007812 53 254.166992188 53 350.5 c 0
 53 446.833007812 87 529.166992188 155 597.5 c 0
 223 665.833007812 305.333007812 700 402 700 c 0
 498.666992188 700 581.166992188 665.833007812 649.5 597.5 c 0
 717.833007812 529.166992188 752 447 752 351 c 0
 752 291.666992188 739 238 713 190 c 1
 713 189 l 2
 712.333007812 188.333007812 711 186.333007812 709 183 c 0
 701 169.666992188 694 160 688 154 c 0
 654 120 619.333007812 103 584 103 c 0
 562 102.333007812 542.666992188 108.5 526 121.5 c 0
 509.333007812 134.5 498 150.666992188 492 170 c 1
 464 155.333007812 434 148 402 148 c 0
 347.333007812 148 301.5 167.833007812 264.5 207.5 c 0
 227.5 247.166992188 209 294.833007812 209 350.5 c 0
 209 406.166992188 227.666992188 453.833007812 265 493.5 c 0
 302.333007812 533.166992188 348 553 402 553 c 0
402 259 m 0
 426 259 445.833007812 268 461.5 286 c 0
 477.166992188 304 485 325.5 485 350.5 c 0
 485 375.5 477 397 461 415 c 0
 445 433 425.333007812 442 402 442 c 0
 378.666992188 442 359.166992188 433 343.5 415 c 0
 327.833007812 397 320 375.5 320 350.5 c 0
 320 325.5 327.666992188 304 343 286 c 0
 358.333007812 268 378 259 402 259 c 0
EndSplineSet
EndChar

StartChar: parenleft
Encoding: 40 40 54
Width: 430
Flags: MW
HStem: -94 126 579 127<302 318.667 287.333 319>
VStem: 71 127<306 306>
LayerCount: 2
Fore
SplineSet
308 -94 m 2
 263.333007812 -94 225 -81.1669921875 193 -55.5 c 0
 111.666992188 9.736328125 71 130.236328125 71 306 c 0
 71 483.5 111 603.5 191 666 c 0
 225 692.666992188 264.666992188 706 310 706 c 0
 327.333007812 706 342.166992188 699.833007812 354.5 687.5 c 0
 366.833007812 675.166992188 373 660.333007812 373 643 c 0
 373 625.666992188 366.833007812 610.666992188 354.5 598 c 0
 342.166992188 585.333007812 327.5 579 310.5 579 c 0
 293.5 579 279 574.5 267 565.5 c 0
 255 556.5 243.666992188 540.333007812 233 517 c 0
 208.333007812 467 196.666992188 396.666992188 198 306 c 1
 196.666992188 239.333007812 202.833007812 183.166992188 216.5 137.5 c 0
 230.166992188 91.8330078125 247.333007812 61.3330078125 268 46 c 0
 279.333007812 37.3330078125 293.5 32.8330078125 310.5 32.5 c 0
 327.5 32.1669921875 342.166992188 25.8330078125 354.5 13.5 c 0
 366.833007812 1.1669921875 373 -13.6669921875 373 -31 c 0
 373 -48.3330078125 366.833007812 -63.1669921875 354.5 -75.5 c 0
 342.166992188 -87.8330078125 327.333007812 -94 310 -94 c 2
 308 -94 l 2
EndSplineSet
EndChar

StartChar: parenright
Encoding: 41 41 55
Width: 430
Flags: MW
HStem: -94 126 579 127<114.333 131>
VStem: 235 127<306 306>
LayerCount: 2
Fore
SplineSet
242 -55 m 0
 208.666992188 -81 169.666992188 -94 125 -94 c 2
 123 -94 l 2
 105.666992188 -94 90.8330078125 -87.8330078125 78.5 -75.5 c 0
 66.1669921875 -63.1669921875 60 -48.3330078125 60 -31 c 0
 60 -13.6669921875 66.1669921875 1.1669921875 78.5 13.5 c 0
 90.8330078125 25.8330078125 105.5 32.1669921875 122.5 32.5 c 0
 139.5 32.8330078125 153.666992188 37.3330078125 165 46 c 0
 185.666992188 61.3330078125 202.833007812 91.8330078125 216.5 137.5 c 0
 230.166992188 183.166992188 236.333007812 239.333007812 235 306 c 1
 236.333007812 396.666992188 224.666992188 467 200 517 c 0
 189.333007812 540.333007812 178 556.5 166 565.5 c 0
 154 574.5 139.5 579 122.5 579 c 0
 105.5 579 90.8330078125 585.333007812 78.5 598 c 0
 66.1669921875 610.666992188 60 625.666992188 60 643 c 0
 60 660.333007812 66.1669921875 675.166992188 78.5 687.5 c 0
 90.8330078125 699.833007812 105.666992188 706 123 706 c 0
 168.333007812 706 208 692.666992188 242 666 c 0
 322 603.5 362 483.375 362 305.625 c 0
 362 127.875 322 7.6669921875 242 -55 c 0
EndSplineSet
EndChar

StartChar: plus
Encoding: 43 43 56
Width: 620
Flags: MW
HStem: 101 21G<309.667 325.333> 297 110<111.333 261 119 261 375 517> 583 20G<309.667 325.333>
VStem: 261 114<158 297 407 546>
LayerCount: 2
Fore
SplineSet
261 158 m 2
 261 297 l 1
 119 297 l 2
 103.666992188 297 90.6669921875 302.333007812 80 313 c 0
 69.3330078125 323.666992188 64 336.5 64 351.5 c 0
 64 366.5 69.3330078125 379.5 80 390.5 c 0
 90.6669921875 401.5 103.666992188 407 119 407 c 2
 261 407 l 1
 261 546 l 2
 261 562 266.5 575.5 277.5 586.5 c 0
 288.5 597.5 301.833007812 603 317.5 603 c 0
 333.166992188 603 346.666992188 597.5 358 586.5 c 0
 369.333007812 575.5 375 562 375 546 c 2
 375 407 l 1
 517 407 l 2
 532.333007812 407 545.333007812 401.5 556 390.5 c 0
 566.666992188 379.5 572 366.5 572 351.5 c 0
 572 336.5 566.666992188 323.666992188 556 313 c 0
 545.333007812 302.333007812 532.333007812 297 517 297 c 2
 375 297 l 1
 375 158 l 2
 375 142 369.333007812 128.5 358 117.5 c 0
 346.666992188 106.5 333.166992188 101 317.5 101 c 0
 301.833007812 101 288.5 106.5 277.5 117.5 c 0
 266.5 128.5 261 142 261 158 c 2
EndSplineSet
EndChar

StartChar: zero
Encoding: 48 48 57
Width: 710
Flags: MW
HStem: 0 111<301.333 335.667 301.333 337.333> 589 111<319 319>
VStem: 65 111<350 350> 460 111<314.667 384.333>
LayerCount: 2
Fore
SplineSet
65 350 m 1
 66.3330078125 444.666992188 89 524.333007812 133 589 c 1
 181.666992188 663 243.666992188 700 319 700 c 0
 356.333007812 700 391 689.833007812 423 669.5 c 0
 455 649.166992188 482 622.333007812 504 589 c 0
 548.666992188 522.333007812 571 442.666992188 571 350 c 0
 571 257.333007812 548.666992188 177.666992188 504 111 c 0
 482 77.6669921875 454.833007812 50.8330078125 422.5 30.5 c 0
 390.166992188 10.1669921875 355.666992188 0 319 0 c 0
 244.333007812 0 182.333007812 37 133 111 c 0
 89 175.666992188 66.3330078125 255.333007812 65 350 c 1
412 173 m 0
 444 221 460 279.833007812 460 349.5 c 0
 460 419.166992188 444 478.666992188 412 528 c 1
 383.333007812 570 352.333007812 590.333007812 319 589 c 1
 285.666992188 590.333007812 254 570 224 528 c 1
 192 478.666992188 176 419.166992188 176 349.5 c 0
 176 279.833007812 192 221 224 173 c 0
 252.666992188 131.666992188 284.166992188 111 318.5 111 c 0
 352.833007812 111 384 131.666992188 412 173 c 0
EndSplineSet
EndChar

StartChar: one
Encoding: 49 49 58
Width: 335
Flags: W
HStem: 0 21G<209.333 224.667> 679 20G<227.667 229.333> 680 20G<214 225 225 225>
VStem: 162 111<55 547 547 547>
LayerCount: 2
Fore
SplineSet
235 697 m 2xd0
 245 693 l 1
 253.5 685.5 l 2
 263.166992188 676.970703125 268 670.921875 268 667.352539062 c 0
 268 663.784179688 268.333007812 661.5 269 660.5 c 0
 269.666992188 659.5 270.166992188 657.5 270.5 654.5 c 0
 270.833007812 651.5 271.666992188 649.333007812 273 648 c 1
 273 55 l 2
 273 39.6669921875 267.5 26.6669921875 256.5 16 c 0
 245.5 5.3330078125 232.333007812 0 217 0 c 0
 201.666992188 0 188.666992188 5.3330078125 178 16 c 0
 167.333007812 26.6669921875 162 39.6669921875 162 55 c 2
 162 547 l 1
 122 524 l 2
 114 518.666992188 104.666992188 516 94 516 c 0
 73.3330078125 516 57.6669921875 525.333007812 47 544 c 1
 38.3330078125 556.666992188 35.8330078125 570.5 39.5 585.5 c 0
 43.1669921875 600.5 51.6669921875 611.666992188 65 619 c 2
 188 692 l 1
 192 694 l 1
 197 697 l 1
 203 698 l 1
 204.333007812 699.333007812 208 700 214 700 c 2
 225 700 l 2xb0
 225.666992188 699.333007812 226.833007812 699 228.5 699 c 0
 230.166992188 699 232.333007812 698.333007812 235 697 c 2xd0
EndSplineSet
EndChar

StartChar: two
Encoding: 50 50 59
Width: 590
Flags: MW
HStem: 0 111<249 462 249 462> 589 111<263.667 299.333>
VStem: 406 111<438 474>
LayerCount: 2
Fore
SplineSet
462 111 m 2
 477.333007812 111 490.333007812 105.5 501 94.5 c 0
 511.666992188 83.5 517 70.3330078125 517 55 c 0
 517 39.6669921875 511.666992188 26.6669921875 501 16 c 0
 490.333007812 5.3330078125 477.333007812 0 462 0 c 2
 106 0 l 2
 88.6669921875 0 74.8330078125 5.8330078125 64.5 17.5 c 0
 54.1669921875 29.1669921875 49.3330078125 42.5 50 57.5 c 0
 50.6669921875 72.5 56.6669921875 85.3330078125 68 96 c 2
 364 364 l 2
 392 389.333007812 406 420 406 456 c 0
 406 492 394.166992188 523.166992188 370.5 549.5 c 0
 346.833007812 575.833007812 317.166992188 589 281.5 589 c 0
 245.833007812 589 215.333007812 578 190 556 c 2
 159 528 l 2
 147.666992188 517.333007812 134.5 512.5 119.5 513.5 c 0
 104.5 514.5 91.6669921875 520.666992188 81 532 c 0
 71 543.333007812 66.3330078125 556.5 67 571.5 c 0
 67.6669921875 586.5 73.6669921875 599.333007812 85 610 c 2
 116 638 l 1
 160 679.333007812 215.666992188 700 283 700 c 0
 350.333007812 700 407.666992188 673.666992188 455 621 c 1
 496.333007812 577 517 521.333007812 517 454 c 0
 517 386.666992188 490.666992188 329.333007812 438 282 c 2
 249 111 l 1
 462 111 l 2
EndSplineSet
EndChar

StartChar: three
Encoding: 51 51 60
Width: 610
Flags: MW
HStem: 1 114<249.333 286.667 249.333 302.667> 588 113<157.333 460 165 327>
VStem: 404 113<231.333 268.667>
LayerCount: 2
Fore
SplineSet
374 474 m 1
 402 461.333007812 425.333007812 445 444 425 c 1
 492.666992188 377 517 318.666992188 517 250 c 0
 517 181.333007812 492.666992188 122.666992188 444 74 c 0
 395.333007812 25.3330078125 336.833007812 1 268.5 1 c 0
 200.166992188 1 141.666992188 25.3330078125 93 74 c 0
 81.6669921875 84.6669921875 76 98 76 114 c 0
 76 130 81.6669921875 143.333007812 93 154 c 0
 104.333007812 164.666992188 117.666992188 170 133 170 c 0
 148.333007812 170 161.666992188 164.666992188 173 154 c 0
 199 128 230.666992188 115 268 115 c 0
 305.333007812 115 337.333007812 128.166992188 364 154.5 c 0
 390.666992188 180.833007812 404 212.666992188 404 250 c 0
 404 287.333007812 391.166992188 318.833007812 365.5 344.5 c 0
 339.833007812 370.166992188 307.666992188 383.666992188 269 385 c 1
 252.333007812 383.666992188 238.666992188 389.666992188 228 403 c 0
 227.333007812 403 227 403.333007812 227 404 c 0
 215.666992188 414.666992188 209.833007812 427.833007812 209.5 443.5 c 0
 209.166992188 459.166992188 214.333007812 472.666992188 225 484 c 2
 327 588 l 1
 165 588 l 2
 149.666992188 588 136.5 593.5 125.5 604.5 c 0
 114.5 615.5 109 628.833007812 109 644.5 c 0
 109 660.166992188 114.5 673.5 125.5 684.5 c 0
 136.5 695.5 149.666992188 701 165 701 c 2
 460 701 l 2
 476 701 489.5 695.5 500.5 684.5 c 0
 511.5 673.5 517 660.166992188 517 644.5 c 0
 517 628.833007812 511.333007812 615.333007812 500 604 c 2
 374 474 l 1
EndSplineSet
EndChar

StartChar: four
Encoding: 52 52 61
Width: 664
Flags: W
HStem: 0 241<225 486.667> 131 110<225 424 225 424 534 544> 679 20G<466 467 491 492> 680 20G
VStem: 424 110<55 131 47.3335 131 241 488 488 488> 424 176<55 193.667 131 193.667 178.333 488>
LayerCount: 2
Fore
SplineSet
492 699 m 1x28
 493.333007812 697.666992188 495.333007812 697 498 697 c 2
 502 696 l 1
 504.666992188 693.333007812 507.166992188 691.5 509.5 690.5 c 0
 511.833007812 689.5 513 688.666992188 513 688 c 1
 515 688 516 687.333007812 516 686 c 0
 520.666992188 681.333007812 524.333007812 677 527 673 c 2
 531 663 l 2
 532.333007812 657.666992188 533 654.333007812 533 653 c 2
 534 648 l 1
 534 241 l 1x68
 544 241 l 2
 559.333007812 241 572.5 235.666992188 583.5 225 c 0
 594.5 214.333007812 600 201.333007812 600 186 c 0x64
 600 170.666992188 594.5 157.666992188 583.5 147 c 0
 572.5 136.333007812 559.333007812 131 544 131 c 2
 534 131 l 1x68
 534 55 l 2
 534 39.6669921875 528.666992188 26.6669921875 518 16 c 0
 507.333007812 5.3330078125 494.333007812 0 479 0 c 0x88
 463.666992188 0 450.666992188 5.3330078125 440 16 c 0
 429.333007812 26.6669921875 424 39.6669921875 424 55 c 2
 424 131 l 1
 109 131 l 2
 95 131 83.6669921875 135 75 143 c 1
 62.3330078125 152.333007812 55.3330078125 164.5 54 179.5 c 0
 52.6669921875 194.5 56.6669921875 208 66 220 c 2
 436 680 l 1x58
 437.333007812 680 439 682 441 686 c 0
 442.333007812 686.666992188 444.5 688.166992188 447.5 690.5 c 0
 450.5 692.833007812 453.333007812 694 456 694 c 1
 457.333007812 696 458.666992188 697 460 697 c 2
 466 699 l 2x28
 468 699 469.333007812 699.333007812 470 700 c 2
 487 700 l 2x18
 488.333007812 699.333007812 490 699 492 699 c 1x28
424 241 m 1x88
 424 488 l 1
 225 241 l 1
 424 241 l 1x88
EndSplineSet
EndChar

StartChar: five
Encoding: 53 53 62
Width: 605
Flags: MW
HStem: 0 113<239.667 257 257 259> 383 114<247.667 277.667> 587 113<204 450 204 204>
VStem: 394 113<230.333 267.667>
LayerCount: 2
Fore
SplineSet
69 365 m 1
 68 372 l 1
 65.4443359375 377.111328125 65.111328125 383.444335938 67 391 c 1
 97 650 l 1
 100.333007812 667.333007812 108.666992188 680.666992188 122 690 c 1
 135.333007812 696.666992188 146.333007812 700 155 700 c 2
 450 700 l 2
 466 700 479.5 694.5 490.5 683.5 c 0
 501.5 672.5 507 659.166992188 507 643.5 c 0
 507 627.833007812 501.5 614.5 490.5 603.5 c 0
 479.5 592.5 466 587 450 587 c 2
 204 587 l 1
 192 488 l 1
 214 494 236.333007812 497 259 497 c 0
 327.666992188 497 386.166992188 472.833007812 434.5 424.5 c 0
 482.833007812 376.166992188 507 317.666992188 507 249 c 0
 507 180.333007812 482.833007812 121.666992188 434.5 73 c 0
 386.166992188 24.3330078125 327.666992188 0 259 0 c 2
 257 0 l 2
 187.666992188 0 129.666992188 24.3330078125 83 73 c 0
 71.6669921875 83.6669921875 66 96.8330078125 66 112.5 c 0
 66 128.166992188 71.5 141.666992188 82.5 153 c 0
 93.5 164.333007812 106.833007812 170 122.5 170 c 0
 138.166992188 170 151.666992188 164.333007812 163 153 c 0
 189 126.333007812 220.833007812 113 258.5 113 c 0
 296.166992188 113 328.166992188 126.333007812 354.5 153 c 0
 380.833007812 179.666992188 394 211.666992188 394 249 c 0
 394 286.333007812 381 318 355 344 c 0
 329 370 296.833007812 383 258.5 383 c 0
 220.166992188 383 188.333007812 370 163 344 c 0
 151.666992188 333.333007812 138.333007812 328 123 328 c 0
 104.333007812 328 89.1669921875 335.5 77.5 350.5 c 0
 75.1669921875 353.5 73.3330078125 355.666992188 72 357 c 1
 72 360.333007812 71 363 69 365 c 1
EndSplineSet
EndChar

StartChar: six
Encoding: 54 54 63
Width: 642
Flags: MW
HStem: 0 111<289.667 326.333 289.667 344> 374 110<291 326.667>
VStem: 64 113<223.333 317.667> 440 111<223.333 259.667>
LayerCount: 2
Fore
SplineSet
67 217 m 1
 64 276 l 1
 64 359.333007812 78 434 106 500 c 0
 134 566 174.666992188 616.666992188 228 652 c 0
 272 681.333007812 322 697 378 699 c 0
 393.333007812 699.666992188 406.5 694.833007812 417.5 684.5 c 0
 428.5 674.166992188 434.5 661.5 435.5 646.5 c 0
 436.5 631.5 431.666992188 618.333007812 421 607 c 0
 410.333007812 595.666992188 397.333007812 589.333007812 382 588 c 1
 348 587.333007812 315.833007812 577.166992188 285.5 557.5 c 0
 255.166992188 537.833007812 230.666992188 506.666992188 212 464 c 1
 242 477.333007812 274 484 308 484 c 0
 375.333007812 484 432.666992188 460.333007812 480 413 c 0
 527.333007812 365.666992188 551 308.666992188 551 242 c 0
 551 175.333007812 527.333007812 118.333007812 480 71 c 0
 432.666992188 23.6669921875 376.5 0 311.5 0 c 0
 246.5 0 191 20.8330078125 145 62.5 c 0
 99 104.166992188 73 155.666992188 67 217 c 1
308 111 m 0
 344.666992188 111 375.833007812 123.666992188 401.5 149 c 0
 427.166992188 174.333007812 440 205.166992188 440 241.5 c 0
 440 277.833007812 427.166992188 309 401.5 335 c 0
 375.833007812 361 344.833007812 374 308.5 374 c 0
 272.166992188 374 241.166992188 361 215.5 335 c 0
 189.833007812 309 177 277.833007812 177 241.5 c 0
 177 205.166992188 189.666992188 174.333007812 215 149 c 0
 240.333007812 123.666992188 271.333007812 111 308 111 c 0
EndSplineSet
EndChar

StartChar: seven
Encoding: 55 55 64
Width: 587
Flags: MW
HStem: 0 21G<204 227> 589 111<111.667 462 119 377>
LayerCount: 2
Fore
SplineSet
514 661 m 0
 518.666992188 651.666992188 518.333007812 639.333007812 513 624 c 1
 263 33 l 2
 254.333007812 11 238.5 0 215.5 0 c 0
 192.5 0 176 8.5 166 25.5 c 0
 156 42.5 154.333007812 59.3330078125 161 76 c 2
 377 589 l 1
 119 589 l 2
 104.333007812 589 91.5 594.5 80.5 605.5 c 0
 69.5 616.5 64 629.666992188 64 645 c 0
 64 660.333007812 69.3330078125 673.333007812 80 684 c 0
 90.6669921875 694.666992188 103.666992188 700 119 700 c 2
 462 700 l 2
 468.666992188 700 479 697 493 691 c 1
 496 688 l 1
 504.666992188 683.333007812 509 677.666992188 509 671 c 0
 509.666992188 669.666992188 511 668 513 666 c 1
 513.666992188 663.333007812 514 661.666992188 514 661 c 0
EndSplineSet
EndChar

StartChar: eight
Encoding: 56 56 65
Width: 630
Flags: W
HStem: 0 109<276.667 312.333 276.667 327.333> 368 111<286.333 301.667 286.333 312.333> 591 109<286.667 302.333>
VStem: 55 109<238 238> 129 109<528.333 543.667 528.333 562.333> 350 109<528 543> 424 109<220.333 255.667>
LayerCount: 2
Fore
SplineSet
426 437 m 1xec
 458.666992188 415 484.666992188 386.5 504 351.5 c 0
 523.333007812 316.5 533 278.666992188 533 238 c 0
 533 172.666992188 509.666992188 116.666992188 463 70 c 0
 416.333007812 23.3330078125 360.166992188 0 294.5 0 c 0
 228.833007812 0 172.5 23.3330078125 125.5 70 c 0
 78.5 116.666992188 55 172.666992188 55 238 c 0xf2
 55 278.666992188 64.5 316.5 83.5 351.5 c 0
 102.5 386.5 128.666992188 415 162 437 c 1
 140 465 129 499.833007812 129 541.5 c 0
 129 583.166992188 145.166992188 620 177.5 652 c 0
 209.833007812 684 248.666992188 700 294 700 c 0
 339.333007812 700 378.166992188 684 410.5 652 c 0
 442.833007812 620 459 583.166992188 459 541.5 c 0
 459 499.833007812 448 465 426 437 c 1xec
334 574.5 m 0
 323.333007812 585.5 310.166992188 591 294.5 591 c 0
 278.833007812 591 265.5 585.666992188 254.5 575 c 0
 243.5 564.333007812 238 551.333007812 238 536 c 0
 238 520.666992188 243.5 507.333007812 254.5 496 c 0
 265.5 484.666992188 278.666992188 479 294 479 c 0
 309.333007812 479 322.5 484.666992188 333.5 496 c 0
 344.5 507.333007812 350 520.5 350 535.5 c 0
 350 550.5 344.666992188 563.5 334 574.5 c 0
203 147 m 0
 228.333007812 121.666992188 258.833007812 109 294.5 109 c 0
 330.166992188 109 360.666992188 121.666992188 386 147 c 0
 411.333007812 172.333007812 424 202.666992188 424 238 c 0
 424 273.333007812 411.333007812 303.833007812 386 329.5 c 0
 360.666992188 355.166992188 330.166992188 368 294.5 368 c 0
 258.833007812 368 228.333007812 355.333007812 203 330 c 0
 177.666992188 304.666992188 164.666992188 274 164 238 c 1xf2
 164.666992188 202.666992188 177.666992188 172.333007812 203 147 c 0
EndSplineSet
EndChar

StartChar: nine
Encoding: 57 57 66
Width: 642
Flags: MW
HStem: 216 110<290.333 326> 589 111<290.667 327.333>
VStem: 66 111<440.333 476.667 440.333 491.333> 440 113<382.333 476.667>
LayerCount: 2
Fore
SplineSet
550 483 m 1
 553 424 l 1
 553 340.666992188 539 266 511 200 c 0
 483 134 442.333007812 83.3330078125 389 48 c 0
 345 18.6669921875 295 3 239 1 c 0
 223.666992188 0.3330078125 210.5 5.1669921875 199.5 15.5 c 0
 188.5 25.8330078125 182.5 38.5 181.5 53.5 c 0
 180.5 68.5 185.333007812 81.6669921875 196 93 c 0
 206.666992188 104.333007812 219.666992188 110.666992188 235 112 c 1
 269 112.666992188 301.166992188 122.833007812 331.5 142.5 c 0
 361.833007812 162.166992188 386.333007812 193.333007812 405 236 c 1
 375 222.666992188 343 216 309 216 c 0
 241.666992188 216 184.333007812 239.666992188 137 287 c 0
 89.6669921875 334.333007812 66 391.333007812 66 458 c 0
 66 524.666992188 89.6669921875 581.666992188 137 629 c 0
 184.333007812 676.333007812 240.5 700 305.5 700 c 0
 370.5 700 426 679.166992188 472 637.5 c 0
 518 595.833007812 544 544.333007812 550 483 c 1
309 589 m 0
 272.333007812 589 241.166992188 576.333007812 215.5 551 c 0
 189.833007812 525.666992188 177 494.833007812 177 458.5 c 0
 177 422.166992188 189.833007812 391 215.5 365 c 0
 241.166992188 339 272.166992188 326 308.5 326 c 0
 344.833007812 326 375.833007812 339 401.5 365 c 0
 427.166992188 391 440 422.166992188 440 458.5 c 0
 440 494.833007812 427.333007812 525.666992188 402 551 c 0
 376.666992188 576.333007812 345.666992188 589 309 589 c 0
EndSplineSet
EndChar

StartChar: exclam
Encoding: 33 33 67
Width: 252
Flags: MW
HStem: 0 130<140.667 155.333 140.667 155.667> 680 20G<140.667 155.333>
VStem: 93 109<55 75 47.3335 82.6665 241 645>
LayerCount: 2
Fore
SplineSet
148 186 m 0
 132.666992188 186 119.666992188 191.333007812 109 202 c 0
 98.3330078125 212.666992188 93 225.666992188 93 241 c 2
 93 645 l 2
 93 660.333007812 98.5 673.333007812 109.5 684 c 0
 120.5 694.666992188 133.333007812 700 148 700 c 0
 162.666992188 700 175.333007812 694.666992188 186 684 c 0
 196.666992188 673.333007812 202 660.333007812 202 645 c 2
 202 241 l 2
 202 225.666992188 196.833007812 212.666992188 186.5 202 c 0
 176.166992188 191.333007812 163.333007812 186 148 186 c 0
202 55 m 2
 202 39.6669921875 196.833007812 26.6669921875 186.5 16 c 0
 176.166992188 5.3330078125 163.333007812 0 148 0 c 0
 132.666992188 0 119.666992188 5.3330078125 109 16 c 0
 98.3330078125 26.6669921875 93 39.6669921875 93 55 c 2
 93 75 l 2
 93 90.3330078125 98.5 103.333007812 109.5 114 c 0
 120.5 124.666992188 133.333007812 130 148 130 c 0
 162.666992188 130 175.333007812 124.666992188 186 114 c 0
 196.666992188 103.333007812 202 90.3330078125 202 75 c 2
 202 55 l 2
EndSplineSet
EndChar

StartChar: question
Encoding: 63 63 68
Width: 534
Flags: MW
HStem: 0 116<225.667 239.333> 172 206<225.667 239.333> 602 98<213 247.667>
VStem: 183 98<49 67 42 73.6665 221 286> 346 97<475 506>
LayerCount: 2
Fore
SplineSet
197.5 101.5 m 0
 207.166992188 111.166992188 218.833007812 116 232.5 116 c 0
 246.166992188 116 257.666992188 111.166992188 267 101.5 c 0
 276.333007812 91.8330078125 281 80.3330078125 281 67 c 2
 281 49 l 2
 281 35 276.333007812 23.3330078125 267 14 c 0
 257.666992188 4.6669921875 246.166992188 0 232.5 0 c 0
 218.833007812 0 207.166992188 4.6669921875 197.5 14 c 0
 187.833007812 23.3330078125 183 35 183 49 c 2
 183 67 l 2
 183 80.3330078125 187.833007812 91.8330078125 197.5 101.5 c 0
381 638.5 m 0
 422.333007812 597.5 443 550.166992188 443 496.5 c 0
 443 442.833007812 427.666992188 397.166992188 397 359.5 c 0
 366.333007812 321.833007812 327.666992188 297.333007812 281 286 c 1
 281 221 l 2
 281 207 276.333007812 195.333007812 267 186 c 0
 257.666992188 176.666992188 246.166992188 172 232.5 172 c 0
 218.833007812 172 207.166992188 176.666992188 197.5 186 c 0
 187.833007812 195.333007812 183 207 183 221 c 2
 183 325 l 2
 183 325.666992188 183.166992188 326 183.5 326 c 0
 183.833007812 326 183.833007812 326.333007812 183.5 327 c 0
 183.166992188 327.666992188 183 328.333007812 183 329 c 0
 183 341.666992188 187.833007812 353 197.5 363 c 0
 207.166992188 373 218.666992188 378 232 378 c 0
 263.333007812 378 290.166992188 389 312.5 411 c 0
 334.833007812 433 346 459.5 346 490.5 c 0
 346 521.5 334.833007812 547.833007812 312.5 569.5 c 0
 290.166992188 591.166992188 263.333007812 602 232 602 c 0
 189.333007812 602 157.333007812 583.666992188 136 547 c 0
 128.666992188 535 118.5 527.333007812 105.5 524 c 0
 92.5 520.666992188 80 522.333007812 68 529 c 0
 56.6669921875 536.333007812 49.3330078125 546.333007812 46 559 c 0
 42.6669921875 571.666992188 44.3330078125 584 51 596 c 0
 69 627.333007812 94.1669921875 652.5 126.5 671.5 c 0
 158.833007812 690.5 194 700 232 700 c 0
 290 700 339.666992188 679.5 381 638.5 c 0
EndSplineSet
EndChar

StartChar: less
Encoding: 60 60 69
Width: 620
Flags: MW
HStem: 0 21G<396.667 413.333>
LayerCount: 2
Fore
SplineSet
66 373 m 2
 71 382 l 2
 71 383.333007812 71.6669921875 384 73 384 c 1
 74.3330078125 386.666992188 76.3330078125 389 79 391 c 2
 360 676 l 2
 372.666992188 688 387.833007812 694 405.5 694 c 0
 423.166992188 694 438.166992188 687.833007812 450.5 675.5 c 0
 462.833007812 663.166992188 469 648.333007812 469 631 c 0
 469 613.666992188 462.666992188 598.666992188 450 586 c 2
 213 347 l 1
 450 108 l 2
 462.666992188 94.6669921875 469 79.5 469 62.5 c 0
 469 45.5 462.666992188 30.6669921875 450 18 c 0
 436.666992188 6 421.666992188 0 405 0 c 0
 388.333007812 0 373.333007812 6 360 18 c 1
 79 303 l 2
 77 303.666992188 75.3330078125 305.666992188 74 309 c 1
 71.412109375 310.725585938 69.412109375 314.05859375 68 319 c 1
 66 319.666992188 65 321.166992188 65 323.5 c 0
 65 325.833007812 64.3330078125 327.666992188 63 329 c 0
 63 330.333007812 62.3330078125 332 61 334 c 1
 61 341 l 1
 60 347 l 1
 61 352 l 1
 61 359 l 1
 64 367 l 1
 64 370.333007812 64.3330078125 372 65 372 c 0
 65.6669921875 372 66 372.333007812 66 373 c 2
EndSplineSet
EndChar

StartChar: greater
Encoding: 62 62 70
Width: 620
Flags: MW
HStem: 0 21G<151 168.5>
LayerCount: 2
Fore
SplineSet
503 334 m 1
 499.666992188 327.333007812 498 322.666992188 498 320 c 1
 493 311 l 2
 493 310.333007812 492.666992188 310 492 310 c 2
 204 18 l 2
 192 6 177.25 0 159.75 0 c 0
 142.25 0 127 6 114 18 c 0
 101.333007812 30.6669921875 95 45.5 95 62.5 c 0
 95 79.5 101.333007812 94.6669921875 114 108 c 2
 351 347 l 1
 114 586 l 2
 101.333007812 598.666992188 95 613.666992188 95 631 c 0
 95 648.333007812 101.166992188 663.166992188 113.5 675.5 c 0
 125.833007812 687.833007812 140.833007812 694 158.5 694 c 0
 176.166992188 694 191.333007812 688 204 676 c 2
 492 384 l 2
 493.333007812 381.333007812 494.5 379.166992188 495.5 377.5 c 0
 496.5 375.833007812 497.166992188 374.5 497.5 373.5 c 0
 497.833007812 372.5 498.166992188 372 498.5 372 c 0
 498.833007812 372 499 371.666992188 499 371 c 2
 503 359 l 1
 503 352 l 2
 503.666992188 349.333007812 504 347.666992188 504 347 c 2
 503 342 l 1
 503 334 l 1
EndSplineSet
EndChar

StartChar: equal
Encoding: 61 61 71
Width: 620
Flags: MW
HStem: 259 72<110 301 115 301> 372 70<110 301 115 301>
LayerCount: 2
Fore
SplineSet
79 295 m 0
 79 305 82.5 313.5 89.5 320.5 c 0
 96.5 327.5 105 331 115 331 c 2
 301 331 l 2
 311 331 319.333007812 327.5 326 320.5 c 0
 332.666992188 313.5 336 305 336 295 c 0
 336 285 332.666992188 276.5 326 269.5 c 0
 319.333007812 262.5 311 259 301 259 c 2
 115 259 l 2
 105 259 96.5 262.5 89.5 269.5 c 0
 82.5 276.5 79 285 79 295 c 0
89.5 382 m 0
 82.5 388.666992188 79 396.833007812 79 406.5 c 0
 79 416.166992188 82.5 424.5 89.5 431.5 c 0
 96.5 438.5 105 442 115 442 c 2
 301 442 l 2
 311 442 319.333007812 438.5 326 431.5 c 0
 332.666992188 424.5 336 416.166992188 336 406.5 c 0
 336 396.833007812 332.666992188 388.666992188 326 382 c 0
 319.333007812 375.333007812 311 372 301 372 c 2
 115 372 l 2
 105 372 96.5 375.333007812 89.5 382 c 0
EndSplineSet
EndChar

StartChar: period
Encoding: 46 46 72
Width: 230
Flags: MW
HStem: -7 149<145.667 166.333>
VStem: 82 149<56.6665 77.3335>
LayerCount: 2
Fore
SplineSet
82 67 m 0
 82 87.6669921875 89.1669921875 105.333007812 103.5 120 c 0
 117.833007812 134.666992188 135.333007812 142 156 142 c 0
 176.666992188 142 194.333007812 134.666992188 209 120 c 0
 223.666992188 105.333007812 231 87.6669921875 231 67 c 0
 231 46.3330078125 223.666992188 28.8330078125 209 14.5 c 0
 194.333007812 0.1669921875 176.666992188 -7 156 -7 c 0
 135.333007812 -7 117.833007812 0.1669921875 103.5 14.5 c 0
 89.1669921875 28.8330078125 82 46.3330078125 82 67 c 0
EndSplineSet
EndChar

StartChar: comma
Encoding: 44 44 73
Width: 230
Flags: MW
HStem: -145 21G<74.6665 101.333> 123 20G<147.333 168.667>
VStem: 88 140<12.3335 76 12.3335 85.6665>
LayerCount: 2
Fore
SplineSet
54 -117 m 0
 54 -102.333007812 61.6669921875 -93.3330078125 77 -90 c 1
 124.333007812 -74.6669921875 147 -44.6669921875 145 0 c 1
 129 4.6669921875 115.5 13 104.5 25 c 0
 93.5 37 88 51.3330078125 88 68 c 2
 88 76 l 2
 88 95.3330078125 94.3330078125 111.333007812 107 124 c 0
 119.666992188 136.666992188 136.666992188 143 158 143 c 0
 179.333007812 143 196.333007812 135.166992188 209 119.5 c 0
 221.666992188 103.833007812 228 82.3330078125 228 55 c 2
 228 44 l 2
 228 -19.3330078125 211.666992188 -68 179 -102 c 1
 149 -130.666992188 117.666992188 -145 85 -145 c 0
 64.3330078125 -145 54 -135.666992188 54 -117 c 0
EndSplineSet
EndChar

StartChar: colon
Encoding: 58 58 74
Width: 240
Flags: MW
HStem: -7 149<150.667 171.333> 391 149<150.667 171.333>
VStem: 87 149<56.6665 77.3335 454.667 475.333>
LayerCount: 2
Fore
SplineSet
87 67 m 0
 87 87.6669921875 94.1669921875 105.333007812 108.5 120 c 0
 122.833007812 134.666992188 140.333007812 142 161 142 c 0
 181.666992188 142 199.333007812 134.666992188 214 120 c 0
 228.666992188 105.333007812 236 87.6669921875 236 67 c 0
 236 46.3330078125 228.666992188 28.8330078125 214 14.5 c 0
 199.333007812 0.1669921875 181.666992188 -7 161 -7 c 0
 140.333007812 -7 122.833007812 0.1669921875 108.5 14.5 c 0
 94.1669921875 28.8330078125 87 46.3330078125 87 67 c 0
87 465 m 0
 87 485.666992188 94.1669921875 503.333007812 108.5 518 c 0
 122.833007812 532.666992188 140.333007812 540 161 540 c 0
 181.666992188 540 199.333007812 532.666992188 214 518 c 0
 228.666992188 503.333007812 236 485.666992188 236 465 c 0
 236 444.333007812 228.666992188 426.833007812 214 412.5 c 0
 199.333007812 398.166992188 181.666992188 391 161 391 c 0
 140.333007812 391 122.833007812 398.166992188 108.5 412.5 c 0
 94.1669921875 426.833007812 87 444.333007812 87 465 c 0
EndSplineSet
EndChar

StartChar: semicolon
Encoding: 59 59 75
Width: 240
Flags: MW
HStem: -162 21G<84.3335 118.333> 370 172<170.667 195.333>
VStem: 166 104
LayerCount: 2
Fore
SplineSet
96 457 m 2
 96 481 104.333007812 501.166992188 121 517.5 c 0
 137.666992188 533.833007812 158.333007812 542 183 542 c 0
 207.666992188 542 228.333007812 533.833007812 245 517.5 c 0
 261.666992188 501.166992188 270 481 270 457 c 2
 270 455 l 2
 270 431 261.666992188 410.833007812 245 394.5 c 0
 228.333007812 378.166992188 207.666992188 370 183 370 c 0
 158.333007812 370 137.666992188 378.166992188 121 394.5 c 0
 104.333007812 410.833007812 96 431 96 455 c 2
 96 457 l 2
59 -128 m 0
 59 -110.666992188 69 -99.6669921875 89 -95 c 0
 114.333007812 -89 133.833007812 -77.6669921875 147.5 -61 c 0
 161.166992188 -44.3330078125 167.333007812 -24 166 0 c 1
 146.666992188 4.6669921875 130.166992188 14.5 116.5 29.5 c 0
 102.833007812 44.5 96 62 96 82 c 2
 96 84 l 2
 96 108 103.666992188 127.666992188 119 143 c 0
 134.333007812 158.333007812 155.166992188 166 181.5 166 c 0
 207.833007812 166 228.833007812 156 244.5 136 c 0
 260.166992188 116 268 88.6669921875 268 54 c 2
 268 50 l 2
 268 -20 248.333007812 -74.6669921875 209 -114 c 0
 177 -146 139.666992188 -162 97 -162 c 0
 71.6669921875 -162 59 -150.666992188 59 -128 c 0
EndSplineSet
EndChar

StartChar: quoteright
Encoding: 256 8217 76
Width: 230
Flags: MW
HStem: 418 21G<79.6665 107> 685 20G<152 173>
VStem: 93 140<574.667 638 574.667 647.667>
LayerCount: 2
Fore
SplineSet
59 446 m 0
 59 459.333007812 66.6669921875 468.333007812 82 473 c 0
 129.333007812 487.666992188 152 517.666992188 150 563 c 1
 134 567 120.5 574.833007812 109.5 586.5 c 0
 98.5 598.166992188 93 612.666992188 93 630 c 2
 93 638 l 2
 93 657.333007812 99.3330078125 673.333007812 112 686 c 0
 124.666992188 698.666992188 141.5 705 162.5 705 c 0
 183.5 705 200.5 697 213.5 681 c 0
 226.5 665 233 643.666992188 233 617 c 2
 233 607 l 2
 233 542.333007812 217.666992188 494.666992188 187 464 c 0
 156.333007812 433.333007812 124 418 90 418 c 0
 69.3330078125 418 59 427.333007812 59 446 c 0
EndSplineSet
EndChar

StartChar: quoteleft
Encoding: 257 8216 77
Width: 230
Flags: MW
HStem: 417 21G<137 158> 684 20G<203.333 231.333>
VStem: 77 140<474.333 515 474.333 547.667>
LayerCount: 2
Fore
SplineSet
252 676 m 0
 252 662.666992188 244 653.666992188 228 649 c 0
 180.666992188 634.333007812 158 604.666992188 160 560 c 1
 176 555.333007812 189.5 547 200.5 535 c 0
 211.5 523 217 508.666992188 217 492 c 2
 217 484 l 2
 217 464.666992188 210.666992188 448.666992188 198 436 c 0
 185.333007812 423.333007812 168.5 417 147.5 417 c 0
 126.5 417 109.5 425 96.5 441 c 0
 83.5 457 77 478.333007812 77 505 c 2
 77 515 l 2
 77 580.333007812 93.6669921875 629 127 661 c 1
 154.333007812 689.666992188 185.666992188 704 221 704 c 0
 241.666992188 704 252 694.666992188 252 676 c 0
EndSplineSet
EndChar

StartChar: quotedblright
Encoding: 258 8221 78
Width: 410
Flags: MW
HStem: 418 21G<79.6665 107 310.667 338.667> 685 20G<152 173 384 405>
VStem: 93 140<574.667 638 574.667 647.667> 325 140<574.333 638 574.333 647.667>
LayerCount: 2
Fore
SplineSet
59 446 m 0
 59 459.333007812 66.6669921875 468.333007812 82 473 c 0
 129.333007812 487.666992188 152 517.666992188 150 563 c 1
 134 567 120.5 574.833007812 109.5 586.5 c 0
 98.5 598.166992188 93 612.666992188 93 630 c 2
 93 638 l 2
 93 657.333007812 99.3330078125 673.333007812 112 686 c 0
 124.666992188 698.666992188 141.5 705 162.5 705 c 0
 183.5 705 200.5 697 213.5 681 c 0
 226.5 665 233 643.666992188 233 617 c 2
 233 607 l 2
 233 542.333007812 217.666992188 494.666992188 187 464 c 0
 156.333007812 433.333007812 124 418 90 418 c 0
 69.3330078125 418 59 427.333007812 59 446 c 0
290 446 m 0
 290 459.333007812 298 468.333007812 314 473 c 0
 361.333007812 487.666992188 384 517.666992188 382 563 c 1
 366 567 352.5 574.833007812 341.5 586.5 c 0
 330.5 598.166992188 325 612.666992188 325 630 c 2
 325 638 l 2
 325 657.333007812 331.333007812 673.333007812 344 686 c 0
 356.666992188 698.666992188 373.5 705 394.5 705 c 0
 415.5 705 432.5 697 445.5 681 c 0
 458.5 665 465 643.666992188 465 617 c 2
 465 607 l 2
 465 541.666992188 448.333007812 493 415 461 c 1
 387.666992188 432.333007812 356.333007812 418 321 418 c 0
 300.333007812 418 290 427.333007812 290 446 c 0
EndSplineSet
EndChar

StartChar: quotedblleft
Encoding: 259 8220 79
Width: 410
Flags: MW
HStem: 417 21G<137 158 369 390> 684 20G<203.333 231.333 435 462.667>
VStem: 77 140<474.333 515 474.333 547.667> 309 140<474.333 515 474.333 547.333>
LayerCount: 2
Fore
SplineSet
484 676 m 0
 484 662.666992188 476 653.666992188 460 649 c 0
 412.666992188 634.333007812 390 604.666992188 392 560 c 1
 408 555.333007812 421.5 547 432.5 535 c 0
 443.5 523 449 508.666992188 449 492 c 2
 449 484 l 2
 449 464.666992188 442.666992188 448.666992188 430 436 c 0
 417.333007812 423.333007812 400.5 417 379.5 417 c 0
 358.5 417 341.5 425 328.5 441 c 0
 315.5 457 309 478.333007812 309 505 c 2
 309 515 l 2
 309 579.666992188 324.333007812 627.333007812 355 658 c 0
 385.666992188 688.666992188 418 704 452 704 c 0
 473.333007812 704 484 694.666992188 484 676 c 0
252 676 m 0
 252 662.666992188 244 653.666992188 228 649 c 0
 180.666992188 634.333007812 158 604.666992188 160 560 c 1
 176 555.333007812 189.5 547 200.5 535 c 0
 211.5 523 217 508.666992188 217 492 c 2
 217 484 l 2
 217 464.666992188 210.666992188 448.666992188 198 436 c 0
 185.333007812 423.333007812 168.5 417 147.5 417 c 0
 126.5 417 109.5 425 96.5 441 c 0
 83.5 457 77 478.333007812 77 505 c 2
 77 515 l 2
 77 580.333007812 93.6669921875 629 127 661 c 1
 154.333007812 689.666992188 185.666992188 704 221 704 c 0
 241.666992188 704 252 694.666992188 252 676 c 0
EndSplineSet
EndChar

StartChar: slash
Encoding: 47 47 80
Width: 422
Flags: MW
HStem: 0 21G<126.667 149.333>
LayerCount: 2
Fore
SplineSet
186 33 m 2
 176.666992188 11 160.666992188 0 138 0 c 0
 115.333007812 0 99 8.3330078125 89 25 c 0
 79 41.6669921875 77.6669921875 58.6669921875 85 76 c 2
 330 659 l 2
 336 673 346 682.833007812 360 688.5 c 0
 374 694.166992188 388 694.166992188 402 688.5 c 0
 416 682.833007812 425.833007812 672.833007812 431.5 658.5 c 0
 437.166992188 644.166992188 437 630.333007812 431 617 c 2
 186 33 l 2
EndSplineSet
EndChar

StartChar: backslash
Encoding: 92 92 81
Width: 448
Flags: MW
HStem: 0 21G<356.667 373>
LayerCount: 2
Fore
SplineSet
389 4 m 0
 383.666992188 1.3330078125 377 0 369 0 c 0
 344.333007812 0 327.333007812 11 318 33 c 2
 73 617 l 2
 67 630.333007812 66.8330078125 644.166992188 72.5 658.5 c 0
 78.1669921875 672.833007812 88 682.833007812 102 688.5 c 0
 116 694.166992188 130 694.166992188 144 688.5 c 0
 158 682.833007812 168 673 174 659 c 2
 419 76 l 2
 425 62 425.166992188 47.8330078125 419.5 33.5 c 0
 413.833007812 19.1669921875 403.666992188 9.3330078125 389 4 c 0
EndSplineSet
EndChar

StartChar: hyphen
Encoding: 45 45 83
Width: 408
Flags: MW
HStem: 247 119<117 313 125 313>
LayerCount: 2
Fore
SplineSet
125 247 m 2
 109 247 95.1669921875 252.833007812 83.5 264.5 c 0
 71.8330078125 276.166992188 66 290.166992188 66 306.5 c 0
 66 322.833007812 71.8330078125 336.833007812 83.5 348.5 c 0
 95.1669921875 360.166992188 109 366 125 366 c 2
 313 366 l 2
 329 366 342.833007812 360.166992188 354.5 348.5 c 0
 366.166992188 336.833007812 372 322.833007812 372 306.5 c 0
 372 290.166992188 366.166992188 276.166992188 354.5 264.5 c 0
 342.833007812 252.833007812 329 247 313 247 c 2
 125 247 l 2
EndSplineSet
EndChar

StartChar: quotesingle
Encoding: 39 39 84
Width: 230
Flags: MW
HStem: 395 21G<98 111.667> 683 20G<144 183 183 188>
LayerCount: 2
Fore
SplineSet
69 433 m 2
 87 647 l 2
 88.3330078125 663 94.1669921875 676.333007812 104.5 687 c 0
 114.833007812 697.666992188 128 703 144 703 c 2
 183 703 l 2
 193 703 201.166992188 700 207.5 694 c 0
 213.833007812 688 217 681.5 217 674.5 c 0
 217 667.5 215.666992188 658.666992188 213 648 c 2
 140 426 l 2
 132.666992188 405.333007812 120.333007812 395 103 395 c 0
 93 395 84.6669921875 398.5 78 405.5 c 0
 71.3330078125 412.5 68.3330078125 421.666992188 69 433 c 2
EndSplineSet
EndChar

StartChar: quotedbl
Encoding: 34 34 85
Width: 410
Flags: W
HStem: 395 21G<98 111.333 317 330.333> 683 20G<144 183 183 188 363 403 403 407.667>
VStem: 216 81 297 138
LayerCount: 2
Fore
SplineSet
289 433 m 2xd0
 306 647 l 2
 307.333007812 663 313.166992188 676.333007812 323.5 687 c 0
 333.833007812 697.666992188 347 703 363 703 c 2
 403 703 l 2
 412.333007812 703 420 700 426 694 c 0
 432 688 435 681.5 435 674.5 c 0
 435 667.5 433.666992188 658.666992188 431 648 c 2
 358 426 l 2
 350.666992188 405.333007812 338.666992188 395 322 395 c 0
 312 395 303.833007812 398.5 297.5 405.5 c 0
 291.166992188 412.5 288.333007812 421.666992188 289 433 c 2xd0
69 433 m 2
 87 647 l 2
 88.3330078125 663 94.1669921875 676.333007812 104.5 687 c 0
 114.833007812 697.666992188 128 703 144 703 c 2
 183 703 l 2
 193 703 201 700 207 694 c 0
 213 688 216 681.5 216 674.5 c 0xe0
 216 667.5 214.666992188 658.666992188 212 648 c 2
 139 426 l 2
 131.666992188 405.333007812 119.666992188 395 103 395 c 0
 93 395 84.6669921875 398.5 78 405.5 c 0
 71.3330078125 412.5 68.3330078125 421.666992188 69 433 c 2
EndSplineSet
EndChar

StartChar: numbersign
Encoding: 35 35 86
Width: 700
Flags: MW
HStem: -5 21G<167 182 430.667 445.333> 161 104<89.6665 161 97 143 97 250 268 407 531 588> 439 104<126 209 133 191 133 298 315 454 579 625> 685 20G<275.667 290.333 539.667 554.333>
LayerCount: 2
Fore
SplineSet
125 56 m 2
 143 161 l 1
 97 161 l 2
 82.3330078125 161 70 166 60 176 c 0
 50 186 45 198.166992188 45 212.5 c 0
 45 226.833007812 50 239.166992188 60 249.5 c 0
 70 259.833007812 82.3330078125 265 97 265 c 2
 161 265 l 1
 191 439 l 1
 133 439 l 2
 119 439 106.833007812 444.166992188 96.5 454.5 c 0
 86.1669921875 464.833007812 81 477 81 491 c 0
 81 505 86.1669921875 517.166992188 96.5 527.5 c 0
 106.833007812 537.833007812 119 543 133 543 c 2
 209 543 l 1
 229 662 l 2
 231 674.666992188 236.833007812 685 246.5 693 c 0
 256.166992188 701 268.333007812 705 283 705 c 0
 297.666992188 705 310.166992188 698.833007812 320.5 686.5 c 0
 330.833007812 674.166992188 335 660 333 644 c 2
 315 543 l 1
 472 543 l 1
 492 662 l 2
 494 674.666992188 500 685 510 693 c 0
 520 701 532.333007812 705 547 705 c 0
 561.666992188 705 574.166992188 698.666992188 584.5 686 c 0
 594.833007812 673.333007812 598.666992188 659.333007812 596 644 c 2
 579 543 l 1
 625 543 l 2
 639 543 651.166992188 538 661.5 528 c 0
 671.833007812 518 677 505.833007812 677 491.5 c 0
 677 477.166992188 671.833007812 464.833007812 661.5 454.5 c 0
 651.166992188 444.166992188 639 439 625 439 c 2
 561 439 l 1
 531 265 l 1
 588 265 l 2
 602.666992188 265 615 260 625 250 c 0
 635 240 640 227.833007812 640 213.5 c 0
 640 199.166992188 635 186.833007812 625 176.5 c 0
 615 166.166992188 602.666992188 161 588 161 c 2
 513 161 l 1
 492 38 l 2
 490 25.3330078125 484.166992188 15 474.5 7 c 0
 464.833007812 -1 452.666992188 -5 438 -5 c 0
 423.333007812 -5 410.666992188 1.1669921875 400 13.5 c 0
 389.333007812 25.8330078125 385.333007812 40 388 56 c 2
 407 161 l 1
 250 161 l 1
 229 38 l 2
 227 26 221.166992188 15.8330078125 211.5 7.5 c 0
 201.833007812 -0.8330078125 189.5 -5 174.5 -5 c 0
 159.5 -5 146.833007812 1 136.5 13 c 0
 126.166992188 25 122.333007812 39.3330078125 125 56 c 2
268 265 m 1
 424 265 l 1
 454 439 l 1
 298 439 l 1
 268 265 l 1
EndSplineSet
EndChar

StartChar: dollar
Encoding: 36 36 87
Width: 632
Flags: MW
HStem: -103 21G<331 343> 743 20G<331 343>
VStem: 83 118<504.333 526.667 504.333 533.667> 297 79<105 283 101 302 101 302 422 593> 475 118<175.333 198.667>
LayerCount: 2
Fore
SplineSet
293 720 m 2
 293 732 297.333007812 742.166992188 306 750.5 c 0
 314.666992188 758.833007812 325 763 337 763 c 0
 349 763 359.166992188 758.833007812 367.5 750.5 c 0
 375.833007812 742.166992188 380 732 380 720 c 2
 380 698 l 1
 435.333007812 691.333007812 487 673 535 643 c 0
 555 631.666992188 565 617 565 599 c 0
 565 581 559.5 566.666992188 548.5 556 c 0
 537.5 545.333007812 525.666992188 540 513 540 c 0
 500.333007812 540 489 543 479 549 c 0
 443 571 408.666992188 585.666992188 376 593 c 1
 376 401 l 1
 452 381.666992188 507.166992188 355.833007812 541.5 323.5 c 0
 575.833007812 291.166992188 593 248.166992188 593 194.5 c 0
 593 140.833007812 573.666992188 96.5 535 61.5 c 0
 496.333007812 26.5 444.666992188 6 380 0 c 1
 380 -60 l 2
 380 -72 375.833007812 -82.1669921875 367.5 -90.5 c 0
 359.166992188 -98.8330078125 349 -103 337 -103 c 0
 325 -103 314.666992188 -98.8330078125 306 -90.5 c 0
 297.333007812 -82.1669921875 293 -72 293 -60 c 2
 293 2 l 1
 219 10 150.666992188 36 88 80 c 1
 70 91.3330078125 61 106 61 124 c 0
 61 142 66.3330078125 156.333007812 77 167 c 0
 87.6669921875 177.666992188 100 183 114 183 c 0
 128 183 139.666992188 179.333007812 149 172 c 0
 198.333007812 136 247.666992188 113.666992188 297 105 c 1
 297 302 l 1
 222.333007812 321.333007812 168 346.666992188 134 378 c 0
 100 409.333007812 83 452.166992188 83 506.5 c 0
 83 560.833007812 102.333007812 605.166992188 141 639.5 c 0
 179.666992188 673.833007812 230.333007812 693.666992188 293 699 c 1
 293 720 l 2
449.5 129 m 0
 466.5 144.333007812 475 163.666992188 475 187 c 0
 475 210.333007812 467.833007812 229.333007812 453.5 244 c 0
 439.166992188 258.666992188 413.333007812 271.666992188 376 283 c 1
 376 101 l 1
 408 104.333007812 432.5 113.666992188 449.5 129 c 0
225.5 572 m 0
 209.166992188 556.666992188 201 537.833007812 201 515.5 c 0
 201 493.166992188 207.666992188 475 221 461 c 0
 234.333007812 447 259.666992188 434 297 422 c 1
 297 599 l 1
 265.666992188 596.333007812 241.833007812 587.333007812 225.5 572 c 0
EndSplineSet
EndChar

StartChar: percent
Encoding: 260 37 88
Width: 824
Flags: W
HStem: -8 77<633.333 655.667 633.333 666.667> 273 77<630.333 652.667> 350 77<210.333 232.667 210.333 243.667> 631 77<207.333 229.667>
VStem: 55 89<527 529 529 531 514.667 554> 296 89<527 529 529 531 504 543.333> 478 89<169 171 171 173 156.667 196> 719 89<169 171 171 173 146.333 185.333>
LayerCount: 2
Fore
SplineSet
338.5 402 m 0xbf
 307.5 367.333007812 267.833007812 350 219.5 350 c 0
 171.166992188 350 131.666992188 367.166992188 101 401.5 c 0
 70.3330078125 435.833007812 55 477.666992188 55 527 c 2
 55 529 l 2
 55 579 70.5 621.333007812 101.5 656 c 0
 132.5 690.666992188 172.333007812 708 221 708 c 0
 269.666992188 708 309.166992188 690.833007812 339.5 656.5 c 0
 369.833007812 622.166992188 385 580.333007812 385 531 c 2
 385 529 l 2
 385 479 369.5 436.666992188 338.5 402 c 0xbf
172.5 6.5 m 0
 164.833007812 14.1669921875 161 22.8330078125 161 32.5 c 0
 161 42.1669921875 164 51.3330078125 170 60 c 2
 629 687 l 1
 636.333007812 699 646.666992188 705 660 705 c 0
 673.333007812 705 683.833007812 701.166992188 691.5 693.5 c 0
 699.166992188 685.833007812 703 677.166992188 703 667.5 c 0
 703 657.833007812 700 648.666992188 694 640 c 2
 235 13 l 2
 227 1 216.5 -5 203.5 -5 c 0
 190.5 -5 180.166992188 -1.1669921875 172.5 6.5 c 0
761.5 44.5 m 0
 730.5 9.5 690.833007812 -8 642.5 -8 c 0
 594.166992188 -8 554.666992188 9.1669921875 524 43.5 c 0
 493.333007812 77.8330078125 478 119.666992188 478 169 c 2
 478 171 l 2
 478 221 493.5 263.333007812 524.5 298 c 0
 555.5 332.666992188 595.166992188 350 643.5 350 c 0xdf
 691.833007812 350 731.333007812 332.833007812 762 298.5 c 0
 792.666992188 264.166992188 808 222.333007812 808 173 c 2
 808 171 l 2
 808 121.666992188 792.5 79.5 761.5 44.5 c 0
166 456.5 m 0
 180.666992188 436.833007812 199.166992188 427 221.5 427 c 0xbf
 243.833007812 427 261.833007812 436.666992188 275.5 456 c 0
 289.166992188 475.333007812 296 499 296 527 c 2
 296 529 l 2
 296 557.666992188 288.666992188 581.833007812 274 601.5 c 0
 259.333007812 621.166992188 240.833007812 631 218.5 631 c 0
 196.166992188 631 178.166992188 621.333007812 164.5 602 c 0
 150.833007812 582.666992188 144 559 144 531 c 2
 144 529 l 2
 144 500.333007812 151.333007812 476.166992188 166 456.5 c 0
589 98.5 m 0
 603.666992188 78.8330078125 622.166992188 69 644.5 69 c 0
 666.833007812 69 684.833007812 78.6669921875 698.5 98 c 0
 712.166992188 117.333007812 719 141 719 169 c 2
 719 171 l 2
 719 199.666992188 711.666992188 223.833007812 697 243.5 c 0
 682.333007812 263.166992188 663.833007812 273 641.5 273 c 0xdf
 619.166992188 273 601.166992188 263.333007812 587.5 244 c 0
 573.833007812 224.666992188 567 201 567 173 c 2
 567 171 l 2
 567 142.333007812 574.333007812 118.166992188 589 98.5 c 0
EndSplineSet
EndChar

StartChar: asterisk
Encoding: 42 42 89
Width: 430
Flags: MW
HStem: 377 21G<225 235> 439 206<104.333 111.333 348.667 355.667> 687 20G<225 235>
LayerCount: 2
Fore
SplineSet
199 414 m 2
 209 504 l 1
 134 449 l 2
 124 442.333007812 115.166992188 439 107.5 439 c 0
 99.8330078125 439 92.6669921875 442.333007812 86 449 c 0
 79.3330078125 455.666992188 76 464.833007812 76 476.5 c 0
 76 488.166992188 83.6669921875 497.333007812 99 504 c 2
 187 542 l 1
 99 581 l 2
 83.6669921875 587.666992188 76 596.666992188 76 608 c 0
 76 619.333007812 79.3330078125 628.333007812 86 635 c 0
 92.6669921875 641.666992188 100.166992188 645 108.5 645 c 0
 116.833007812 645 125.333007812 641.666992188 134 635 c 2
 209 580 l 1
 199 669 l 2
 197.666992188 679.666992188 200 688.666992188 206 696 c 0
 212 703.333007812 220 707 230 707 c 0
 240 707 248 703.5 254 696.5 c 0
 260 689.5 262.333007812 680.666992188 261 670 c 2
 251 580 l 1
 326 635 l 2
 334.666992188 641.666992188 343.166992188 645 351.5 645 c 0
 359.833007812 645 367.333007812 641.833007812 374 635.5 c 0
 380.666992188 629.166992188 384 620.166992188 384 608.5 c 0
 384 596.833007812 376.333007812 587.666992188 361 581 c 2
 273 542 l 1
 361 504 l 2
 376.333007812 497.333007812 384 488.166992188 384 476.5 c 0
 384 464.833007812 380.666992188 455.666992188 374 449 c 0
 367.333007812 442.333007812 360.166992188 439 352.5 439 c 0
 344.833007812 439 336 442.333007812 326 449 c 2
 251 504 l 1
 261 415 l 2
 262.333007812 404.333007812 260 395.333007812 254 388 c 0
 248 380.666992188 240 377 230 377 c 0
 220 377 212 380.5 206 387.5 c 0
 200 394.5 197.666992188 403.333007812 199 414 c 2
EndSplineSet
EndChar

StartChar: bracketleft
Encoding: 91 91 90
Width: 430
Flags: MW
HStem: -130 95<148.667 363 214 363 214 363> 605 95<214 363 214 214>
VStem: 98 116<-35 605 -35 640 -35 648.333>
LayerCount: 2
Fore
SplineSet
98 -70 m 2
 98 640 l 2
 98 656.666992188 103.666992188 670.833007812 115 682.5 c 0
 126.333007812 694.166992188 140.333007812 700 157 700 c 2
 363 700 l 2
 375.666992188 700 386.833007812 695.333007812 396.5 686 c 0
 406.166992188 676.666992188 411 665.5 411 652.5 c 0
 411 639.5 406.333007812 628.333007812 397 619 c 0
 387.666992188 609.666992188 376.333007812 605 363 605 c 2
 214 605 l 1
 214 -35 l 1
 363 -35 l 2
 376.333007812 -35 387.666992188 -39.6669921875 397 -49 c 0
 406.333007812 -58.3330078125 411 -69.5 411 -82.5 c 0
 411 -95.5 406.166992188 -106.666992188 396.5 -116 c 0
 386.833007812 -125.333007812 375.666992188 -130 363 -130 c 2
 157 -130 l 2
 140.333007812 -130 126.333007812 -124.166992188 115 -112.5 c 0
 103.666992188 -100.833007812 98 -86.6669921875 98 -70 c 2
EndSplineSet
EndChar

StartChar: bracketright
Encoding: 93 93 91
Width: 430
Flags: MW
HStem: -130 95<95.6665 252 102 252 102 308> 605 95<95.3335 308 102 252>
VStem: 252 116<-35 605 605 605>
LayerCount: 2
Fore
SplineSet
368 640 m 2
 368 -70 l 2
 368 -86.6669921875 362.166992188 -100.833007812 350.5 -112.5 c 0
 338.833007812 -124.166992188 324.666992188 -130 308 -130 c 2
 102 -130 l 2
 89.3330078125 -130 78.3330078125 -125.333007812 69 -116 c 0
 59.6669921875 -106.666992188 55 -95.3330078125 55 -82 c 0
 55 -68.6669921875 59.5 -57.5 68.5 -48.5 c 0
 77.5 -39.5 88.6669921875 -35 102 -35 c 2
 252 -35 l 1
 252 605 l 1
 102 605 l 2
 88.6669921875 605 77.5 609.5 68.5 618.5 c 0
 59.5 627.5 55 638.666992188 55 652 c 0
 55 665.333007812 59.6669921875 676.666992188 69 686 c 0
 78.3330078125 695.333007812 89.3330078125 700 102 700 c 2
 308 700 l 2
 324.666992188 700 338.833007812 694.166992188 350.5 682.5 c 0
 362.166992188 670.833007812 368 656.666992188 368 640 c 2
EndSplineSet
EndChar

StartChar: aring
Encoding: 229 229 92
Width: 574
Flags: MW
HStem: 0 107<269.333 307.667 269.333 313> 393 107<269.667 307.333> 570 76<283.333 296.667 283.333 307> 742 76<283.333 296.667>
VStem: 51 107<229.333 269.667 229.333 284> 162 80<693 695 686.333 711.667> 338 80<693 695 676.667 701.667> 421 106<229 269>
LayerCount: 2
Fore
SplineSet
290 570 m 0
 256 570 226.166992188 582.333007812 200.5 607 c 0
 174.833007812 631.666992188 162 660.333007812 162 693 c 2
 162 695 l 2
 162 728.333007812 174.833007812 757.166992188 200.5 781.5 c 0
 226.166992188 805.833007812 256 818 290 818 c 0
 324 818 353.833007812 805.833007812 379.5 781.5 c 0
 405.166992188 757.166992188 418 728.333007812 418 695 c 2
 418 693 l 2
 418 660.333007812 405.166992188 631.666992188 379.5 607 c 0
 353.833007812 582.333007812 324 570 290 570 c 0
290 646 m 0
 303.333007812 646 314.666992188 650.5 324 659.5 c 0
 333.333007812 668.5 338 679.666992188 338 693 c 2
 338 695 l 2
 338 708.333007812 333.333007812 719.5 324 728.5 c 0
 314.666992188 737.5 303.333007812 742 290 742 c 0
 276.666992188 742 265.333007812 737.5 256 728.5 c 0
 246.666992188 719.5 242 708.333007812 242 695 c 2
 242 693 l 2
 242 679.666992188 246.666992188 668.5 256 659.5 c 0
 265.333007812 650.5 276.666992188 646 290 646 c 0
119.5 73 m 0
 73.8330078125 121.666992188 51 180.5 51 249.5 c 0
 51 318.5 73.8330078125 377.5 119.5 426.5 c 0
 165.166992188 475.5 221.666992188 500 289 500 c 0
 336.333007812 500 380.666992188 485.333007812 422 456 c 1
 425.333007812 468.666992188 431.666992188 479.166992188 441 487.5 c 0
 450.333007812 495.833007812 461.833007812 500 475.5 500 c 0
 489.166992188 500 501.166992188 494.666992188 511.5 484 c 0
 521.833007812 473.333007812 527 460.666992188 527 446 c 2
 527 53 l 2
 527 38.3330078125 521.833007812 25.8330078125 511.5 15.5 c 0
 501.166992188 5.1669921875 489.166992188 0 475.5 0 c 0
 461.833007812 0 450.333007812 4 441 12 c 0
 431.666992188 20 425.333007812 30.3330078125 422 43 c 1
 381.333007812 14.3330078125 337 0 289 0 c 0
 221.666992188 0 165.166992188 24.3330078125 119.5 73 c 0
194.5 148 m 0
 218.833007812 120.666992188 250.166992188 107 288.5 107 c 0
 326.833007812 107 358.5 120.666992188 383.5 148 c 0
 408.5 175.333007812 421 209 421 249 c 0
 421 289 408.333007812 323 383 351 c 0
 357.666992188 379 326.166992188 393 288.5 393 c 0
 250.833007812 393 219.666992188 379.166992188 195 351.5 c 0
 170.333007812 323.833007812 158 289.833007812 158 249.5 c 0
 158 209.166992188 170.166992188 175.333007812 194.5 148 c 0
EndSplineSet
EndChar

StartChar: ae
Encoding: 230 230 93
Width: 954
Flags: W
HStem: 0 109<274.667 313.333 274.667 319> 218 87<572 856 567 897 572 572> 401 109<274.333 312.667> 413 97
VStem: 51 109<234 275 234 289.667>
LayerCount: 2
Fore
SplineSet
951 268 m 2xd8
 951 253.333007812 946 241.333007812 936 232 c 0
 926 222.666992188 913 218 897 218 c 2
 572 218 l 1
 578 189.333007812 589.666992188 167 607 151 c 1
 617.666992188 139 632.166992188 128.666992188 650.5 120 c 0
 668.833007812 111.333007812 687 106.333007812 705 105 c 0
 749.666992188 101.666992188 785 110.333007812 811 131 c 1
 821.666992188 141.666992188 835.333007812 147 852 147 c 0
 868.666992188 147 880.833007812 142.5 888.5 133.5 c 0
 906.4921875 112.37890625 906.325195312 90.2119140625 888 67 c 1
 839.333007812 22.3330078125 780.666992188 0 712 0 c 0
 643.333007812 0 585 22.3330078125 537 67 c 1
 537 54 l 2
 537 39.3330078125 531.666992188 26.6669921875 521 16 c 0
 510.333007812 5.3330078125 498 0 484 0 c 0
 470 0 458.333007812 4.1669921875 449 12.5 c 0
 439.666992188 20.8330078125 433.333007812 31.3330078125 430 44 c 1
 389.333007812 14.6669921875 344 0 294 0 c 0
 225.333007812 0 167.666992188 24.8330078125 121 74.5 c 0
 74.3330078125 124.166992188 51 184.166992188 51 254.5 c 0
 51 324.833007812 74.3330078125 385 121 435 c 0
 167.666992188 485 225.333007812 510 294 510 c 0xe8
 342 510 387.333007812 495.333007812 430 466 c 1
 433.333007812 478.666992188 439.666992188 489.166992188 449 497.5 c 0
 458.333007812 505.833007812 470 510 484 510 c 0
 498 510 510.333007812 504.666992188 521 494 c 0
 531.666992188 483.333007812 537 470.333007812 537 455 c 2
 537 443 l 1
 585 487.666992188 641.666992188 510 707 510 c 0
 772.333007812 510 828.333007812 487.666992188 875 443 c 0
 921.666992188 398.333007812 947 342 951 274 c 1
 951 268 l 2xd8
294 109 m 0
 332.666992188 109 364.833007812 123.166992188 390.5 151.5 c 0
 416.166992188 179.833007812 429 214.166992188 429 254.5 c 0
 429 294.833007812 416 329.333007812 390 358 c 0
 364 386.666992188 331.833007812 401 293.5 401 c 0
 255.166992188 401 223.333007812 386.833007812 198 358.5 c 0
 172.666992188 330.166992188 160 295.5 160 254.5 c 0
 160 213.5 172.666992188 179 198 151 c 0
 223.333007812 123 255.333007812 109 294 109 c 0
705 413 m 1
 665.666992188 411 634 398.833007812 610 376.5 c 0
 586 354.166992188 571.666992188 330.333007812 567 305 c 1
 856 305 l 1
 850 329 833.5 352.166992188 806.5 374.5 c 0
 779.5 396.833007812 745.666992188 409.666992188 705 413 c 1
EndSplineSet
EndChar

StartChar: sterling
Encoding: 163 163 94
Width: 644
Flags: W
HStem: 0 107<275 551 275 551> 278 104<110.667 150 118 150 275 477> 525 185<347 541.333> 596 114<366.667 403.333>
VStem: 66 209<37 278 107 336.667> 150 125<107 278 107 278 107 278 382 471>
LayerCount: 2
Fore
SplineSet
489 544 m 0xe4
 456.333007812 578.666992188 421.666992188 596 385 596 c 0
 348.333007812 596 320.833007812 584.666992188 302.5 562 c 0
 284.166992188 539.333007812 275 509 275 471 c 2
 275 382 l 1xd4
 477 382 l 2
 491 382 503.166992188 376.833007812 513.5 366.5 c 0
 523.833007812 356.166992188 529 343.833007812 529 329.5 c 0
 529 315.166992188 523.833007812 303 513.5 293 c 0
 503.166992188 283 491 278 477 278 c 2
 275 278 l 1
 275 107 l 1
 551 107 l 2
 566.333007812 107 579.166992188 101.833007812 589.5 91.5 c 0
 599.833007812 81.1669921875 605 68.5 605 53.5 c 0
 605 38.5 599.833007812 25.8330078125 589.5 15.5 c 0
 579.166992188 5.1669921875 566.333007812 0 551 0 c 2
 113 0 l 2
 99 0 87.6669921875 4.1669921875 79 12.5 c 0
 70.3330078125 20.8330078125 66 31 66 43 c 0xd8
 66 65 77 79.6669921875 99 87 c 2
 150 102 l 1
 150 278 l 1xd4
 118 278 l 2
 103.333007812 278 91 283 81 293 c 0
 71 303 66 315.166992188 66 329.5 c 0xd8
 66 343.833007812 71 356.166992188 81 366.5 c 0
 91 376.833007812 103.333007812 382 118 382 c 2
 150 382 l 1
 150 474 l 2
 150 547.333007812 170.166992188 605 210.5 647 c 0
 250.833007812 689 309 710 385 710 c 0
 461 710 524.333007812 683 575 629 c 0
 587.666992188 616.333007812 594 601.666992188 594 585 c 0
 594 568.333007812 588.166992188 554.166992188 576.5 542.5 c 0
 564.833007812 530.833007812 550.166992188 525 532.5 525 c 0
 514.833007812 525 500.333007812 531.333007812 489 544 c 0xe4
EndSplineSet
EndChar

StartChar: eth
Encoding: 240 240 95
Width: 628
Flags: W
HStem: -12 103<310 355 310 372.667> 397 89<305.667 313.667 256.667 351.333> 717 20G<489 496> 718 20G<318.333 335.667>
VStem: 58 119<225.333 268.667 225.333 282.667> 485 119<224 267>
LayerCount: 2
Fore
SplineSet
429 445 m 1xec
 325 588 l 1
 216 540 l 2
 210.666992188 538 203.833007812 537 195.5 537 c 0
 187.166992188 537 179.333007812 540.666992188 172 548 c 0
 164.666992188 555.333007812 161 564.333007812 161 575 c 0
 161 592.333007812 170 604.333007812 188 611 c 1
 279 651 l 1
 272.333007812 660.333007812 269 671.833007812 269 685.5 c 0
 269 699.166992188 274.333007812 711.333007812 285 722 c 0
 295.666992188 732.666992188 309.666992188 738 327 738 c 0xdc
 344.333007812 738 359.333007812 729 372 711 c 2
 383 695 l 1
 470 733 l 2
 478 735.666992188 485.5 737 492.5 737 c 0
 499.5 737 506.666992188 733.166992188 514 725.5 c 0
 521.333007812 717.833007812 525 708.666992188 525 698 c 0
 525 680.666992188 516.333007812 668.666992188 499 662 c 2
 427 631 l 1
 517 503 l 2
 547.666992188 458.333007812 569.833007812 417.333007812 583.5 380 c 0
 597.166992188 342.666992188 604 302.333007812 604 259 c 0
 604 183 578.833007812 118.833007812 528.5 66.5 c 0
 478.166992188 14.1669921875 412.833007812 -12 332.5 -12 c 0
 252.166992188 -12 186.333007812 13.3330078125 135 64 c 0
 83.6669921875 114.666992188 58 175.666992188 58 247 c 0
 58 318.333007812 80 376 124 420 c 0
 168 464 223.333007812 486 290 486 c 0
 337.333007812 486 383.666992188 472.333007812 429 445 c 1xec
442.5 136 m 0
 470.833007812 166 485 202.5 485 245.5 c 0
 485 288.5 470.333007812 324.5 441 353.5 c 0
 411.666992188 382.5 374.166992188 397 328.5 397 c 0
 282.833007812 397 246.166992188 382.833007812 218.5 354.5 c 0
 190.833007812 326.166992188 177 290.333007812 177 247 c 0
 177 203.666992188 191.666992188 166.833007812 221 136.5 c 0
 250.333007812 106.166992188 287.5 91 332.5 91 c 0
 377.5 91 414.166992188 106 442.5 136 c 0
EndSplineSet
EndChar

StartChar: divide
Encoding: 247 247 96
Width: 620
Flags: MW
HStem: 75 138<308.333 327.667> 300 104<108.667 520 116 520> 491 138<308.667 327.333 308.667 327.667>
VStem: 249 138<141 146 131.667 155.333 558 563>
LayerCount: 2
Fore
SplineSet
520 300 m 2
 116 300 l 2
 101.333007812 300 89 305.166992188 79 315.5 c 0
 69 325.833007812 64 338 64 352 c 0
 64 366 69 378.166992188 79 388.5 c 0
 89 398.833007812 101.333007812 404 116 404 c 2
 520 404 l 2
 534.666992188 404 547 398.833007812 557 388.5 c 0
 567 378.166992188 572 366 572 352 c 0
 572 338 567 325.833007812 557 315.5 c 0
 547 305.166992188 534.666992188 300 520 300 c 2
318 629 m 0
 336.666992188 629 352.833007812 622.5 366.5 609.5 c 0
 380.166992188 596.5 387 581 387 563 c 2
 387 558 l 2
 387 539.333007812 380.333007812 523.5 367 510.5 c 0
 353.666992188 497.5 337.333007812 491 318 491 c 0
 298.666992188 491 282.333007812 497.5 269 510.5 c 0
 255.666992188 523.5 249 539.333007812 249 558 c 2
 249 563 l 2
 249 581 255.833007812 596.5 269.5 609.5 c 0
 283.166992188 622.5 299.333007812 629 318 629 c 0
318 213 m 0
 337.333007812 213 353.666992188 206.5 367 193.5 c 0
 380.333007812 180.5 387 164.666992188 387 146 c 2
 387 141 l 2
 387 122.333007812 380.333007812 106.666992188 367 94 c 0
 353.666992188 81.3330078125 337.333007812 75 318 75 c 0
 298.666992188 75 282.333007812 81.3330078125 269 94 c 0
 255.666992188 106.666992188 249 122.333007812 249 141 c 2
 249 146 l 2
 249 164.666992188 255.666992188 180.5 269 193.5 c 0
 282.333007812 206.5 298.666992188 213 318 213 c 0
EndSplineSet
EndChar

StartChar: oslash
Encoding: 248 248 97
Width: 640
Flags: MW
HStem: 0 110<330 364 330 379.333> 403 110<315.667 349.333>
VStem: 95 110<246.333 277.333 246.333 291.667> 475 108<237 268>
LayerCount: 2
Fore
SplineSet
95 257 m 0
 95 326.333007812 118.833007812 386.333007812 166.5 437 c 0
 214.166992188 487.666992188 270.5 513 335.5 513 c 0
 400.5 513 455.333007812 491.666992188 500 449 c 1
 534 480 l 2
 545.333007812 489.333007812 557.833007812 495.333007812 571.5 498 c 0
 585.166992188 500.666992188 596 499.166992188 604 493.5 c 0
 612 487.833007812 615.166992188 479.666992188 613.5 469 c 0
 611.833007812 458.333007812 606 448 596 438 c 2
 546 393 l 1
 570.666992188 351.666992188 583 306.333007812 583 257 c 0
 583 184.333007812 559.333007812 124.333007812 512 77 c 1
 467.333007812 25.6669921875 412.166992188 0 346.5 0 c 0
 280.833007812 0 224.666992188 21.3330078125 178 64 c 1
 144 34 l 1
 117.333007812 12 94.3330078125 7.3330078125 75 20 c 0
 66.3330078125 26 62.8330078125 34.5 64.5 45.5 c 0
 66.1669921875 56.5 72.3330078125 67.3330078125 83 78 c 2
 132 121 l 1
 107.333007812 161 95 206.333007812 95 257 c 0
418 376 m 1
 394.666992188 394 366.166992188 403 332.5 403 c 0
 298.833007812 403 269.166992188 388.833007812 243.5 360.5 c 0
 217.833007812 332.166992188 205 297.666992188 205 257 c 0
 205 235.666992188 208.666992188 215.666992188 216 197 c 1
 418 376 l 1
259 137 m 1
 283.666992188 119 313 110 347 110 c 0
 381 110 410.833007812 124.5 436.5 153.5 c 0
 462.166992188 182.5 475 217 475 257 c 0
 475 279 471 299.666992188 463 319 c 1
 259 137 l 1
EndSplineSet
EndChar

StartChar: trademark
Encoding: 261 8482 98
Width: 690
Flags: W
HStem: 401 21G<133.667 140.333 331.333 337.667 540.667 547.333> 652 48<41.6665 228 45 113 160 228 160 160>
VStem: 22 138 113 47<424 652> 311 46<424 605> 520 48<424 605 605 605>
LayerCount: 2
Fore
SplineSet
251 677 m 0xec
 251 670.333007812 248.666992188 664.5 244 659.5 c 0
 239.333007812 654.5 234 652 228 652 c 2
 160 652 l 1
 160 424 l 2
 160 418 157.833007812 412.666992188 153.5 408 c 0
 149.166992188 403.333007812 143.666992188 401 137 401 c 0
 130.333007812 401 124.666992188 403.333007812 120 408 c 0
 115.333007812 412.666992188 113 418 113 424 c 2
 113 652 l 1xdc
 45 652 l 2
 38.3330078125 652 32.8330078125 654.5 28.5 659.5 c 0
 24.1669921875 664.5 22 670.333007812 22 677 c 0
 22 683.666992188 24.1669921875 689.166992188 28.5 693.5 c 0
 32.8330078125 697.833007812 38.3330078125 700 45 700 c 2
 228 700 l 2
 234 700 239.333007812 697.833007812 244 693.5 c 0
 248.666992188 689.166992188 251 683.666992188 251 677 c 0xec
459 519 m 2
 453.666992188 512.333007812 446.833007812 509 438.5 509 c 0
 430.166992188 509 423.666992188 512.333007812 419 519 c 2
 357 605 l 1
 357 424 l 2
 357 418 354.833007812 412.666992188 350.5 408 c 0
 346.166992188 403.333007812 340.833007812 401 334.5 401 c 0
 328.166992188 401 322.666992188 403.333007812 318 408 c 0
 313.333007812 412.666992188 311 418 311 424 c 2
 311 677 l 2
 311 683.666992188 313.333007812 689.166992188 318 693.5 c 0
 322.666992188 697.833007812 328 700 334 700 c 2
 336 700 l 2
 343.333007812 700 349.666992188 696.666992188 355 690 c 2
 439 572 l 1
 523 690 l 1
 529.666992188 696.666992188 536.333007812 700 543 700 c 2
 544 700 l 1
 560 698.666992188 568 691 568 677 c 2
 568 424 l 2
 568 418 565.666992188 412.666992188 561 408 c 0
 556.333007812 403.333007812 550.666992188 401 544 401 c 0
 537.333007812 401 531.666992188 403.333007812 527 408 c 0
 522.333007812 412.666992188 520 418 520 424 c 2
 520 605 l 1
 459 519 l 2
EndSplineSet
EndChar

StartChar: copyright
Encoding: 169 169 99
Width: 830
Flags: W
HStem: -12 36<368.667 460.333 368.667 464.333> 159 68<404.333 437.667 404.333 444.333> 441 110<390.667 537.333> 483 68<402.667 434.333> 676 36<369.667 461.333>
VStem: 53 38<348 350 303 399.667> 227 76<353 354 354 355 355 356 336.667 382.333> 739 38<350 352 300.333 397>
LayerCount: 2
Fore
SplineSet
414 -12 m 0xcf
 313.333007812 -12 228 23.1669921875 158 93.5 c 0
 88 163.833007812 53 248.666992188 53 348 c 2
 53 350 l 2
 53 449.333007812 88.3330078125 534.5 159 605.5 c 0
 229.666992188 676.5 315.333007812 712 416 712 c 0
 516.666992188 712 602 676.833007812 672 606.5 c 0
 742 536.166992188 777 451.333007812 777 352 c 2
 777 350 l 2
 777 250.666992188 741.666992188 165.5 671 94.5 c 0
 600.333007812 23.5 514.666992188 -12 414 -12 c 0xcf
184 118.5 m 0
 246 55.5 322.833007812 24 414.5 24 c 0
 506.166992188 24 583.166992188 55.8330078125 645.5 119.5 c 0
 707.833007812 183.166992188 739 260 739 350 c 2
 739 352 l 2
 739 442 708 518.5 646 581.5 c 0
 584 644.5 507.166992188 676 415.5 676 c 0
 323.833007812 676 246.833007812 644.166992188 184.5 580.5 c 0
 122.166992188 516.833007812 91 440 91 350 c 2
 91 348 l 2
 91 258 122 181.5 184 118.5 c 0
559 212 m 0
 518.333007812 176.666992188 471.166992188 159 417.5 159 c 0
 363.833007812 159 318.666992188 177.666992188 282 215 c 0
 245.333007812 252.333007812 227 298.333007812 227 353 c 2
 227 355 l 2
 227 409.666992188 245.333007812 456 282 494 c 0
 318.666992188 532 363.833007812 551 417.5 551 c 0
 471.166992188 551 515.666992188 536.666992188 551 508 c 1
 561.666992188 500.666992188 567 491.166992188 567 479.5 c 0
 567 467.833007812 563.5 458.5 556.5 451.5 c 0
 549.5 444.5 541.666992188 441 533 441 c 0xef
 524.333007812 441 515.666992188 444.333007812 507 451 c 0
 479.666992188 472.333007812 450.166992188 483 418.5 483 c 0xdf
 386.833007812 483 359.666992188 470.666992188 337 446 c 0
 314.333007812 421.333007812 303 391.333007812 303 356 c 2
 303 354 l 2
 303 319.333007812 314.333007812 289.5 337 264.5 c 0
 359.666992188 239.5 387.666992188 227 421 227 c 0
 454.333007812 227 485 239 513 263 c 0
 520.333007812 269 528.166992188 272 536.5 272 c 0
 544.833007812 272 552.5 268.5 559.5 261.5 c 0
 566.5 254.5 570 246 570 236 c 0
 570 226 566.333007812 218 559 212 c 0
EndSplineSet
EndChar

StartChar: registered
Encoding: 174 174 100
Width: 416
Flags: MW
HStem: 360 181<183.333 215 215 219 179 231.667> 690 20G<184.333 232.667>
VStem: 34 20<534 535 512.667 559> 146 33<445 509 541 601> 245 32<567.333 575.667> 362 20<535 536 511 557.333>
LayerCount: 2
Fore
SplineSet
331 411.5 m 0
 297 377.166992188 255.833007812 360 207.5 360 c 0
 159.166992188 360 118.166992188 377 84.5 411 c 0
 50.8330078125 445 34 486 34 534 c 2
 34 535 l 2
 34 583 51 624.166992188 85 658.5 c 0
 119 692.833007812 160.166992188 710 208.5 710 c 0
 256.833007812 710 297.833007812 693 331.5 659 c 0
 365.166992188 625 382 584 382 536 c 2
 382 535 l 2
 382 487 365 445.833007812 331 411.5 c 0
208 379 m 0
 251.333007812 379 287.833007812 394.333007812 317.5 425 c 0
 347.166992188 455.666992188 362 492.333007812 362 535 c 2
 362 536 l 2
 362 578.666992188 347.166992188 615.166992188 317.5 645.5 c 0
 287.833007812 675.833007812 251.333007812 691 208 691 c 0
 164.666992188 691 128.166992188 675.666992188 98.5 645 c 0
 68.8330078125 614.333007812 54 577.666992188 54 535 c 2
 54 534 l 2
 54 491.333007812 68.8330078125 454.833007812 98.5 424.5 c 0
 128.166992188 394.166992188 164.666992188 379 208 379 c 0
274 481 m 2
 275 463 l 1
 283 461.666992188 287 457 287 449 c 0
 287 440.333007812 282.333007812 434.833007812 273 432.5 c 0
 271.666992188 432.166992188 270.333007812 432 269 432 c 0
 251 432 242 448.333007812 242 481 c 1
 239.333007812 494.333007812 229.666992188 503.666992188 213 509 c 1
 179 509 l 1
 179 445 l 2
 179 440.333007812 177.333007812 436.5 174 433.5 c 0
 170.666992188 430.5 166.666992188 429 162 429 c 0
 151.333007812 429 146 434.333007812 146 445 c 2
 146 618 l 2
 146 628.666992188 151.333007812 634 162 634 c 2
 215 634 l 2
 232.333007812 634 247 627.833007812 259 615.5 c 0
 271 603.166992188 277 588 277 570 c 0
 277 552 269.333007812 536.333007812 254 523 c 1
 267.333007812 513 274 499 274 481 c 2
215 541 m 2
 223 541 230 544 236 550 c 0
 242 556 245 563.166992188 245 571.5 c 0
 245 579.833007812 242 586.833007812 236 592.5 c 0
 230 598.166992188 223 601 215 601 c 2
 179 601 l 1
 179 541 l 1
 215 541 l 2
EndSplineSet
EndChar

StartChar: exclamdown
Encoding: 161 161 101
Width: 252
Flags: MW
HStem: 0 21G<140.667 155.333> 570 130<140.667 155.333>
VStem: 93 109<55 459 625 645>
LayerCount: 2
Fore
SplineSet
148 514 m 0
 163.333007812 514 176.166992188 508.666992188 186.5 498 c 0
 196.833007812 487.333007812 202 474.333007812 202 459 c 2
 202 55 l 2
 202 39.6669921875 196.666992188 26.6669921875 186 16 c 0
 175.333007812 5.3330078125 162.666992188 0 148 0 c 0
 133.333007812 0 120.5 5.3330078125 109.5 16 c 0
 98.5 26.6669921875 93 39.6669921875 93 55 c 2
 93 459 l 2
 93 474.333007812 98.3330078125 487.333007812 109 498 c 0
 119.666992188 508.666992188 132.666992188 514 148 514 c 0
202 645 m 2
 202 625 l 2
 202 609.666992188 196.666992188 596.666992188 186 586 c 0
 175.333007812 575.333007812 162.666992188 570 148 570 c 0
 133.333007812 570 120.5 575.333007812 109.5 586 c 0
 98.5 596.666992188 93 609.666992188 93 625 c 2
 93 645 l 2
 93 660.333007812 98.3330078125 673.333007812 109 684 c 0
 119.666992188 694.666992188 132.666992188 700 148 700 c 0
 163.333007812 700 176.166992188 694.666992188 186.5 684 c 0
 196.833007812 673.333007812 202 660.333007812 202 645 c 2
EndSplineSet
EndChar

StartChar: cent
Encoding: 162 162 102
Width: 581
Flags: MW
HStem: -30 21G<154.667 177.333> 43 108<314.333 339.333 314.333 351.333>
VStem: 62 108<288.333 316.667 288.333 332>
LayerCount: 2
Fore
SplineSet
418 183 m 0
 429.333007812 192.333007812 442.333007812 196 457 194 c 0
 471.666992188 192 483.666992188 185.166992188 493 173.5 c 0
 502.333007812 161.833007812 506 148.666992188 504 134 c 0
 502 119.333007812 495.333007812 107 484 97 c 1
 434.666992188 61 380.666992188 43 322 43 c 0
 292 43 263.666992188 47.6669921875 237 57 c 1
 214 3 l 2
 204.666992188 -19 188.666992188 -30 166 -30 c 0
 143.333007812 -30 127 -21.6669921875 117 -5 c 0
 107 11.6669921875 105.666992188 28.6669921875 113 46 c 2
 142 115 l 1
 88.6669921875 165 62 225.5 62 296.5 c 0
 62 367.5 87.5 427.833007812 138.5 477.5 c 0
 189.5 527.166992188 250.666992188 552.333007812 322 553 c 2
 326 553 l 1
 358 629 l 2
 364 643 374 652.833007812 388 658.5 c 0
 402 664.166992188 416 664.166992188 430 658.5 c 0
 444 652.833007812 453.833007812 642.833007812 459.5 628.5 c 0
 465.166992188 614.166992188 465 600.333007812 459 587 c 2
 434 528 l 1
 454 518 470.166992188 508.166992188 482.5 498.5 c 0
 494.833007812 488.833007812 502 476.333007812 504 461 c 0
 506 445.666992188 502.333007812 432.166992188 493 420.5 c 0
 483.666992188 408.833007812 471.833007812 402.166992188 457.5 400.5 c 0
 443.166992188 398.833007812 431.666992188 401.333007812 423 408 c 0
 414.333007812 414.666992188 404 421.333007812 392 428 c 1
 279 157 l 1
 292.333007812 153 306.666992188 151 322 151 c 0
 356.666992188 151 388.666992188 161.666992188 418 183 c 0
200 384 m 0
 180 358 170 330.833007812 170 302.5 c 0
 170 274.166992188 176.333007812 249 189 227 c 1
 277 437 l 1
 245.666992188 427.666992188 220 410 200 384 c 0
EndSplineSet
EndChar

StartChar: germandbls
Encoding: 223 223 103
Width: 620
Flags: W
HStem: -5 21G<144 161> 634 103<307 339>
VStem: 93 120<54 502 502 506> 426 121<536 538 538 547 547 549 510.333 552.333> 467 121<165.333 201 165.333 226.667>
LayerCount: 2
Fore
SplineSet
308 47 m 0xe8
 308 72.3330078125 322.333007812 88.3330078125 351 95 c 1
 428.333007812 107 467 141.666992188 467 199 c 2
 467 201 l 2xe8
 467 252.333007812 428.666992188 287.666992188 352 307 c 1
 322.666992188 315.666992188 308 332.166992188 308 356.5 c 0
 308 380.833007812 316.666992188 398.666992188 334 410 c 1
 395.333007812 444 426 486 426 536 c 2
 426 538 l 2
 426 566.666992188 416.833007812 589.833007812 398.5 607.5 c 0
 380.166992188 625.166992188 355 634 323 634 c 0
 291 634 264.666992188 622.333007812 244 599 c 0
 223.333007812 575.666992188 213 544.666992188 213 506 c 2
 213 54 l 2
 213 37.3330078125 207.166992188 23.3330078125 195.5 12 c 0
 183.833007812 0.6669921875 169.5 -5 152.5 -5 c 0
 135.5 -5 121.333007812 0.6669921875 110 12 c 0
 98.6669921875 23.3330078125 93 37.3330078125 93 54 c 2
 93 502 l 2
 93 574.666992188 114.333007812 632 157 674 c 0
 199.666992188 716 255.833007812 737 325.5 737 c 0
 395.166992188 737 449.5 719.166992188 488.5 683.5 c 0
 527.5 647.833007812 547 603 547 549 c 2
 547 547 l 2xf0
 547 473.666992188 510 416.666992188 436 376 c 1
 537.333007812 342 588 282.666992188 588 198 c 2
 588 196 l 2
 588 134.666992188 565.833007812 86.5 521.5 51.5 c 0
 477.166992188 16.5 424.333007812 -1.6669921875 363 -3 c 0
 346.333007812 -3 333 1.6669921875 323 11 c 0
 313 20.3330078125 308 32.3330078125 308 47 c 0xe8
EndSplineSet
EndChar

StartChar: ellipsis
Encoding: 262 8230 104
Width: 680
Flags: MW
HStem: -7 149<145.667 166.333 432.667 453.333 719.667 740.333>
VStem: 82 149<56.6665 77.3335> 369 149<56.6665 77.3335> 656 149<56.6665 77.3335>
LayerCount: 2
Fore
SplineSet
82 67 m 0
 82 87.6669921875 89.1669921875 105.333007812 103.5 120 c 0
 117.833007812 134.666992188 135.333007812 142 156 142 c 0
 176.666992188 142 194.333007812 134.666992188 209 120 c 0
 223.666992188 105.333007812 231 87.6669921875 231 67 c 0
 231 46.3330078125 223.666992188 28.8330078125 209 14.5 c 0
 194.333007812 0.1669921875 176.666992188 -7 156 -7 c 0
 135.333007812 -7 117.833007812 0.1669921875 103.5 14.5 c 0
 89.1669921875 28.8330078125 82 46.3330078125 82 67 c 0
369 67 m 0
 369 87.6669921875 376.166992188 105.333007812 390.5 120 c 0
 404.833007812 134.666992188 422.333007812 142 443 142 c 0
 463.666992188 142 481.333007812 134.666992188 496 120 c 0
 510.666992188 105.333007812 518 87.6669921875 518 67 c 0
 518 46.3330078125 510.666992188 28.8330078125 496 14.5 c 0
 481.333007812 0.1669921875 463.666992188 -7 443 -7 c 0
 422.333007812 -7 404.833007812 0.1669921875 390.5 14.5 c 0
 376.166992188 28.8330078125 369 46.3330078125 369 67 c 0
656 67 m 0
 656 87.6669921875 663.166992188 105.333007812 677.5 120 c 0
 691.833007812 134.666992188 709.333007812 142 730 142 c 0
 750.666992188 142 768.333007812 134.666992188 783 120 c 0
 797.666992188 105.333007812 805 87.6669921875 805 67 c 0
 805 46.3330078125 797.666992188 28.8330078125 783 14.5 c 0
 768.333007812 0.1669921875 750.666992188 -7 730 -7 c 0
 709.333007812 -7 691.833007812 0.1669921875 677.5 14.5 c 0
 663.166992188 28.8330078125 656 46.3330078125 656 67 c 0
EndSplineSet
EndChar

StartChar: quotedblbase
Encoding: 263 8222 105
Width: 410
Flags: MW
HStem: -145 21G<74.6665 101.333 305.667 333> 123 20G<147.333 168.667 379 400>
VStem: 88 140<12.3335 76 12.3335 85.6665> 320 140<12 76 12 85.6665>
LayerCount: 2
Fore
SplineSet
54 -117 m 0
 54 -102.333007812 61.6669921875 -93.3330078125 77 -90 c 1
 124.333007812 -74.6669921875 147 -44.6669921875 145 0 c 1
 129 4.6669921875 115.5 13 104.5 25 c 0
 93.5 37 88 51.3330078125 88 68 c 2
 88 76 l 2
 88 95.3330078125 94.3330078125 111.333007812 107 124 c 0
 119.666992188 136.666992188 136.666992188 143 158 143 c 0
 179.333007812 143 196.333007812 135.166992188 209 119.5 c 0
 221.666992188 103.833007812 228 82.3330078125 228 55 c 2
 228 44 l 2
 228 -19.3330078125 211.666992188 -68 179 -102 c 1
 149 -130.666992188 117.666992188 -145 85 -145 c 0
 64.3330078125 -145 54 -135.666992188 54 -117 c 0
285 -117 m 0
 285 -102.333007812 293 -93.3330078125 309 -90 c 1
 356.333007812 -74.6669921875 379 -44.6669921875 377 0 c 1
 361 4.6669921875 347.5 13 336.5 25 c 0
 325.5 37 320 51.3330078125 320 68 c 2
 320 76 l 2
 320 95.3330078125 326.333007812 111.333007812 339 124 c 0
 351.666992188 136.666992188 368.5 143 389.5 143 c 0
 410.5 143 427.5 135 440.5 119 c 0
 453.5 103 460 81.6669921875 460 55 c 2
 460 44 l 2
 460 -20 444.5 -67.5 413.5 -98.5 c 0
 382.5 -129.5 350 -145 316 -145 c 0
 295.333007812 -145 285 -135.666992188 285 -117 c 0
EndSplineSet
EndChar

StartChar: oe
Encoding: 264 339 106
Width: 1055
Flags: W
HStem: -20 20G<694.333 752.667> -3 110<285 323 285 338.667> 218 87<583 867 578 908 583 583> 400 110<283.333 321.667> 413 97<716 716>
VStem: 58 110<233 274 233 288>
LayerCount: 2
Fore
SplineSet
962 268 m 2x2c
 962 253.333007812 957 241.333007812 947 232 c 0
 937 222.666992188 924 218 908 218 c 2
 583 218 l 1
 589 189.333007812 600.666992188 167 618 151 c 1
 628.666992188 139 643.166992188 128.666992188 661.5 120 c 0
 679.833007812 111.333007812 698 106.333007812 716 105 c 0
 760.666992188 101.666992188 796 110.333007812 822 131 c 1
 832.666992188 141.666992188 846.333007812 147 863 147 c 0
 879.666992188 147 891.833007812 142.5 899.5 133.5 c 0
 917.4921875 112.37890625 917.325195312 90.2119140625 899 67 c 1
 850.333007812 22.3330078125 789.333007812 0 716 0 c 0xac
 672.666992188 0 632.833007812 10.3330078125 596.5 31 c 0
 560.166992188 51.6669921875 530.666992188 79.6669921875 508 115 c 1
 497.333007812 99 486.333007812 85.3330078125 475 74 c 1
 430.333007812 22.6669921875 373.333007812 -3 304 -3 c 0
 234.666992188 -3 176.333007812 22.1669921875 129 72.5 c 0
 81.6669921875 122.833007812 58 183 58 253 c 0
 58 323 81.8330078125 383.333007812 129.5 434 c 0
 177.166992188 484.666992188 235 510 303 510 c 0x74
 345.666992188 510 385 499 421 477 c 0
 457 455 485.333007812 426.666992188 506 392 c 1
 528.666992188 428 558.333007812 456.666992188 595 478 c 0
 631.666992188 499.333007812 672 510 716 510 c 0
 782.666992188 510 839.333007812 487.666992188 886 443 c 0
 932.666992188 398.333007812 958 342 962 274 c 1
 962 268 l 2x2c
399 356.5 m 0
 373 385.5 340.833007812 400 302.5 400 c 0
 264.166992188 400 232.166992188 385.833007812 206.5 357.5 c 0
 180.833007812 329.166992188 168 294.5 168 253.5 c 0
 168 212.5 181 177 207 147 c 1
 233.666992188 120.333007812 266 107 304 107 c 0x74
 342 107 373.833007812 121.5 399.5 150.5 c 0
 425.166992188 179.5 438 213.833007812 438 253.5 c 0
 438 293.166992188 425 327.5 399 356.5 c 0
716 413 m 1x2c
 676.666992188 411 645 398.833007812 621 376.5 c 0
 597 354.166992188 582.666992188 330.333007812 578 305 c 1
 867 305 l 1
 861 329 844.5 352.166992188 817.5 374.5 c 0
 790.5 396.833007812 756.666992188 409.666992188 716 413 c 1x2c
EndSplineSet
EndChar

StartChar: bullet
Encoding: 265 8226 107
Width: 470
Flags: MW
HStem: 211 21G<233 272> 474 20G<233.333 271.667>
LayerCount: 2
Fore
SplineSet
352.5 252 m 0
 324.833007812 224.666992188 291.5 211 252.5 211 c 0
 213.5 211 180.166992188 224.666992188 152.5 252 c 0
 124.833007812 279.333007812 111 312.333007812 111 351 c 2
 111 353 l 2
 111 391.666992188 125 424.833007812 153 452.5 c 0
 181 480.166992188 214.166992188 494 252.5 494 c 0
 290.833007812 494 324 480.166992188 352 452.5 c 0
 380 424.833007812 394 391.666992188 394 353 c 2
 394 351 l 2
 394 312.333007812 380.166992188 279.333007812 352.5 252 c 0
EndSplineSet
EndChar

StartChar: endash
Encoding: 266 8211 108
Width: 528
Flags: MW
HStem: 249 115<115.333 435 123 435>
LayerCount: 2
Fore
SplineSet
123 249 m 2
 107.666992188 249 94.3330078125 254.666992188 83 266 c 0
 71.6669921875 277.333007812 66 290.833007812 66 306.5 c 0
 66 322.166992188 71.6669921875 335.666992188 83 347 c 0
 94.3330078125 358.333007812 107.666992188 364 123 364 c 2
 435 364 l 2
 450.333007812 364 463.666992188 358.333007812 475 347 c 0
 486.333007812 335.666992188 492 322.166992188 492 306.5 c 0
 492 290.833007812 486.333007812 277.333007812 475 266 c 0
 463.666992188 254.666992188 450.333007812 249 435 249 c 2
 123 249 l 2
EndSplineSet
EndChar

StartChar: tilde
Encoding: 267 732 109
Width: 500
Flags: W
HStem: 583 147<138.667 218.333> 595 95<357.667 364.667 349.667 380.333> 595 147<357.667 437.333> 635 55
LayerCount: 2
Fore
SplineSet
175 603 m 1x10
 166.333007812 589.666992188 156.166992188 583 144.5 583 c 0
 132.833007812 583 123.333007812 586.333007812 116 593 c 0
 108.666992188 599.666992188 105 606.666992188 105 614 c 0
 105 621.333007812 106.333007812 629.666992188 109 639 c 0
 120.333007812 669.666992188 133.833007812 692.5 149.5 707.5 c 0
 165.166992188 722.5 184.333007812 730 207 730 c 0x80
 229.666992188 730 257.333007812 723.333007812 290 710 c 0
 322.666992188 696.666992188 344.333007812 690 355 690 c 0x40
 374.333007812 690 389.666992188 700.666992188 401 722 c 1
 409.666992188 735.333007812 419.833007812 742 431.5 742 c 0x20
 443.166992188 742 452.666992188 738.666992188 460 732 c 0
 467.333007812 725.333007812 471 718.333007812 471 711 c 0
 471 703.666992188 469.666992188 695.333007812 467 686 c 0
 455.666992188 655.333007812 442.166992188 632.5 426.5 617.5 c 0
 410.833007812 602.5 391.666992188 595 369 595 c 0x40
 346.333007812 595 318.666992188 601.666992188 286 615 c 0
 253.333007812 628.333007812 231.666992188 635 221 635 c 0
 201.666992188 635 186.333007812 624.333007812 175 603 c 1x10
EndSplineSet
EndChar

StartChar: scaron
Encoding: 268 353 110
Width: 497
Flags: MW
HStem: 0 107<254 266.667 254 278> 394 106<239.333 263.667> 726 20G<135 158 378.333 401.667>
LayerCount: 2
Fore
SplineSet
218 719 m 2
 270 674 l 1
 322 719 l 2
 344 737 366.666992188 746 390 746 c 0
 413.333007812 746 425 739.333007812 425 726 c 0
 425 720.666992188 421 712.666992188 413 702 c 2
 347 619 l 2
 331.666992188 599.666992188 312.333007812 590 289 590 c 2
 253 590 l 2
 230.333007812 590 211 599.666992188 195 619 c 2
 129 702 l 2
 121 712.666992188 117 720.666992188 117 726 c 0
 117 739.333007812 126 746 144 746 c 0
 172 746 196.666992188 737 218 719 c 2
402 445 m 0
 414 437 421.5 425.833007812 424.5 411.5 c 0
 427.5 397.166992188 425.333007812 383.666992188 418 371 c 0
 410 359 398.833007812 351.5 384.5 348.5 c 0
 370.166992188 345.5 356.666992188 348.333007812 344 357 c 0
 306.666992188 381.666992188 275.833007812 394 251.5 394 c 0
 227.166992188 394 207.333007812 388 192 376 c 0
 181.333007812 368.666992188 176 362.166992188 176 356.5 c 0
 176 350.833007812 176.833007812 346.666992188 178.5 344 c 0
 180.166992188 341.333007812 183.666992188 338.333007812 189 335 c 0
 203.666992188 325 228 317 262 311 c 1
 263 310 l 1
 264 310 l 1
 299.333007812 303.333007812 331.666992188 293.333007812 361 280 c 0
 390.333007812 266.666992188 412 248.333007812 426 225 c 0
 440 201.666992188 447 178.666992188 447 156 c 0
 447 109.333007812 426 70.6669921875 384 40 c 1
 345.333007812 13.3330078125 302 0 254 0 c 0
 192 0.6669921875 132.666992188 23.6669921875 76 69 c 0
 65.3330078125 77.6669921875 59.1669921875 89.5 57.5 104.5 c 0
 55.8330078125 119.5 59.6669921875 132.333007812 69 143 c 1
 77.6669921875 155 89.6669921875 161.666992188 105 163 c 0
 120.333007812 164.333007812 133.333007812 160.333007812 144 151 c 0
 180 121 216.666992188 106.333007812 254 107 c 0
 279.333007812 107 302 113.333007812 322 126 c 1
 334 136 340 144.5 340 151.5 c 0
 340 158.5 339 163.333007812 337 166 c 0
 335.666992188 169.333007812 331.333007812 173.333007812 324 178 c 0
 308 189.333007812 281.333007812 198.666992188 244 206 c 1
 243 206 l 1
 207.666992188 212.666992188 176.833007812 222.333007812 150.5 235 c 0
 124.166992188 247.666992188 103 266 87 290 c 0
 75.6669921875 308.666992188 70 329.666992188 70 353 c 0
 70 396.333007812 89.6669921875 433 129 463 c 1
 165 487.666992188 206.166992188 500 252.5 500 c 0
 298.833007812 500 348.666992188 481.666992188 402 445 c 0
EndSplineSet
EndChar

StartChar: emdash
Encoding: 269 8212 111
Width: 898
Flags: MW
HStem: 249 115<115.333 805 123 805>
LayerCount: 2
Fore
SplineSet
123 249 m 2
 107.666992188 249 94.3330078125 254.666992188 83 266 c 0
 71.6669921875 277.333007812 66 290.833007812 66 306.5 c 0
 66 322.166992188 71.6669921875 335.666992188 83 347 c 0
 94.3330078125 358.333007812 107.666992188 364 123 364 c 2
 805 364 l 2
 820.333007812 364 833.666992188 358.333007812 845 347 c 0
 856.333007812 335.666992188 862 322.166992188 862 306.5 c 0
 862 290.833007812 856.333007812 277.333007812 845 266 c 0
 833.666992188 254.666992188 820.333007812 249 805 249 c 2
 123 249 l 2
EndSplineSet
EndChar

StartChar: guilsinglright
Encoding: 270 8250 112
Width: 311
Flags: MW
HStem: 42 21G<112.333 128.667> 466 20G<111.333 126.667>
LayerCount: 2
Fore
SplineSet
82 471.5 m 0
 91.3330078125 481.166992188 103.666992188 486 119 486 c 0
 134.333007812 486 147.666992188 478.666992188 159 464 c 2
 288 299 l 2
 298 285.666992188 303 273.833007812 303 263.5 c 0
 303 253.166992188 298 241.333007812 288 228 c 2
 162 66 l 2
 150.666992188 50 136.833007812 42 120.5 42 c 0
 104.166992188 42 91.3330078125 46.8330078125 82 56.5 c 0
 72.6669921875 66.1669921875 68 77.5 68 90.5 c 0
 68 103.5 72.6669921875 115.333007812 82 126 c 2
 187 262 l 1
 80 402 l 2
 71.3330078125 412.666992188 67.1669921875 424.5 67.5 437.5 c 0
 67.8330078125 450.5 72.6669921875 461.833007812 82 471.5 c 0
EndSplineSet
EndChar

StartChar: quotesinglbase
Encoding: 271 8218 113
Width: 230
Flags: MW
HStem: -145 21G<74.6665 101.333> 123 20G<147.333 168.667>
VStem: 88 140<12.3335 76 12.3335 85.6665>
LayerCount: 2
Fore
SplineSet
54 -117 m 0
 54 -102.333007812 61.6669921875 -93.3330078125 77 -90 c 1
 124.333007812 -74.6669921875 147 -44.6669921875 145 0 c 1
 129 4.6669921875 115.5 13 104.5 25 c 0
 93.5 37 88 51.3330078125 88 68 c 2
 88 76 l 2
 88 95.3330078125 94.3330078125 111.333007812 107 124 c 0
 119.666992188 136.666992188 136.666992188 143 158 143 c 0
 179.333007812 143 196.333007812 135.166992188 209 119.5 c 0
 221.666992188 103.833007812 228 82.3330078125 228 55 c 2
 228 44 l 2
 228 -19.3330078125 211.666992188 -68 179 -102 c 1
 149 -130.666992188 117.666992188 -145 85 -145 c 0
 64.3330078125 -145 54 -135.666992188 54 -117 c 0
EndSplineSet
EndChar

StartChar: ordfeminine
Encoding: 170 170 114
Width: 390
Flags: MW
HStem: 296 68<94.3335 317 99 317> 398 65<188.667 210.333 188.667 216.667> 636 65<190.333 213.667>
VStem: 58 65<537.333 561.667 537.333 570.333> 282 65<537 562>
LayerCount: 2
Fore
SplineSet
100 442.5 m 0
 72 472.166992188 58 507.833007812 58 549.5 c 0
 58 591.166992188 71.8330078125 626.833007812 99.5 656.5 c 0
 127.166992188 686.166992188 161.333007812 701 202 701 c 0
 231.333007812 701 258.333007812 692.333007812 283 675 c 1
 286.333007812 692.333007812 296.666992188 701 314 701 c 0
 323.333007812 701 331.166992188 697.833007812 337.5 691.5 c 0
 343.833007812 685.166992188 347 677.666992188 347 669 c 2
 347 431 l 2
 347 421.666992188 343.833007812 413.833007812 337.5 407.5 c 0
 331.166992188 401.166992188 323.666992188 398 315 398 c 0
 306.333007812 398 299.166992188 400.5 293.5 405.5 c 0
 287.833007812 410.5 284.333007812 417 283 425 c 1
 258.333007812 407 231.333007812 398 202 398 c 0
 162 398 128 412.833007812 100 442.5 c 0
145 611 m 0
 130.333007812 594.333007812 123 573.833007812 123 549.5 c 0
 123 525.166992188 130.333007812 504.666992188 145 488 c 0
 159.666992188 471.333007812 177.833007812 463 199.5 463 c 0
 221.166992188 463 241 470.666992188 259 486 c 1
 274.333007812 503.333007812 282 524.5 282 549.5 c 0
 282 574.5 274.5 595.166992188 259.5 611.5 c 0
 244.5 627.833007812 225.333007812 636 202 636 c 0
 178.666992188 636 159.666992188 627.666992188 145 611 c 0
99 296 m 2
 89.6669921875 296 81.6669921875 299.333007812 75 306 c 0
 68.3330078125 312.666992188 65 320.666992188 65 330 c 0
 65 339.333007812 68.3330078125 347.333007812 75 354 c 0
 81.6669921875 360.666992188 89.6669921875 364 99 364 c 2
 317 364 l 2
 326.333007812 364 334.166992188 360.666992188 340.5 354 c 0
 346.833007812 347.333007812 350 339.333007812 350 330 c 0
 350 320.666992188 346.833007812 312.666992188 340.5 306 c 0
 334.166992188 299.333007812 326.333007812 296 317 296 c 2
 99 296 l 2
EndSplineSet
EndChar

StartChar: guillemotleft
Encoding: 171 171 115
Width: 515
Flags: MW
HStem: 42 21G 466 20G<229.667 245.333 480.333 496.667>
LayerCount: 2
Fore
SplineSet
527 56.5 m 0
 517.666992188 46.8330078125 505.166992188 42 489.5 42 c 0
 473.833007812 42 460.666992188 49 450 63 c 2
 321 229 l 2
 311 242.333007812 306 254.333007812 306 265 c 0
 306 275.666992188 311 287 321 299 c 2
 447 462 l 2
 458.333007812 478 472.166992188 486 488.5 486 c 0
 504.833007812 486 517.666992188 481.166992188 527 471.5 c 0
 536.333007812 461.833007812 541 450.5 541 437.5 c 0
 541 424.5 536.333007812 412.666992188 527 402 c 2
 422 265 l 1
 529 125 l 2
 537.666992188 114.333007812 541.833007812 102.666992188 541.5 90 c 0
 541.166992188 77.3330078125 536.333007812 66.1669921875 527 56.5 c 0
275.5 56.5 m 0
 265.833007812 46.8330078125 253.166992188 42 237.5 42 c 0
 221.833007812 42 208.666992188 49 198 63 c 2
 69 229 l 2
 59.6669921875 241.666992188 55 253.666992188 55 265 c 0
 55 276.333007812 59.6669921875 287.666992188 69 299 c 2
 195 462 l 2
 207.666992188 478 221.833007812 486 237.5 486 c 0
 253.166992188 486 265.666992188 481 275 471 c 0
 284.333007812 461 289 449.833007812 289 437.5 c 0
 289 425.166992188 284.666992188 413.333007812 276 402 c 2
 170 265 l 1
 278 125 l 2
 286 115 290 103.5 290 90.5 c 0
 290 77.5 285.166992188 66.1669921875 275.5 56.5 c 0
EndSplineSet
EndChar

StartChar: degree
Encoding: 176 176 116
Width: 450
Flags: MW
HStem: 381 66<227.667 254.333 227.667 263> 640 66<227 254>
VStem: 74 72<543 545 530 566.667> 335 72<543 545 521.333 558>
LayerCount: 2
Fore
SplineSet
241 381 m 0
 197 381 158.166992188 397.166992188 124.5 429.5 c 0
 90.8330078125 461.833007812 74 499.666992188 74 543 c 2
 74 545 l 2
 74 588.333007812 90.8330078125 626 124.5 658 c 0
 158.166992188 690 197 706 241 706 c 0
 285 706 323.666992188 690 357 658 c 0
 390.333007812 626 407 588.333007812 407 545 c 2
 407 543 l 2
 407 499.666992188 390.333007812 461.833007812 357 429.5 c 0
 323.666992188 397.166992188 285 381 241 381 c 0
241 447 m 0
 267.666992188 447 290 456.5 308 475.5 c 0
 326 494.5 335 517 335 543 c 2
 335 545 l 2
 335 571 326 593.333007812 308 612 c 0
 290 630.666992188 267.5 640 240.5 640 c 0
 213.5 640 191 630.666992188 173 612 c 0
 155 593.333007812 146 571 146 545 c 2
 146 543 l 2
 146 517 155.166992188 494.5 173.5 475.5 c 0
 191.833007812 456.5 214.333007812 447 241 447 c 0
EndSplineSet
EndChar

StartChar: braceleft
Encoding: 123 123 117
Width: 480
Flags: MW
HStem: 239 96<106 106>
VStem: 198 112<58 59>
LayerCount: 2
Fore
SplineSet
312 150 m 1
 310 76 l 2
 310 40 317 13 331 -5 c 0
 345 -23 375 -39 421 -53 c 0
 439.666992188 -59 449 -71 449 -89 c 0
 449 -107 443.666992188 -120 433 -128 c 0
 422.333007812 -136 409.333007812 -138.333007812 394 -135 c 0
 320 -119 268.833007812 -95.6669921875 240.5 -65 c 0
 212.166992188 -34.3330078125 198 7 198 59 c 1
 200 131 l 1
 200 167.666992188 192.666992188 194.666992188 178 212 c 0
 163.333007812 229.333007812 139.333007812 238.333007812 106 239 c 0
 90 239.666992188 77.5 244.5 68.5 253.5 c 0
 59.5 262.5 55 273.666992188 55 287 c 0
 55 300.333007812 59.5 311.5 68.5 320.5 c 0
 77.5 329.5 90 334.333007812 106 335 c 0
 140 336.333007812 164.166992188 345.5 178.5 362.5 c 0
 192.833007812 379.5 200 406.666992188 200 444 c 1
 198 516 l 1
 198 567.333007812 212.166992188 608.333007812 240.5 639 c 0
 268.833007812 669.666992188 320 693 394 709 c 0
 409.333007812 712.333007812 422.333007812 710 433 702 c 0
 443.666992188 694 449 681 449 663 c 0
 449 645 439.666992188 633 421 627 c 0
 375 613 345 597 331 579 c 0
 317 561 310 534 310 498 c 2
 312 424 l 1
 312 386.666992188 303.333007812 357.333007812 286 336 c 0
 268.666992188 314.666992188 242.666992188 298.333007812 208 287 c 1
 243.333007812 275.666992188 269.5 259.333007812 286.5 238 c 0
 303.5 216.666992188 312 187.333007812 312 150 c 1
EndSplineSet
EndChar

StartChar: braceright
Encoding: 125 125 118
Width: 480
Flags: MW
HStem: 239 96<397 397>
VStem: 192 112<58 59 33 76>
LayerCount: 2
Fore
SplineSet
190 424 m 1
 192 498 l 2
 192 534 185.166992188 561 171.5 579 c 0
 157.833007812 597 128 613 82 627 c 0
 62.6669921875 633 53 645 53 663 c 0
 53 681 58.3330078125 694 69 702 c 0
 79.6669921875 710 92.6669921875 712.333007812 108 709 c 0
 182 693 233.166992188 669.666992188 261.5 639 c 0
 289.833007812 608.333007812 304 567.333007812 304 516 c 1
 302 444 l 1
 302 406.666992188 309.333007812 379.5 324 362.5 c 0
 338.666992188 345.5 363 336.333007812 397 335 c 0
 412.333007812 334.333007812 424.5 329.5 433.5 320.5 c 0
 442.5 311.5 447 300.333007812 447 287 c 0
 447 273.666992188 442.5 262.5 433.5 253.5 c 0
 424.5 244.5 412.333007812 239.666992188 397 239 c 0
 363 238.333007812 338.666992188 229.333007812 324 212 c 0
 309.333007812 194.666992188 302 167.666992188 302 131 c 1
 304 59 l 1
 304 7 289.833007812 -34.3330078125 261.5 -65 c 0
 233.166992188 -95.6669921875 182 -119 108 -135 c 0
 92.6669921875 -138.333007812 79.6669921875 -136 69 -128 c 0
 58.3330078125 -120 53 -107 53 -89 c 0
 53 -71 62.6669921875 -59 82 -53 c 0
 128 -39 157.833007812 -23 171.5 -5 c 0
 185.166992188 13 192 40 192 76 c 2
 190 150 l 1
 190 187.333007812 198.666992188 216.666992188 216 238 c 0
 233.333007812 259.333007812 259.333007812 275.666992188 294 287 c 1
 258.666992188 298.333007812 232.5 314.666992188 215.5 336 c 0
 198.5 357.333007812 190 386.666992188 190 424 c 1
EndSplineSet
EndChar

StartChar: asciitilde
Encoding: 126 126 119
Width: 460
Flags: W
HStem: 227 147<119 198> 239 96<337 344 329 360> 239 148<337 416> 279 56
LayerCount: 2
Fore
SplineSet
154 247 m 0x10
 146.666992188 233.666992188 137 227 125 227 c 0
 113 227 103.333007812 230.333007812 96 237 c 0
 88.6669921875 243.666992188 85 251.666992188 85 261 c 0
 85 270.333007812 86.3330078125 277.666992188 89 283 c 0
 100.333007812 313.666992188 113.666992188 336.5 129 351.5 c 0
 144.333007812 366.5 163.5 374 186.5 374 c 0x80
 209.5 374 237.333007812 367.5 270 354.5 c 0
 302.666992188 341.5 324 335 334 335 c 0x40
 354 335 368.666992188 343.666992188 378 361 c 0
 387.333007812 378.333007812 398 387 410 387 c 0x20
 422 387 431.666992188 383.5 439 376.5 c 0
 446.333007812 369.5 450 361.5 450 352.5 c 0
 450 343.5 448.666992188 336 446 330 c 0
 434.666992188 299.333007812 421.333007812 276.5 406 261.5 c 0
 390.666992188 246.5 371.5 239 348.5 239 c 0x40
 325.5 239 297.666992188 245.666992188 265 259 c 0
 232.333007812 272.333007812 211 279 201 279 c 0
 181 279 165.333007812 268.333007812 154 247 c 0x10
EndSplineSet
EndChar

StartChar: bar
Encoding: 124 124 120
Width: 286
Flags: MW
HStem: -133 21G<162.333 175.667> 783 20G<162.333 175.667>
VStem: 121 97<-85 755>
LayerCount: 2
Fore
SplineSet
121 -85 m 2
 121 755 l 2
 121 768.333007812 125.666992188 779.666992188 135 789 c 0
 144.333007812 798.333007812 155.666992188 803 169 803 c 0
 182.333007812 803 193.833007812 798.333007812 203.5 789 c 0
 213.166992188 779.666992188 218 768.333007812 218 755 c 2
 218 -85 l 2
 218 -98.3330078125 213.166992188 -109.666992188 203.5 -119 c 0
 193.833007812 -128.333007812 182.333007812 -133 169 -133 c 0
 155.666992188 -133 144.333007812 -128.333007812 135 -119 c 0
 125.666992188 -109.666992188 121 -98.3330078125 121 -85 c 2
EndSplineSet
EndChar

StartChar: florin
Encoding: 272 402 121
Width: 506
Flags: MW
HStem: -7 21G<111 144.667> 356 101<163 221 170 204 344 425> 604 102<387.667 437>
LayerCount: 2
Fore
SplineSet
461 602 m 1
 437 604 l 1
 413.666992188 604 395.5 597.833007812 382.5 585.5 c 0
 369.5 573.166992188 360.666992188 553.333007812 356 526 c 2
 344 457 l 1
 425 457 l 2
 439.666992188 457 451.833007812 452 461.5 442 c 0
 471.166992188 432 476 420 476 406 c 0
 476 392 471.166992188 380.166992188 461.5 370.5 c 0
 451.833007812 360.833007812 439.666992188 356 425 356 c 2
 326 356 l 1
 288 143 l 2
 278.666992188 90.3330078125 260.333007812 52.1669921875 233 28.5 c 0
 205.666992188 4.8330078125 168.333007812 -7 121 -7 c 0
 101 -7 85.1669921875 -2.3330078125 73.5 7 c 0
 61.8330078125 16.3330078125 56 28.1669921875 56 42.5 c 0
 56 56.8330078125 60.6669921875 68.8330078125 70 78.5 c 0
 79.3330078125 88.1669921875 91.3330078125 93.3330078125 106 94 c 0
 140.666992188 96.6669921875 161.666992188 119 169 161 c 2
 204 356 l 1
 170 356 l 2
 156 356 144 360.833007812 134 370.5 c 0
 124 380.166992188 119 392 119 406 c 0
 119 420 124 432 134 442 c 0
 144 452 156 457 170 457 c 2
 221 457 l 1
 239 551 l 2
 249 603 267.5 641.833007812 294.5 667.5 c 0
 321.5 693.166992188 361.333007812 706 414 706 c 0
 431.333007812 706 447.5 705.166992188 462.5 703.5 c 0
 477.5 701.833007812 489.333007812 696.166992188 498 686.5 c 0
 506.666992188 676.833007812 511 665.166992188 511 651.5 c 0
 511 637.833007812 506.166992188 626.166992188 496.5 616.5 c 0
 486.833007812 606.833007812 475 602 461 602 c 1
EndSplineSet
EndChar

StartChar: questiondown
Encoding: 191 191 123
Width: 534
Flags: MW
HStem: 0 98<228 262.667 225.667 276> 322 206<240.667 254.333 240.667 262.667> 584 116<240.667 254.333>
VStem: 198 98<364.667 479 414 479 414 479 414 486 633 651> 361 97<194 225>
LayerCount: 2
Fore
SplineSet
282 598.5 m 0
 272.666992188 588.833007812 261.166992188 584 247.5 584 c 0
 233.833007812 584 222.166992188 588.833007812 212.5 598.5 c 0
 202.833007812 608.166992188 198 619.666992188 198 633 c 2
 198 651 l 2
 198 665 202.833007812 676.666992188 212.5 686 c 0
 222.166992188 695.333007812 233.833007812 700 247.5 700 c 0
 261.166992188 700 272.666992188 695.333007812 282 686 c 0
 291.333007812 676.666992188 296 665 296 651 c 2
 296 633 l 2
 296 619.666992188 291.333007812 608.166992188 282 598.5 c 0
412 340.5 m 0
 442.666992188 302.833007812 458 257.166992188 458 203.5 c 0
 458 149.833007812 437.333007812 102.5 396 61.5 c 0
 354.666992188 20.5 305 0 247 0 c 0
 209 0 173.833007812 9.5 141.5 28.5 c 0
 109.166992188 47.5 84 72.6669921875 66 104 c 0
 59.3330078125 116 57.6669921875 128.333007812 61 141 c 0
 64.3330078125 153.666992188 71.6669921875 163.666992188 83 171 c 0
 95 177.666992188 107.5 179.333007812 120.5 176 c 0
 133.5 172.666992188 143.666992188 165 151 153 c 0
 172.333007812 116.333007812 204.333007812 98 247 98 c 0
 278.333007812 98 305.166992188 108.833007812 327.5 130.5 c 0
 349.833007812 152.166992188 361 178.5 361 209.5 c 0
 361 240.5 349.833007812 267 327.5 289 c 0
 305.166992188 311 278.333007812 322 247 322 c 0
 234.333007812 322 223 327 213 337 c 0
 203 347 198 358.333007812 198 371 c 0
 198 371.666992188 198.166992188 372.333007812 198.5 373 c 0
 198.833007812 373.666992188 198.833007812 374 198.5 374 c 0
 198.166992188 374 198 374.333007812 198 375 c 2
 198 479 l 2
 198 493 202.833007812 504.666992188 212.5 514 c 0
 222.166992188 523.333007812 233.833007812 528 247.5 528 c 0
 261.166992188 528 272.666992188 523.333007812 282 514 c 0
 291.333007812 504.666992188 296 493 296 479 c 2
 296 414 l 1
 342.666992188 402.666992188 381.333007812 378.166992188 412 340.5 c 0
EndSplineSet
EndChar

StartChar: Atilde
Encoding: 195 195 124
Width: 664
Flags: W
HStem: 0 21G<110 133 547 570> 165 110<259 421 259 462 219 421> 783 147<191.667 271.333> 795 95<410.667 417.667 402.667 433.333> 795 147<410.667 490.333> 835 55
LayerCount: 2
Fore
SplineSet
511 35 m 2xc0
 462 165 l 1
 219 165 l 1
 170 35 l 2
 160.666992188 11.6669921875 144.5 0 121.5 0 c 0
 98.5 0 82 8.1669921875 72 24.5 c 0
 62 40.8330078125 60 57.6669921875 66 75 c 2
 287 664 l 2
 291.666992188 674.666992188 298.833007812 683.333007812 308.5 690 c 0
 318.166992188 696.666992188 328.666992188 699.666992188 340 699 c 1
 365.333007812 700.333007812 383 688.666992188 393 664 c 2
 614 75 l 2
 620 57.6669921875 618 40.8330078125 608 24.5 c 0
 598 8.1669921875 581.5 0 558.5 0 c 0
 535.5 0 519.666992188 11.6669921875 511 35 c 2xc0
259 275 m 1
 421 275 l 1
 340 490 l 1
 259 275 l 1
228 803 m 1
 219.333007812 789.666992188 209.166992188 783 197.5 783 c 0
 185.833007812 783 176.333007812 786.333007812 169 793 c 0
 161.666992188 799.666992188 158 806.666992188 158 814 c 0
 158 821.333007812 159.333007812 829.666992188 162 839 c 0
 173.333007812 869.666992188 186.833007812 892.5 202.5 907.5 c 0
 218.166992188 922.5 237.333007812 930 260 930 c 0xe0
 282.666992188 930 310.333007812 923.333007812 343 910 c 0
 375.666992188 896.666992188 397.333007812 890 408 890 c 0xd0
 427.333007812 890 442.666992188 900.666992188 454 922 c 1
 462.666992188 935.333007812 472.833007812 942 484.5 942 c 0xc8
 496.166992188 942 505.666992188 938.666992188 513 932 c 0
 520.333007812 925.333007812 524 918.333007812 524 911 c 0
 524 903.666992188 522.666992188 895.333007812 520 886 c 0
 508.666992188 855.333007812 495.166992188 832.5 479.5 817.5 c 0
 463.833007812 802.5 444.666992188 795 422 795 c 0xd0
 399.333007812 795 371.666992188 801.666992188 339 815 c 0
 306.333007812 828.333007812 284.666992188 835 274 835 c 0xc4
 254.666992188 835 239.333007812 824.333007812 228 803 c 1
EndSplineSet
EndChar

StartChar: AE
Encoding: 198 198 125
Width: 1045
Flags: W
HStem: -6 21G<81.3335 100.333> 0 110<541.333 940 611 940 611 940> 169 109<287 488 287 488 224 488> 298 110<611 890 611 890> 590 110<611 935 611 611>
VStem: 488 123<110 169 169 169 278 298 408 590>
LayerCount: 2
Fore
SplineSet
50.5 8.5 m 0xbc
 40.1669921875 18.1669921875 35 30 35 44 c 0
 35 58 38.3330078125 70 45 80 c 2
 382 657 l 2
 398 685.666992188 422 700 454 700 c 2
 935 700 l 2
 950.333007812 700 963.333007812 694.666992188 974 684 c 0
 984.666992188 673.333007812 990 660.333007812 990 645 c 0
 990 629.666992188 984.666992188 616.666992188 974 606 c 0
 963.333007812 595.333007812 950.333007812 590 935 590 c 2
 611 590 l 1
 611 408 l 1
 890 408 l 2
 905.333007812 408 918.333007812 402.5 929 391.5 c 0
 939.666992188 380.5 945 367.5 945 352.5 c 0
 945 337.5 939.666992188 324.666992188 929 314 c 0
 918.333007812 303.333007812 905.333007812 298 890 298 c 2
 611 298 l 1
 611 110 l 1
 940 110 l 2
 954.666992188 110 967.5 104.666992188 978.5 94 c 0
 989.5 83.3330078125 995 70.3330078125 995 55 c 0
 995 39.6669921875 989.666992188 26.6669921875 979 16 c 0
 968.333007812 5.3330078125 955.333007812 0 940 0 c 2
 550 0 l 2x7c
 532.666992188 0 518 6 506 18 c 0
 494 30 488 44.6669921875 488 62 c 2
 488 169 l 1
 224 169 l 1
 143 28 l 2
 129.666992188 5.3330078125 111.666992188 -6 89 -6 c 0
 73.6669921875 -6 60.8330078125 -1.1669921875 50.5 8.5 c 0xbc
287 278 m 1
 488 278 l 1
 488 593 l 1
 468 593 l 1
 287 278 l 1
EndSplineSet
EndChar

StartChar: Eth
Encoding: 208 208 127
Width: 812
Flags: W
HStem: 0 111<198.333 324 262 324 262 324> 293 119<106 151 114 151 114 262 262 302> 589 111<262 262 262 324>
VStem: 55 207<111 360.667> 151 111<111 293 111 293 111 293 412 589> 151 210<55 360.667 293 360.667 344.333 645> 562 111<317 383>
LayerCount: 2
Fore
SplineSet
114 293 m 2xea
 98 293 84.1669921875 298.833007812 72.5 310.5 c 0
 60.8330078125 322.166992188 55 336.166992188 55 352.5 c 0xf2
 55 368.833007812 60.8330078125 382.833007812 72.5 394.5 c 0
 84.1669921875 406.166992188 98 412 114 412 c 2
 151 412 l 1xea
 151 645 l 2
 151 660.333007812 156.333007812 673.333007812 167 684 c 0
 177.666992188 694.666992188 190.666992188 700 206 700 c 2
 324 700 l 2
 420.666992188 700 503 665.833007812 571 597.5 c 0
 639 529.166992188 673 446.666992188 673 350 c 0
 673 253.333007812 639 170.833007812 571 102.5 c 0
 503 34.1669921875 420.666992188 0 324 0 c 2
 206 0 l 2
 190.666992188 0 177.666992188 5.3330078125 167 16 c 0
 156.333007812 26.6669921875 151 39.6669921875 151 55 c 2xe6
 151 293 l 1
 114 293 l 2xea
262 589 m 1
 262 412 l 1xea
 302 412 l 2
 318 412 331.833007812 406.166992188 343.5 394.5 c 0
 355.166992188 382.833007812 361 368.833007812 361 352.5 c 0xe6
 361 336.166992188 355.166992188 322.166992188 343.5 310.5 c 0
 331.833007812 298.833007812 318 293 302 293 c 2
 262 293 l 1
 262 111 l 1xf2
 324 111 l 2
 390 111.666992188 446.166992188 135.166992188 492.5 181.5 c 0
 538.833007812 227.833007812 562 284 562 350 c 0
 562 416 538.833007812 472.333007812 492.5 519 c 0
 446.166992188 565.666992188 390 589 324 589 c 2
 262 589 l 1
EndSplineSet
EndChar

StartChar: multiply
Encoding: 215 215 128
Width: 620
Flags: MW
HStem: 131 21G<145.333 160.667 480.667 495.333> 553 20G<147 162 481.333 496.667>
LayerCount: 2
Fore
SplineSet
524 481 m 2
 394 353 l 1
 525 225 l 2
 536.333007812 213.666992188 542 200.333007812 542 185 c 0
 542 169.666992188 536.666992188 156.833007812 526 146.5 c 0
 515.333007812 136.166992188 502.666992188 131 488 131 c 0
 473.333007812 131 460 136.333007812 448 147 c 1
 320 279 l 1
 191 148 l 2
 181 136.666992188 168.333007812 131 153 131 c 0
 137.666992188 131 125 136 115 146 c 0
 105 156 100 168.666992188 100 184 c 0
 100 199.333007812 106 212.333007812 118 223 c 2
 248 351 l 1
 116 479 l 1
 105.333007812 491 100 504.5 100 519.5 c 0
 100 534.5 105.333007812 547.166992188 116 557.5 c 0
 126.666992188 567.833007812 139.5 573 154.5 573 c 0
 169.5 573 182.666992188 567.333007812 194 556 c 2
 322 425 l 1
 451 556 l 2
 461 567.333007812 473.666992188 573 489 573 c 0
 504.333007812 573 517 567.833007812 527 557.5 c 0
 537 547.166992188 542 534.5 542 519.5 c 0
 542 504.5 536 491.666992188 524 481 c 2
EndSplineSet
EndChar

StartChar: Oslash
Encoding: 216 216 129
Width: 850
Flags: MW
HStem: -12 111<414 474.333 414 491> 601 111<403.667 463.667>
VStem: 73 127<348 350 350 352 323.667 400> 678 127<348 350 350 352 300 375.667>
LayerCount: 2
Fore
SplineSet
438 -12 m 0
 355.333007812 -12 282.666992188 10.3330078125 220 55 c 1
 172 7 l 2
 162 -4.3330078125 150 -10 136 -10 c 0
 122 -10 111 -6.1669921875 103 1.5 c 0
 95 9.1669921875 91 19.1669921875 91 31.5 c 0
 91 43.8330078125 96.6669921875 55.6669921875 108 67 c 2
 155 116 l 1
 100.333007812 182 73 259.333007812 73 348 c 2
 73 350 l 2
 73 450 107.666992188 535.333007812 177 606 c 0
 246.333007812 676.666992188 334 712 440 712 c 0
 523.333007812 712 596 689.333007812 658 644 c 1
 706 693 l 2
 717.333007812 704.333007812 729.5 710 742.5 710 c 0
 755.5 710 766.166992188 706.166992188 774.5 698.5 c 0
 782.833007812 690.833007812 787 680.833007812 787 668.5 c 0
 787 656.166992188 781.333007812 644.333007812 770 633 c 2
 723 584 l 1
 777.666992188 518 805 440.666992188 805 352 c 2
 805 350 l 2
 805 250 770.333007812 164.666992188 701 94 c 0
 631.666992188 23.3330078125 544 -12 438 -12 c 0
200 350 m 2
 200 297.333007812 214 249.666992188 242 207 c 1
 576 556 l 1
 535.333007812 586 489.333007812 601 438 601 c 0
 369.333007812 601 312.5 576.833007812 267.5 528.5 c 0
 222.5 480.166992188 200 421.333007812 200 352 c 2
 200 350 l 2
440 99 m 0
 508.666992188 99 565.5 123.166992188 610.5 171.5 c 0
 655.5 219.833007812 678 278.666992188 678 348 c 2
 678 350 l 2
 678 401.333007812 664 449 636 493 c 1
 301 143 l 1
 341.666992188 113.666992188 388 99 440 99 c 0
EndSplineSet
EndChar

StartChar: asciicircum
Encoding: 94 94 130
Width: 500
Flags: MW
HStem: 488 21G<96.6665 113.333 391 408> 684 20G<248 257 257 268.667>
LayerCount: 2
Fore
SplineSet
252 625 m 1
 180 532 l 2
 166.666992188 514.666992188 155 503 145 497 c 0
 135 491 121.666992188 488 105 488 c 0
 88.3330078125 488 80 494.666992188 80 508 c 0
 80 517 84 527 92 538 c 2
 187 668 l 2
 203.666992188 692 224 704 248 704 c 2
 257 704 l 2
 280.333007812 704 301 692 319 668 c 2
 414 538 l 2
 421.333007812 526.666992188 425 516.666992188 425 508 c 0
 425 494.666992188 416.5 488 399.5 488 c 0
 382.5 488 369 491 359 497 c 0
 349 503 337.333007812 514.666992188 324 532 c 2
 252 625 l 1
EndSplineSet
EndChar

StartChar: underscore
Encoding: 95 95 131
Width: 600
Flags: MW
HStem: -160 94<16.6665 627 23 627>
LayerCount: 2
Fore
SplineSet
23 -160 m 2
 10.3330078125 -160 -0.6669921875 -155.333007812 -10 -146 c 0
 -19.3330078125 -136.666992188 -24 -125.666992188 -24 -113 c 0
 -24 -100.333007812 -19.3330078125 -89.3330078125 -10 -80 c 0
 -0.6669921875 -70.6669921875 10.3330078125 -66 23 -66 c 2
 627 -66 l 2
 639.666992188 -66 650.666992188 -70.6669921875 660 -80 c 0
 669.333007812 -89.3330078125 674 -100.333007812 674 -113 c 0
 674 -125.666992188 669.333007812 -136.666992188 660 -146 c 0
 650.666992188 -155.333007812 639.666992188 -160 627 -160 c 2
 23 -160 l 2
EndSplineSet
EndChar

StartChar: cedilla
Encoding: 184 184 132
Width: 500
Flags: MW
HStem: -160 170<249 251.333>
LayerCount: 2
Fore
SplineSet
340 10 m 1
 279 -131 l 2
 271 -150.333007812 259.166992188 -160 243.5 -160 c 0
 227.833007812 -160 211.666992188 -155.166992188 195 -145.5 c 0
 178.333007812 -135.833007812 170 -126.5 170 -117.5 c 0
 170 -108.5 172.666992188 -100.333007812 178 -93 c 2
 249 10 l 1
 340 10 l 1
EndSplineSet
EndChar

StartChar: circumflex
Encoding: 273 710 133
Width: 500
Flags: MW
HStem: 590 21G<159 182 402.333 425.667> 726 20G<277 313 313 324.667>
LayerCount: 2
Fore
SplineSet
294 662 m 1
 242 617 l 2
 220.666992188 599 196 590 168 590 c 0
 150 590 141 596.666992188 141 610 c 0
 141 615.333007812 145 623.333007812 153 634 c 2
 219 717 l 2
 235 736.333007812 254.333007812 746 277 746 c 2
 313 746 l 2
 336.333007812 746 355.666992188 736.333007812 371 717 c 2
 437 634 l 2
 445 623.333007812 449 615.333007812 449 610 c 0
 449 596.666992188 437.333007812 590 414 590 c 0
 390.666992188 590 368 599 346 617 c 2
 294 662 l 1
EndSplineSet
EndChar

StartChar: Scaron
Encoding: 274 352 134
Width: 640
Flags: MW
HStem: 1 103<346 371 346 381.667> 618 102<322 357.667> 918 20G<209 232 452.333 475.667>
LayerCount: 2
Fore
SplineSet
292 911 m 2
 344 866 l 1
 396 911 l 2
 418 929 440.666992188 938 464 938 c 0
 487.333007812 938 499 931.333007812 499 918 c 0
 499 912.666992188 495 904.666992188 487 894 c 2
 421 811 l 2
 405.666992188 791.666992188 386.333007812 782 363 782 c 2
 327 782 l 2
 304.333007812 782 285 791.666992188 269 811 c 2
 203 894 l 2
 195 904.666992188 191 912.666992188 191 918 c 0
 191 931.333007812 200 938 218 938 c 0
 246 938 270.666992188 929 292 911 c 2
514 213 m 0
 514 263.747070312 455.333007812 300.081054688 338 322 c 1
 336 322 l 1
 284 332 239 346 201 364 c 0
 163 382 135.166992188 405.166992188 117.5 433.5 c 0
 99.8330078125 461.833007812 91 491 91 521 c 0
 91 579 116.5 626.666992188 167.5 664 c 0
 218.5 701.333007812 277.333007812 720 344 720 c 0
 373.333007812 720 403.333007812 715 434 705 c 0
 464.666992188 695 487.5 685.666992188 502.5 677 c 0
 517.5 668.333007812 537.333007812 656 562 640 c 0
 573.333007812 632 580.5 621 583.5 607 c 0
 586.5 593 584.166992188 580.166992188 576.5 568.5 c 0
 568.833007812 556.833007812 558 549.5 544 546.5 c 0
 530 543.5 517 546 505 554 c 0
 473.666992188 575.333007812 445.833007812 591.333007812 421.5 602 c 0
 397.166992188 612.666992188 371.333007812 618 344 618 c 0
 300 618 264 607.666992188 236 587 c 0
 208 566.333007812 194 544.333007812 194 521 c 0
 194 509.666992188 196.5 500 201.5 492 c 0
 220.486328125 461.622070312 270.986328125 438.622070312 353 423 c 1
 355 423 l 1
 411 411.666992188 457 397.666992188 493 381 c 0
 575.666992188 340.265625 617 284.265625 617 213 c 0
 617 151 589.666992188 100.166992188 535 60.5 c 0
 480.333007812 20.8330078125 417.333007812 1 346 1 c 0
 258.666992188 1.6669921875 173.333007812 35 90 101 c 0
 79.3330078125 109.666992188 73.1669921875 121.333007812 71.5 136 c 0
 69.8330078125 150.666992188 73.3330078125 163.333007812 82 174 c 0
 90.6669921875 184.666992188 102.333007812 190.833007812 117 192.5 c 0
 131.666992188 194.166992188 144.333007812 190.333007812 155 181 c 0
 219 129 282.666992188 103.333007812 346 104 c 0
 396 104 436.5 115.5 467.5 138.5 c 0
 498.5 161.5 514 186.333007812 514 213 c 0
EndSplineSet
EndChar

StartChar: yen
Encoding: 165 165 135
Width: 686
Flags: W
HStem: -5 196<133 354.333> 102 89<127 287 133 287 405 559> 264 89<127 252 133 252 133 287 438 559> 685 20G<108.333 128.667 566.333 585.667>
VStem: 287 118<54 102 45.6665 102 191 264>
LayerCount: 2
Fore
SplineSet
405 264 m 1xb8
 405 191 l 1
 559 191 l 2
 571 191 581.333007812 186.666992188 590 178 c 0
 598.666992188 169.333007812 603 158.833007812 603 146.5 c 0
 603 134.166992188 598.666992188 123.666992188 590 115 c 0
 581.333007812 106.333007812 571 102 559 102 c 2
 405 102 l 1x78
 405 54 l 2
 405 37.3330078125 399.333007812 23.3330078125 388 12 c 0
 376.666992188 0.6669921875 362.666992188 -5 346 -5 c 0xb8
 329.333007812 -5 315.333007812 0.6669921875 304 12 c 0
 292.666992188 23.3330078125 287 37.3330078125 287 54 c 2
 287 102 l 1
 133 102 l 2x78
 121 102 110.666992188 106.333007812 102 115 c 0
 93.3330078125 123.666992188 89 134.166992188 89 146.5 c 0
 89 158.833007812 93.3330078125 169.333007812 102 178 c 0
 110.666992188 186.666992188 121 191 133 191 c 2
 287 191 l 1
 287 264 l 1
 133 264 l 2
 121 264 110.666992188 268.333007812 102 277 c 0
 93.3330078125 285.666992188 89 296.166992188 89 308.5 c 0
 89 320.833007812 93.3330078125 331.333007812 102 340 c 0
 110.666992188 348.666992188 121 353 133 353 c 2
 252 353 l 1
 68 605 l 2
 58 619 53 633.5 53 648.5 c 0
 53 663.5 58.8330078125 676.666992188 70.5 688 c 0
 82.1669921875 699.333007812 98.1669921875 705 118.5 705 c 0
 138.833007812 705 156.666992188 693.666992188 172 671 c 2
 347 410 l 1
 524 670 l 2
 539.333007812 693.333007812 556.666992188 705 576 705 c 0
 595.333007812 705 610.666992188 699.833007812 622 689.5 c 0
 633.333007812 679.166992188 639 665.833007812 639 649.5 c 0
 639 633.166992188 634 618.333007812 624 605 c 2
 438 353 l 1
 559 353 l 2
 571 353 581.333007812 348.666992188 590 340 c 0
 598.666992188 331.333007812 603 320.833007812 603 308.5 c 0
 603 296.166992188 598.666992188 285.666992188 590 277 c 0
 581.333007812 268.333007812 571 264 559 264 c 2
 405 264 l 1xb8
EndSplineSet
EndChar

StartChar: guillemotright
Encoding: 187 187 136
Width: 515
Flags: MW
HStem: 42 21G 466 20G<241.667 257.333 492.333 508.667>
LayerCount: 2
Fore
SplineSet
539 56.5 m 0
 529.666992188 46.8330078125 517.166992188 42 501.5 42 c 0
 485.833007812 42 472.666992188 49 462 63 c 2
 333 229 l 2
 323 242.333007812 318 254.333007812 318 265 c 0
 318 275.666992188 323 287 333 299 c 2
 459 462 l 2
 470.333007812 478 484.166992188 486 500.5 486 c 0
 516.833007812 486 529.666992188 481.166992188 539 471.5 c 0
 548.333007812 461.833007812 553 450.5 553 437.5 c 0
 553 424.5 548.333007812 412.666992188 539 402 c 2
 434 265 l 1
 541 125 l 2
 549.666992188 114.333007812 553.833007812 102.666992188 553.5 90 c 0
 553.166992188 77.3330078125 548.333007812 66.1669921875 539 56.5 c 0
287.5 56.5 m 0
 277.833007812 46.8330078125 265.166992188 42 249.5 42 c 0
 233.833007812 42 220.666992188 49 210 63 c 2
 81 229 l 2
 71.6669921875 241.666992188 67 253.666992188 67 265 c 0
 67 276.333007812 71.6669921875 287.666992188 81 299 c 2
 207 462 l 2
 219.666992188 478 233.833007812 486 249.5 486 c 0
 265.166992188 486 277.666992188 481 287 471 c 0
 296.333007812 461 301 449.833007812 301 437.5 c 0
 301 425.166992188 296.666992188 413.333007812 288 402 c 2
 182 265 l 1
 290 125 l 2
 298 115 302 103.5 302 90.5 c 0
 302 77.5 297.166992188 66.1669921875 287.5 56.5 c 0
EndSplineSet
EndChar

StartChar: dieresis
Encoding: 168 168 137
Width: 500
Flags: MW
HStem: 572 129<188 206 388 406>
VStem: 133 129<627 645> 333 129<627 645>
LayerCount: 2
Fore
SplineSet
133 636 m 0
 133 654 139.166992188 669.333007812 151.5 682 c 0
 163.833007812 694.666992188 179 701 197 701 c 0
 215 701 230.333007812 694.666992188 243 682 c 0
 255.666992188 669.333007812 262 654 262 636 c 0
 262 618 255.666992188 602.833007812 243 590.5 c 0
 230.333007812 578.166992188 215 572 197 572 c 0
 179 572 163.833007812 578.166992188 151.5 590.5 c 0
 139.166992188 602.833007812 133 618 133 636 c 0
333 636 m 0
 333 654 339.166992188 669.333007812 351.5 682 c 0
 363.833007812 694.666992188 379 701 397 701 c 0
 415 701 430.333007812 694.666992188 443 682 c 0
 455.666992188 669.333007812 462 654 462 636 c 0
 462 618 455.666992188 602.833007812 443 590.5 c 0
 430.333007812 578.166992188 415 572 397 572 c 0
 379 572 363.833007812 578.166992188 351.5 590.5 c 0
 339.166992188 602.833007812 333 618 333 636 c 0
EndSplineSet
EndChar

StartChar: guilsinglleft
Encoding: 275 8249 138
Width: 311
Flags: MW
HStem: 42 21G<229.333 245.667> 466 20G<231.333 246.667>
LayerCount: 2
Fore
SplineSet
199 464 m 2
 210.333007812 478.666992188 223.666992188 486 239 486 c 0
 254.333007812 486 266.666992188 481.166992188 276 471.5 c 0
 285.333007812 461.833007812 290.166992188 450.5 290.5 437.5 c 0
 290.833007812 424.5 286.666992188 412.666992188 278 402 c 2
 171 262 l 1
 276 126 l 2
 285.333007812 115.333007812 290 103.5 290 90.5 c 0
 290 77.5 285.333007812 66.1669921875 276 56.5 c 0
 266.666992188 46.8330078125 253.833007812 42 237.5 42 c 0
 221.166992188 42 207.333007812 50 196 66 c 2
 70 228 l 2
 60 241.333007812 55 253.166992188 55 263.5 c 0
 55 273.833007812 60 285.666992188 70 299 c 2
 199 464 l 2
EndSplineSet
EndChar

StartChar: Ydieresis
Encoding: 276 376 139
Width: 716
Flags: W
HStem: 0 21G<324 339> 772 129<221 239 421 439>
VStem: 166 129<827 845> 276 110<55 325> 366 129<827 845>
LayerCount: 2
Fore
SplineSet
538.5 692.5 m 0xd0
 553.5 694.833007812 567 691.5 579 682.5 c 0
 591 673.5 598.166992188 661.5 600.5 646.5 c 0
 602.833007812 631.5 599.666992188 618 591 606 c 2
 386 325 l 1
 386 55 l 2
 386 39.6669921875 380.666992188 26.6669921875 370 16 c 0
 359.333007812 5.3330078125 346.5 0 331.5 0 c 0
 316.5 0 303.5 5.3330078125 292.5 16 c 0
 281.5 26.6669921875 276 39.6669921875 276 55 c 2
 276 325 l 1
 73 606 l 2
 63.6669921875 618 60 631.333007812 62 646 c 0
 64 660.666992188 71.3330078125 672.666992188 84 682 c 0
 96.6669921875 691.333007812 110.333007812 694.833007812 125 692.5 c 0
 139.666992188 690.166992188 151.333007812 682.666992188 160 670 c 2
 331 436 l 1
 502 670 l 2
 511.333007812 682.666992188 523.5 690.166992188 538.5 692.5 c 0xd0
166 836 m 0xe0
 166 854 172.166992188 869.333007812 184.5 882 c 0
 196.833007812 894.666992188 212 901 230 901 c 0
 248 901 263.333007812 894.666992188 276 882 c 0xd0
 288.666992188 869.333007812 295 854 295 836 c 0xe0
 295 818 288.666992188 802.833007812 276 790.5 c 0xd0
 263.333007812 778.166992188 248 772 230 772 c 0
 212 772 196.833007812 778.166992188 184.5 790.5 c 0
 172.166992188 802.833007812 166 818 166 836 c 0xe0
366 836 m 0xc8
 366 854 372.166992188 869.333007812 384.5 882 c 0
 396.833007812 894.666992188 412 901 430 901 c 0
 448 901 463.333007812 894.666992188 476 882 c 0
 488.666992188 869.333007812 495 854 495 836 c 0
 495 818 488.666992188 802.833007812 476 790.5 c 0
 463.333007812 778.166992188 448 772 430 772 c 0
 412 772 396.833007812 778.166992188 384.5 790.5 c 0
 372.166992188 802.833007812 366 818 366 836 c 0xc8
EndSplineSet
EndChar

StartChar: acute
Encoding: 180 180 140
Width: 500
Flags: MW
HStem: 590 21G<225 249> 730 20G<302.333 320.667>
LayerCount: 2
Fore
SplineSet
302 617 m 2
 282.666992188 599 261 590 237 590 c 0
 213 590 201 597 201 611 c 0
 201 617.666992188 203.666992188 625 209 633 c 2
 266 721 l 2
 278 740.333007812 293.166992188 750 311.5 750 c 0
 329.833007812 750 346.833007812 745.833007812 362.5 737.5 c 0
 378.166992188 729.166992188 386 720.166992188 386 710.5 c 0
 386 700.833007812 380.333007812 691 369 681 c 2
 302 617 l 2
EndSplineSet
EndChar

StartChar: grave
Encoding: 96 96 141
Width: 500
Flags: MW
HStem: 590 160<228.333 324.667>
LayerCount: 2
Fore
SplineSet
349 611 m 0
 349 597 336.833007812 590 312.5 590 c 0
 288.166992188 590 266.666992188 599 248 617 c 2
 180 681 l 2
 168.666992188 691 163 700.833007812 163 710.5 c 0
 163 720.166992188 170.833007812 729.166992188 186.5 737.5 c 0
 202.166992188 745.833007812 219.166992188 750 237.5 750 c 0
 255.833007812 750 271 740.333007812 283 721 c 2
 340 633 l 2
 346 624.333007812 349 617 349 611 c 0
EndSplineSet
EndChar

StartChar: Agrave
Encoding: 192 192 143
Width: 649
Flags: MW
HStem: 0 21G<109 132 546 569> 165 110<258 420 258 461 218 420> 790 160<336.333 432.667>
LayerCount: 2
Fore
SplineSet
510 35 m 2
 461 165 l 1
 218 165 l 1
 169 35 l 2
 159.666992188 11.6669921875 143.5 0 120.5 0 c 0
 97.5 0 81 8.1669921875 71 24.5 c 0
 61 40.8330078125 59 57.6669921875 65 75 c 2
 286 664 l 2
 290.666992188 674.666992188 297.833007812 683.333007812 307.5 690 c 0
 317.166992188 696.666992188 327.666992188 699.666992188 339 699 c 1
 364.333007812 700.333007812 382 688.666992188 392 664 c 2
 613 75 l 2
 619 57.6669921875 617 40.8330078125 607 24.5 c 0
 597 8.1669921875 580.5 0 557.5 0 c 0
 534.5 0 518.666992188 11.6669921875 510 35 c 2
258 275 m 1
 420 275 l 1
 339 490 l 1
 258 275 l 1
457 811 m 0
 457 797 444.833007812 790 420.5 790 c 0
 396.166992188 790 374.666992188 799 356 817 c 2
 288 881 l 2
 276.666992188 891 271 900.833007812 271 910.5 c 0
 271 920.166992188 278.833007812 929.166992188 294.5 937.5 c 0
 310.166992188 945.833007812 327.166992188 950 345.5 950 c 0
 363.833007812 950 379 940.333007812 391 921 c 2
 448 833 l 2
 454 823.666992188 457 816.333007812 457 811 c 0
EndSplineSet
EndChar

StartChar: Acircumflex
Encoding: 194 194 144
Width: 664
Flags: MW
HStem: 0 21G<110 133 547 570> 165 110<259 421 259 462 219 421> 926 20G<322 358 358 369.667>
LayerCount: 2
Fore
SplineSet
511 35 m 2
 462 165 l 1
 219 165 l 1
 170 35 l 2
 160.666992188 11.6669921875 144.5 0 121.5 0 c 0
 98.5 0 82 8.1669921875 72 24.5 c 0
 62 40.8330078125 60 57.6669921875 66 75 c 2
 287 664 l 2
 291.666992188 674.666992188 298.833007812 683.333007812 308.5 690 c 0
 318.166992188 696.666992188 328.666992188 699.666992188 340 699 c 1
 365.333007812 700.333007812 383 688.666992188 393 664 c 2
 614 75 l 2
 620 57.6669921875 618 40.8330078125 608 24.5 c 0
 598 8.1669921875 581.5 0 558.5 0 c 0
 535.5 0 519.666992188 11.6669921875 511 35 c 2
259 275 m 1
 421 275 l 1
 340 490 l 1
 259 275 l 1
339 862 m 1
 287 817 l 2
 265.666992188 799 241 790 213 790 c 0
 195 790 186 796.666992188 186 810 c 0
 186 815.333007812 190 823.333007812 198 834 c 2
 264 917 l 2
 280 936.333007812 299.333007812 946 322 946 c 2
 358 946 l 2
 381.333007812 946 400.666992188 936.333007812 416 917 c 2
 482 834 l 2
 490 823.333007812 494 815.333007812 494 810 c 0
 494 796.666992188 482.333007812 790 459 790 c 0
 435.666992188 790 413 799 391 817 c 2
 339 862 l 1
EndSplineSet
EndChar

StartChar: Adieresis
Encoding: 196 196 145
Width: 663
Flags: MW
HStem: 0 21G<110 133 547 570> 165 110<259 421 259 462 219 421> 772 129<232 250 432 450>
VStem: 177 129<827 845> 377 129<827 845>
LayerCount: 2
Fore
SplineSet
511 35 m 2
 462 165 l 1
 219 165 l 1
 170 35 l 2
 160.666992188 11.6669921875 144.5 0 121.5 0 c 0
 98.5 0 82 8.1669921875 72 24.5 c 0
 62 40.8330078125 60 57.6669921875 66 75 c 2
 287 664 l 2
 291.666992188 674.666992188 298.833007812 683.333007812 308.5 690 c 0
 318.166992188 696.666992188 328.666992188 699.666992188 340 699 c 1
 365.333007812 700.333007812 383 688.666992188 393 664 c 2
 614 75 l 2
 620 57.6669921875 618 40.8330078125 608 24.5 c 0
 598 8.1669921875 581.5 0 558.5 0 c 0
 535.5 0 519.666992188 11.6669921875 511 35 c 2
259 275 m 1
 421 275 l 1
 340 490 l 1
 259 275 l 1
177 836 m 0
 177 854 183.166992188 869.333007812 195.5 882 c 0
 207.833007812 894.666992188 223 901 241 901 c 0
 259 901 274.333007812 894.666992188 287 882 c 0
 299.666992188 869.333007812 306 854 306 836 c 0
 306 818 299.666992188 802.833007812 287 790.5 c 0
 274.333007812 778.166992188 259 772 241 772 c 0
 223 772 207.833007812 778.166992188 195.5 790.5 c 0
 183.166992188 802.833007812 177 818 177 836 c 0
377 836 m 0
 377 854 383.166992188 869.333007812 395.5 882 c 0
 407.833007812 894.666992188 423 901 441 901 c 0
 459 901 474.333007812 894.666992188 487 882 c 0
 499.666992188 869.333007812 506 854 506 836 c 0
 506 818 499.666992188 802.833007812 487 790.5 c 0
 474.333007812 778.166992188 459 772 441 772 c 0
 423 772 407.833007812 778.166992188 395.5 790.5 c 0
 383.166992188 802.833007812 377 818 377 836 c 0
EndSplineSet
EndChar

StartChar: Eacute
Encoding: 201 201 147
Width: 593
Flags: MW
HStem: 0 111<151.333 486 162 486 215 486 215 486> 295 111<215 448 215 448> 589 111<215 486 215 215> 930 20G<446.333 464.667>
VStem: 104 111<111 295 406 589>
LayerCount: 2
Fore
SplineSet
159 0 m 1
 143.666992188 0 130.666992188 5.3330078125 120 16 c 0
 109.333007812 26.6669921875 104 39.6669921875 104 55 c 2
 104 645 l 2
 104 660.333007812 109.333007812 673.333007812 120 684 c 0
 130.666992188 694.666992188 143.666992188 700 159 700 c 2
 486 700 l 2
 500.666992188 700 513.5 694.666992188 524.5 684 c 0
 535.5 673.333007812 541 660.333007812 541 645 c 0
 541 629.666992188 535.5 616.5 524.5 605.5 c 0
 513.5 594.5 500.666992188 589 486 589 c 2
 215 589 l 1
 215 406 l 1
 448 406 l 2
 462.666992188 406 475.5 400.5 486.5 389.5 c 0
 497.5 378.5 503 365.5 503 350.5 c 0
 503 335.5 497.666992188 322.5 487 311.5 c 0
 476.333007812 300.5 463.333007812 295 448 295 c 2
 215 295 l 1
 215 111 l 1
 486 111 l 2
 500.666992188 111 513.5 105.5 524.5 94.5 c 0
 535.5 83.5 541 70.5 541 55.5 c 0
 541 40.5 535.5 27.5 524.5 16.5 c 0
 513.5 5.5 500.666992188 0 486 0 c 2
 162 0 l 1
 160 1 l 1
 159 0 l 1
446 817 m 2
 426.666992188 799 405 790 381 790 c 0
 357 790 345 797 345 811 c 0
 345 817.666992188 347.666992188 825 353 833 c 2
 410 921 l 2
 422 940.333007812 437.166992188 950 455.5 950 c 0
 473.833007812 950 490.833007812 945.833007812 506.5 937.5 c 0
 522.166992188 929.166992188 530 920.166992188 530 910.5 c 0
 530 900.833007812 524.333007812 891 513 881 c 2
 446 817 l 2
EndSplineSet
EndChar

StartChar: Edieresis
Encoding: 203 203 149
Width: 670
Flags: W
HStem: 0 111<151.333 486 162 486 215 486 215 486> 295 111<215 448 215 448> 589 111<215 486 215 215> 772 129<214 232 414 432>
VStem: 104 111<111 295 406 589> 159 129<700 845 827 845> 359 129<827 845>
LayerCount: 2
Fore
SplineSet
159 0 m 1xf6
 143.666992188 0 130.666992188 5.3330078125 120 16 c 0
 109.333007812 26.6669921875 104 39.6669921875 104 55 c 2
 104 645 l 2xfa
 104 660.333007812 109.333007812 673.333007812 120 684 c 0
 130.666992188 694.666992188 143.666992188 700 159 700 c 2xf6
 486 700 l 2
 500.666992188 700 513.5 694.666992188 524.5 684 c 0
 535.5 673.333007812 541 660.333007812 541 645 c 0
 541 629.666992188 535.5 616.5 524.5 605.5 c 0
 513.5 594.5 500.666992188 589 486 589 c 2
 215 589 l 1
 215 406 l 1
 448 406 l 2
 462.666992188 406 475.5 400.5 486.5 389.5 c 0
 497.5 378.5 503 365.5 503 350.5 c 0
 503 335.5 497.666992188 322.5 487 311.5 c 0
 476.333007812 300.5 463.333007812 295 448 295 c 2
 215 295 l 1
 215 111 l 1xfa
 486 111 l 2
 500.666992188 111 513.5 105.5 524.5 94.5 c 0
 535.5 83.5 541 70.5 541 55.5 c 0
 541 40.5 535.5 27.5 524.5 16.5 c 0
 513.5 5.5 500.666992188 0 486 0 c 2
 162 0 l 1
 160 1 l 1
 159 0 l 1xf6
159 836 m 0
 159 854 165.166992188 869.333007812 177.5 882 c 0
 189.833007812 894.666992188 205 901 223 901 c 0
 241 901 256.333007812 894.666992188 269 882 c 0
 281.666992188 869.333007812 288 854 288 836 c 0
 288 818 281.666992188 802.833007812 269 790.5 c 0
 256.333007812 778.166992188 241 772 223 772 c 0
 205 772 189.833007812 778.166992188 177.5 790.5 c 0
 165.166992188 802.833007812 159 818 159 836 c 0
359 836 m 0
 359 854 365.166992188 869.333007812 377.5 882 c 0
 389.833007812 894.666992188 405 901 423 901 c 0
 441 901 456.333007812 894.666992188 469 882 c 0
 481.666992188 869.333007812 488 854 488 836 c 0
 488 818 481.666992188 802.833007812 469 790.5 c 0
 456.333007812 778.166992188 441 772 423 772 c 0
 405 772 389.833007812 778.166992188 377.5 790.5 c 0
 365.166992188 802.833007812 359 818 359 836 c 0
EndSplineSet
EndChar

